<svg xmlns="http://www.w3.org/2000/svg" viewBox="0 0 184.66 241"><defs><style>.cls-1{fill:#f0d5b6;}.cls-2{fill:#4d2b09;}.cls-3{fill:#e8c59c;opacity:0.51;}.cls-4{fill:#2b1805;opacity:0.72;}.cls-5{fill:#f2f2f2;}.cls-6{fill:#a67c52;}.cls-7{fill:#754c24;}.cls-8{opacity:0.56;}.cls-9{fill:#42210b;}.cls-10{fill:#c69c6d;}.cls-11,.cls-12{fill:#f7931e;}.cls-11{opacity:0.1;}.cls-12{opacity:0.12;}.cls-13,.cls-14{fill:#f7f7f7;}.cls-13{opacity:0.29;}.cls-14{opacity:0.4;}.cls-15{opacity:0.68;}.cls-16{fill:#dbb386;}.cls-17{fill:#c95c61;}.cls-18{fill:#603813;}</style></defs><g id="Laag_2" data-name="Laag 2"><g id="Laag_2-2" data-name="Laag 2"><path d="M153.38,165.38c-.16-.22-.32-.44-.5-.66l-.51-.64,0-.82c0-.17,0-.35,0-.53l-1-13.19L157,161.33a17,17,0,0,1,.74,1.77l5.69,16.06Z"/><path d="M154.79,162.43a14,14,0,0,1,.63,1.5c-.19-.26-.38-.52-.58-.77,0-.24,0-.48-.05-.73M147.7,136.6l2.1,26.23v.06l0,.48.07,1.63,1,1.28c.16.2.3.4.45.6l20.07,27.48-11.32-32.09a19.08,19.08,0,0,0-.85-2L147.7,136.6Z"/><path d="M184.66,240.88V241H45.45a42.61,42.61,0,0,1-.65-5.49c-.44,1.84-.89,3.68-1.38,5.49H0c-.26-18.4,2.71-37.24,8.35-53a144.32,144.32,0,0,1,8.18-18.5l-.06-.09c-3.51-6.07-3.6-11.41-.64-38.13,2-17.94,3.14-25.39,3.84-29.83A78.33,78.33,0,0,0,20.82,90.5c.19-4.34.23-8,.26-11.32,0-3.64.07-6.8.31-9.87C20.49,46.11,34.93,15.8,60.85,5,64.17,3.57,71.07.69,79.42.69A33.56,33.56,0,0,1,90,2.37l.24-.13a1.36,1.36,0,0,1,.2-.11l0,0,0,0A17.47,17.47,0,0,1,99,0c8.45,0,17.08,5.2,22.24,8.3l.14.09c5.19,3.12,16,9.63,22.72,23a59.42,59.42,0,0,1,6,29.38A114.27,114.27,0,0,1,148,84.35c-.24,1.24-.41,2.07-.47,2.38-2.84,13.86,1.95,32.06,6.17,48.12,2.51,9.52,4.88,18.52,5.59,26.14l.73.74v.47a142.44,142.44,0,0,1,11.76,21.62C179.34,201.07,184.28,222.93,184.66,240.88Z"/><path class="cls-1" d="M179.79,241H150.16c-.29-.5-.58-1-.87-1.54-7.13-12.84-13.09-29.5-14.2-46.4-.07-1.06-.12-2.15-.16-3.26-.08-2.57-.07-5.26,0-8s.34-5.54.68-8.2c.8-6.25,2.26-11.83,4.48-15a6.33,6.33,0,0,1,3.34-2.7l.29-.08c3.33-.72,7.17,2.64,10.76,7.35l.58.77v0c6.12,8.32,11.42,20.21,12.2,22C175.22,203.92,179.45,225.29,179.79,241Z"/><path class="cls-2" d="M71.7,117c-.38,16.82-.52,57.94-19.5,64-10.75,3.43-25.49-3.65-31.5-14-2.64-4.55-2.92-8.57,0-35,3.76-33.93,4.47-29.47,5-41,.78-16.78-.85-23.69,4-35,.68-1.59,7.36-16.81,14-16,4.63.56,7.14,8.64,8.5,13C71.4,114.55,71.79,112.93,71.7,117Z"/><path class="cls-3" d="M159.7,226c-.89,5.61-4.21,11-8.3,15H130.87c-4.74-10.21-4.12-30.4-2.54-42.08.34-2.52.85-5.54,1.5-8.63.61-2.89,1.34-5.84,2.17-8.52a29.38,29.38,0,0,1,3.65-8.13,4.1,4.1,0,0,1,3-2c1.68,0,2.74,1.83,4.77,7.08q.34.87.72,1.89c1,2.61,2.18,5.89,3.72,10,.24.65.5,1.31.76,2,1.17,3.06,2.52,6.53,4.1,10.45C158.77,218,160.54,220.7,159.7,226Z"/><path class="cls-2" d="M142.7,86c.07-.33.23-1.13.46-2.32,1.53-8.2,5.09-31.45-3.46-40.68a33.07,33.07,0,0,0-12-8,12.28,12.28,0,0,0-4-1c-7.61.28-7.88,20.17-15,42.5C101,100.62,94.89,98.8,90.7,118c-2.64,12.1-6.5,29.81,3,44,13.58,20.27,49,25.17,58,14C163.17,161.81,136.45,116.44,142.7,86Z"/><path class="cls-4" d="M125.7,129c5,15.37,19.88,18.79,18,25s-19.51,9.81-32.5,3c-10.4-5.45-16.56-16.84-16.5-28,.08-14.65,10.84-23.4,16.5-28,3.15-2.56,11.69-9.5,15.5-7C131.81,97.34,120.31,112.28,125.7,129Z"/><path class="cls-4" d="M53.7,109a83.34,83.34,0,0,1,3,33c-.41,4.89-1.68,14-3,14-2.3,0,1.62-27.61-10-47a59,59,0,0,1-6-13c-2-6.35-4-16.2-2-17C38.33,77.92,48.72,92.72,53.7,109Z"/><path class="cls-1" d="M155.7,227a27,27,0,0,1-6.41,12.46c-.47.53-1,1.05-1.47,1.54H50.49c-1.5-5.89-.22-14.93-3.79-28-.56-2.07-1.19-4-1.86-5.82l-.3-.81C36.34,184.94,22,180.88,23.7,169a15.9,15.9,0,0,1,1.06-3.78s0,0,0,0c3-7.05,11.16-12.94,21.6-17.33,2.45-1,5-2,7.69-2.85,3.31-1.07,6.76-2,10.27-2.81A126.33,126.33,0,0,1,91.2,139a123.85,123.85,0,0,1,19.26,1.46h0a109.89,109.89,0,0,1,22.25,5.7,71.73,71.73,0,0,1,7.65,3.41c7.26,3.82,12.68,8.63,14.73,14.36v0a14.55,14.55,0,0,1,.59,2.05c1.94,9.32-6.26,14-7.1,26.55,0,.07,0,.13,0,.2a33.55,33.55,0,0,0,.11,5.25C150,211.67,157.87,216,155.7,227Z"/><path class="cls-1" d="M96.7,168c-18.58,5.92-40.7-12.88-39-21,.82-3.93,6.63-2.5,11-9,5-7.39,3.78-18.67,3-26-.1-1-.22-1.89-.33-2.7-.08-.56-.15-1.08-.22-1.56h0a27.15,27.15,0,0,1-.37-3.3v0h0a5.16,5.16,0,0,1,.83-3.22l.1-.15c3.21-4.56,11.84-3.51,16-3,7.2.88,16.63,4,19.85,8.14A4.78,4.78,0,0,1,108.7,109v.08c0,1.56-1,2.47-2.3,3.63h0a0,0,0,0,0,0,0,15.64,15.64,0,0,0-4.25,5.26l-.06.14c-.13.27-.26.56-.38.87s-2.52,6.71,0,13c3.23,8.07,11.15,7.4,13,13C117.06,152.13,107.89,164.42,96.7,168Z"/><path class="cls-3" d="M108.7,109v.08c0,1.41-1.43,2-2.3,3.63h0a0,0,0,0,0,0,0,15.64,15.64,0,0,0-4.25,5.26l-.06.14c-5,1-10.67-.38-28.38-9.13l-2.55-1.26h0l-.37-3.3v0h0a22.24,22.24,0,0,0,.83-3.22c5.07-2.07,15.35-.57,18.24-.15a61.1,61.1,0,0,1,17.71,5.14A4.78,4.78,0,0,1,108.7,109Z"/><path class="cls-1" d="M137.7,80a36.5,36.5,0,0,1-4,14,40.55,40.55,0,0,1-13,16,30.65,30.65,0,0,1-13,6c-2.86.5-7.23.77-21-4-12.4-4.3-18.6-6.44-22-10-1.86-1.95-5.22-6.12-8-24-3-19.5-4.54-29.25-1-36,9.68-18.45,39.07-18,43-18,6,.08,16.9.38,26,8a29,29,0,0,1,8,10c3.32,7,.87,10,3,24C136.92,74,138,75,137.7,80Z"/><path class="cls-5" d="M122.2,70.87A10.84,10.84,0,0,1,112.54,65a8.85,8.85,0,0,1,.46-.78,13.89,13.89,0,0,1,7-3,15.59,15.59,0,0,1,2-.13A14.7,14.7,0,0,1,129.28,63a11.73,11.73,0,0,1,2.47,1.83,1,1,0,0,1,.1.18,10.94,10.94,0,0,1-9.65,5.89Z"/><path class="cls-6" d="M122.05,61.24a14.57,14.57,0,0,1,7.17,1.84,11.83,11.83,0,0,1,2.43,1.79l.07.12a10.85,10.85,0,0,1-3.9,4.17,10.61,10.61,0,0,1-4.46,1.51,8.41,8.41,0,0,1-1.16.07A10.72,10.72,0,0,1,112.68,65c.13-.24.26-.46.4-.68a13.72,13.72,0,0,1,7-2.93,15.47,15.47,0,0,1,2-.14m0-.25a15.34,15.34,0,0,0-2,.14,14,14,0,0,0-7.11,3c-.18.28-.34.56-.49.85a11,11,0,0,0,9.8,6,9.39,9.39,0,0,0,1.19-.07A10.8,10.8,0,0,0,128,69.37,11.09,11.09,0,0,0,132,65c-.05-.09-.1-.19-.16-.28a11.92,11.92,0,0,0-2.5-1.85A14.79,14.79,0,0,0,122.05,61Z"/><path class="cls-7" d="M129.7,65A6.21,6.21,0,0,1,128,69.37a10.8,10.8,0,0,1-4.56,1.55A5.85,5.85,0,0,1,118.7,65a6.28,6.28,0,0,1,1.3-3.86,15.34,15.34,0,0,1,2-.14,14.79,14.79,0,0,1,7.29,1.87A6.48,6.48,0,0,1,129.7,65Z"/><g class="cls-8"><ellipse class="cls-9" cx="124.2" cy="64.99" rx="3.44" ry="3.75"/></g><path class="cls-6" d="M122.05,61.24a14.57,14.57,0,0,1,7.17,1.84,11.83,11.83,0,0,1,2.43,1.79l.07.12a10.85,10.85,0,0,1-3.9,4.17,10.61,10.61,0,0,1-4.46,1.51,8.41,8.41,0,0,1-1.16.07A10.72,10.72,0,0,1,112.68,65c.13-.24.26-.46.4-.68a13.72,13.72,0,0,1,7-2.93,15.47,15.47,0,0,1,2-.14m0-.25a15.34,15.34,0,0,0-2,.14,14,14,0,0,0-7.11,3c-.18.28-.34.56-.49.85a11,11,0,0,0,9.8,6,9.39,9.39,0,0,0,1.19-.07A10.8,10.8,0,0,0,128,69.37,11.09,11.09,0,0,0,132,65c-.05-.09-.1-.19-.16-.28a11.92,11.92,0,0,0-2.5-1.85A14.79,14.79,0,0,0,122.05,61Z"/><ellipse cx="124.2" cy="64.99" rx="2.29" ry="2.5"/><path class="cls-10" d="M131.31,64.06a13.13,13.13,0,0,0-1.91-1.31,14.91,14.91,0,0,0-7.35-1.88A14.69,14.69,0,0,0,120,61a14.18,14.18,0,0,0-6.54,2.55,10.77,10.77,0,0,1,8.76-4.44,10.5,10.5,0,0,1,1.17.06,10.82,10.82,0,0,1,7.94,4.88Z"/><path class="cls-6" d="M122.2,59.24a8.66,8.66,0,0,1,1.17.07,10.62,10.62,0,0,1,4.45,1.51,10.92,10.92,0,0,1,2.91,2.63,12.49,12.49,0,0,0-1.27-.81,15,15,0,0,0-7.41-1.9,16.39,16.39,0,0,0-2.08.14A14.53,14.53,0,0,0,114,63a10.66,10.66,0,0,1,8.16-3.76m0-.25a11,11,0,0,0-9.31,5.15,14,14,0,0,1,7.11-3,15.34,15.34,0,0,1,2-.14,14.79,14.79,0,0,1,7.29,1.87,11.92,11.92,0,0,1,2.5,1.85,10.94,10.94,0,0,0-3.89-4.1,10.8,10.8,0,0,0-4.56-1.55A9.39,9.39,0,0,0,122.2,59Z"/><ellipse class="cls-11" cx="124.2" cy="68.99" rx="0.5" ry="1"/><ellipse class="cls-12" cx="126.2" cy="67.99" rx="0.5" ry="1" transform="translate(-17.13 65.48) rotate(-27.31)"/><ellipse class="cls-13" cx="122.2" cy="63.49" rx="1.5" ry="0.5"/><circle class="cls-14" cx="120.67" cy="64.86" r="0.5"/><path class="cls-5" d="M83.2,70.87A10.84,10.84,0,0,1,73.54,65a8.85,8.85,0,0,1,.46-.78,13.89,13.89,0,0,1,7-3,15.59,15.59,0,0,1,2-.13A14.7,14.7,0,0,1,90.28,63a11.73,11.73,0,0,1,2.47,1.83,1,1,0,0,1,.1.18,10.94,10.94,0,0,1-9.65,5.89Z"/><path class="cls-6" d="M83.05,61.24a14.57,14.57,0,0,1,7.17,1.84,11.83,11.83,0,0,1,2.43,1.79l.07.12a10.85,10.85,0,0,1-3.9,4.17,10.61,10.61,0,0,1-4.46,1.51,8.41,8.41,0,0,1-1.16.07A10.72,10.72,0,0,1,73.68,65c.13-.24.26-.46.4-.68a13.72,13.72,0,0,1,7-2.93,15.47,15.47,0,0,1,2-.14m0-.25a15.34,15.34,0,0,0-2,.14,14,14,0,0,0-7.11,3c-.18.28-.34.56-.49.85a11,11,0,0,0,9.8,6,9.39,9.39,0,0,0,1.19-.07A10.8,10.8,0,0,0,89,69.37,11.09,11.09,0,0,0,93,65c0-.09-.1-.19-.16-.28a11.92,11.92,0,0,0-2.5-1.85A14.79,14.79,0,0,0,83.05,61Z"/><path class="cls-7" d="M90.7,65A6.21,6.21,0,0,1,89,69.37a10.8,10.8,0,0,1-4.56,1.55A5.85,5.85,0,0,1,79.7,65,6.28,6.28,0,0,1,81,61.13a15.34,15.34,0,0,1,2-.14,14.79,14.79,0,0,1,7.29,1.87A6.48,6.48,0,0,1,90.7,65Z"/><g class="cls-8"><ellipse class="cls-9" cx="85.2" cy="64.99" rx="3.44" ry="3.75"/></g><path class="cls-6" d="M83.05,61.24a14.57,14.57,0,0,1,7.17,1.84,11.83,11.83,0,0,1,2.43,1.79l.07.12a10.85,10.85,0,0,1-3.9,4.17,10.61,10.61,0,0,1-4.46,1.51,8.41,8.41,0,0,1-1.16.07A10.72,10.72,0,0,1,73.68,65c.13-.24.26-.46.4-.68a13.72,13.72,0,0,1,7-2.93,15.47,15.47,0,0,1,2-.14m0-.25a15.34,15.34,0,0,0-2,.14,14,14,0,0,0-7.11,3c-.18.28-.34.56-.49.85a11,11,0,0,0,9.8,6,9.39,9.39,0,0,0,1.19-.07A10.8,10.8,0,0,0,89,69.37,11.09,11.09,0,0,0,93,65c0-.09-.1-.19-.16-.28a11.92,11.92,0,0,0-2.5-1.85A14.79,14.79,0,0,0,83.05,61Z"/><ellipse cx="85.2" cy="64.99" rx="2.29" ry="2.5"/><path class="cls-10" d="M92.31,64.06a13.13,13.13,0,0,0-1.91-1.31,14.91,14.91,0,0,0-7.35-1.88A14.69,14.69,0,0,0,81,61a14.18,14.18,0,0,0-6.54,2.55,10.77,10.77,0,0,1,8.76-4.44,10.5,10.5,0,0,1,1.17.06,10.82,10.82,0,0,1,7.94,4.88Z"/><path class="cls-6" d="M83.2,59.24a8.66,8.66,0,0,1,1.17.07,10.62,10.62,0,0,1,4.45,1.51,10.92,10.92,0,0,1,2.91,2.63,12.49,12.49,0,0,0-1.27-.81,15,15,0,0,0-7.41-1.9,16.39,16.39,0,0,0-2.08.14A14.53,14.53,0,0,0,75,63a10.66,10.66,0,0,1,8.16-3.76m0-.25a11,11,0,0,0-9.31,5.15,14,14,0,0,1,7.11-3,15.34,15.34,0,0,1,2-.14,14.79,14.79,0,0,1,7.29,1.87,11.92,11.92,0,0,1,2.5,1.85A10.94,10.94,0,0,0,89,60.61a10.8,10.8,0,0,0-4.56-1.55A9.39,9.39,0,0,0,83.2,59Z"/><ellipse class="cls-11" cx="85.2" cy="68.99" rx="0.5" ry="1"/><ellipse class="cls-12" cx="87.2" cy="67.99" rx="0.5" ry="1" transform="translate(-21.47 47.58) rotate(-27.31)"/><ellipse class="cls-13" cx="83.2" cy="63.49" rx="1.5" ry="0.5"/><circle class="cls-14" cx="81.67" cy="64.86" r="0.5"/><g class="cls-15"><path class="cls-16" d="M108.7,79a22,22,0,0,1,2,2.21h0a4.74,4.74,0,0,1,1,1.1,4.11,4.11,0,0,1,0,3.32c-1.12,2.46-6,3.29-9,1.1-1.47-1.08-2.31-2.79-3-5.52-2.56-10.09-.32-22.82,3-23.21.83-.1,1.51.6,2,1.11C109.48,64,107.1,77.39,108.7,79Z"/><ellipse class="cls-16" cx="101.2" cy="85.06" rx="3.5" ry="2.76"/></g><circle class="cls-17" cx="103.2" cy="97.49" r="2.5"/><circle class="cls-17" cx="107.2" cy="97.49" r="2.5"/><path class="cls-17" d="M110.7,101c.17,1.27-2.44,3-4,3h-3c-1.55,0-4.17-1.73-4-3s3.37-2,5.5-2S110.52,99.66,110.7,101Z"/><rect class="cls-17" x="98.7" y="96.99" width="5" height="5" transform="translate(-40.71 100.7) rotate(-45)"/><rect class="cls-17" x="106.7" y="96.99" width="5" height="5" transform="translate(-38.37 106.36) rotate(-45)"/><path class="cls-18" d="M110.78,54.36l-.1-3a21.89,21.89,0,0,1,21,2.62,20,20,0,0,0-16-.8Z"/><path class="cls-18" d="M91.81,55.07l-.25-3a29,29,0,0,0-21.68,4.18,31.1,31.1,0,0,1,16.86-1.78Z"/><path class="cls-2" d="M142.7,69c-2.17.38-2.94-11.25-14-23-2.92-3.1-6.64-5.79-14-11-3.3-2.34-6.29-4.36-9-6.15-6.6-4.39-11.37-7.32-14.34-9.76-2.67-2.19-3.89-4-3.69-6.09a6,6,0,0,1,1.65-3.44A13.6,13.6,0,0,1,92.7,7l.2-.11c8.17-4.46,19.52,2.34,25.8,6.11,5,3,14.85,8.84,21,21C147.88,50.18,145.38,68.52,142.7,69Z"/><path class="cls-4" d="M105.73,28.84c-6.6-4.39-11.37-7.32-14.34-9.76A16.12,16.12,0,0,1,91.7,17c.53-2.41,1.62-4.52.5-6-.75-1-2.06-1.15-2.85-1.44A13.6,13.6,0,0,1,92.7,7l.2-.11A8.67,8.67,0,0,1,96.7,8a19.2,19.2,0,0,1,8,8C105.11,16.86,108.61,24.52,105.73,28.84Z"/><path class="cls-1" d="M45.21,196.71c-.13,3.19-.36,6.41-.67,9.65A214.56,214.56,0,0,1,38.18,241H4.88c-.23-15.88,2-34.37,8.07-51.24a129.3,129.3,0,0,1,11.81-24.54c4.44-6.89,9.06-11.62,12.69-10.82C46.67,156.43,45.36,193.11,45.21,196.71Z"/><path d="M66.44,193.24l-4.81,1.35c0-.5-.06-1-.09-1.54A94.43,94.43,0,0,0,56.7,169a93.45,93.45,0,0,0-10.33-21.13c2.45-1,5-2,7.69-2.85a183.43,183.43,0,0,1,7.64,23,185,185,0,0,1,4.51,23.34C66.29,192,66.37,192.61,66.44,193.24Z"/><path d="M147.84,190.54c-.12.57-.26,1.14-.41,1.73-.2.84-.44,1.71-.7,2.59l-5-.37c.24-1.31.45-2.58.63-3.82a89,89,0,0,0,1-12c.12-8.61-1.28-15.13-3.27-20.11a36.57,36.57,0,0,0-2.34-4.85c-1.63-2.81-3.56-5.27-5.07-7.58a71.73,71.73,0,0,1,7.65,3.41c.73,1.36,1.64,3.05,2.68,5.36.14.32.29.64.42,1a73.41,73.41,0,0,1,5,16.08A48,48,0,0,1,147.84,190.54Z"/><path d="M50.49,241a46.15,46.15,0,0,1-1-8.41A88.57,88.57,0,0,0,46.69,213c-.53-2-1.16-3.92-1.86-5.82L44.69,201a113.26,113.26,0,0,1,17-8c7.64-2.84,12.21-4.53,18-5,.94-.08,1.87-.11,2.77-.11,6.3,0,10.68,1.86,14.92,3.67s8.41,3.57,14.4,3.57c.94,0,1.92,0,2.91-.13a23.35,23.35,0,0,0,9.12-2.59A22.27,22.27,0,0,1,131.7,190a29.21,29.21,0,0,1,3.38-.2,34.7,34.7,0,0,1,13.52,2.95,34.74,34.74,0,0,0,.11,5.26A42.18,42.18,0,0,0,153,212.28c2.1,4.66,3.92,8.68,2.73,14.71a27,27,0,0,1-6.41,12.47c-.51.57-1,1.08-1.47,1.54H50.49Z"/><path d="M50.49,241a47.14,47.14,0,0,1-.94-8.41A89.78,89.78,0,0,0,46.7,213c-.54-2-1.16-3.93-1.86-5.82L44.7,201a111.68,111.68,0,0,1,17-8c7.64-2.84,12.21-4.54,18-5,.94-.08,1.87-.12,2.77-.12,6.3,0,10.68,1.87,14.92,3.67s8.41,3.58,14.4,3.58c.94,0,1.92-.05,2.91-.13a23.35,23.35,0,0,0,9.12-2.59A21.86,21.86,0,0,1,131.7,190a27.14,27.14,0,0,1,3.38-.2,34.43,34.43,0,0,1,13.51,3,33.43,33.43,0,0,0,.12,5.25,42.11,42.11,0,0,0,4.26,14.3c2.11,4.65,3.93,8.67,2.74,14.7a26.8,26.8,0,0,1-6.42,12.46c-.51.58-1,1.08-1.47,1.54H50.49Z"/><path d="M155.7,227a27,27,0,0,1-6.41,12.46c-.47.53-1,1.05-1.47,1.54H50.49c-1.5-5.89-.22-14.93-3.79-28-.56-2.07-1.19-4-1.86-5.82-.05-2.06-.09-4.12-.14-6.18a112.78,112.78,0,0,1,17-8c7.49-2.78,12.19-4.53,18-5,15.67-1.26,19.75,8.37,35,7,8.71-.78,9.17-4.09,17-5a32.86,32.86,0,0,1,16.89,2.75,33.55,33.55,0,0,0,.11,5.25C150,211.67,157.87,216,155.7,227Z"/><path class="cls-2" d="M105.7,25.49c0,10.59-14.08,17.1-15,17.5-11.9,5.25-19.3-1.25-25,4-8.85,8.14-2.54,29.32-2,31,2.94,9.22,6.45,10.8,12,22,1.7,3.43,7.62,15.38,9,28,2.73,25-14.4,33.32-11,59,1.49,11.29,7.1,18.41,6,19-1.56.84-13.25-13.16-20-31-8.52-22.53-1.16-30.05-7-52C45.15,94.64,30,95.77,26.7,74c-3.13-20.84,9.86-53.1,36-64,4.42-1.84,15.48-6.45,27-2C95.68,10.3,105.69,16.57,105.7,25.49Z"/></g></g></svg>