<svg xmlns="http://www.w3.org/2000/svg" viewBox="0 0 184.66 242"><defs><style>.cls-1{fill:#f0d5b6;}.cls-2{fill:#4d2b09;}.cls-3{fill:#e8c59c;opacity:0.51;}.cls-4{fill:#2b1805;opacity:0.72;}.cls-5{fill:#f2f2f2;}.cls-6{fill:#a67c52;}.cls-7{fill:#754c24;}.cls-8{opacity:0.56;}.cls-9{fill:#42210b;}.cls-10,.cls-11{fill:#f7931e;}.cls-10{opacity:0.1;}.cls-11{opacity:0.12;}.cls-12,.cls-13{fill:#f7f7f7;}.cls-12{opacity:0.29;}.cls-13{opacity:0.4;}.cls-14{fill:#c69c6d;}.cls-15{opacity:0.68;}.cls-16{fill:#dbb386;}.cls-17{fill:#c95c61;}.cls-18{fill:#603813;}</style></defs><g id="Laag_2" data-name="Laag 2"><g id="Laag_2-2" data-name="Laag 2"><path d="M153.39,165.4c-.16-.23-.33-.46-.51-.68l-.51-.64,0-.82c0-.2,0-.41,0-.63l-1.08-13.17L157,161.33a16.12,16.12,0,0,1,.74,1.77l5.67,16.08Z"/><path d="M154.78,162.43a14,14,0,0,1,.63,1.5c-.19-.26-.38-.52-.58-.77,0-.24,0-.48-.05-.73M147.7,136.6l2.1,26.23v.06c0,.16,0,.32,0,.48l.07,1.63,1,1.28.45.6,20.07,27.48-11.32-32.09a17.29,17.29,0,0,0-.86-2L147.7,136.6Z"/><path d="M184.66,240.88V241H45.45a42.61,42.61,0,0,1-.65-5.49c-.44,1.84-.89,3.68-1.38,5.49H0c-.26-18.4,2.71-37.24,8.35-53a144.32,144.32,0,0,1,8.18-18.5l-.06-.09c-3.51-6.07-3.6-11.41-.64-38.13,2-17.94,3.14-25.39,3.84-29.83A78.33,78.33,0,0,0,20.82,90.5c.19-4.34.23-8,.26-11.32,0-3.64.07-6.8.31-9.87C20.49,46.11,34.93,15.8,60.85,5,64.17,3.57,71.07.69,79.42.69A33.56,33.56,0,0,1,90,2.37l.24-.13a1.36,1.36,0,0,1,.2-.11l0,0,0,0A17.47,17.47,0,0,1,99,0c8.45,0,17.08,5.2,22.24,8.3l.14.09c5.19,3.12,16,9.63,22.72,23a59.42,59.42,0,0,1,6,29.38A114.27,114.27,0,0,1,148,84.35c-.24,1.24-.41,2.07-.47,2.38-2.84,13.86,1.95,32.06,6.17,48.12,2.51,9.52,4.88,18.52,5.59,26.14l.73.74v.47a142.44,142.44,0,0,1,11.76,21.62C179.34,201.07,184.28,222.93,184.66,240.88Z"/><path class="cls-1" d="M180,241.24H151.57c-.26.27-.53.52-.8.76-.15-.25-.3-.5-.44-.76-.29-.5-.58-1-.87-1.54-7.13-12.84-13.09-29.5-14.2-46.4a106.08,106.08,0,0,1,.56-19.42c1.18-9.17,3.75-16.89,8.11-17.83,3.51-.76,7.58,3,11.34,8.12v0c6.12,8.32,11.42,20.21,12.2,22C175.39,204.17,179.62,225.54,180,241.24Z"/><path class="cls-2" d="M71.87,117.24c-.38,16.82-.52,57.94-19.5,64-10.75,3.43-25.49-3.65-31.5-14-2.64-4.55-2.92-8.57,0-35,3.76-33.93,4.47-29.47,5-41,.78-16.78-.85-23.69,4-35,.68-1.59,7.36-16.81,14-16,4.63.56,7.14,8.64,8.5,13C71.57,114.8,72,113.18,71.87,117.24Z"/><path class="cls-3" d="M159.87,226.24c-.89,5.61-4.21,11-8.3,15-.26.27-.53.52-.8.76-.15-.25-.3-.5-.44-.76H131c-4.74-10.21-4.12-30.4-2.54-42.08,1.06-7.81,3.71-20.41,7.32-25.28a4.1,4.1,0,0,1,3-2c2.71,0,3.81,4.82,10,20.93,1.17,3.06,2.52,6.53,4.1,10.45C158.94,218.28,160.71,221,159.87,226.24Z"/><path class="cls-2" d="M142.87,86.24c.07-.33.23-1.13.46-2.32,1.53-8.2,5.09-31.45-3.46-40.68a33.07,33.07,0,0,0-12-8,12.28,12.28,0,0,0-4-1c-7.61.28-7.88,20.17-15,42.5-7.69,24.13-13.81,22.31-18,41.5-2.64,12.1-6.5,29.81,3,44,13.58,20.27,49,25.17,58,14C163.34,162.06,136.62,116.69,142.87,86.24Z"/><path class="cls-4" d="M125.87,129.24c5,15.37,19.88,18.79,18,25s-19.51,9.81-32.5,3c-10.4-5.45-16.56-16.84-16.5-28,.08-14.65,10.84-23.4,16.5-28,3.15-2.56,11.69-9.5,15.5-7C132,97.59,120.48,112.53,125.87,129.24Z"/><path class="cls-4" d="M53.87,109.24a83.34,83.34,0,0,1,3,33c-.41,4.89-1.68,14-3,14-2.3,0,1.62-27.61-10-47a59,59,0,0,1-6-13c-2-6.35-4-16.2-2-17C38.5,78.17,48.89,93,53.87,109.24Z"/><path class="cls-1" d="M155.87,227.24a27,27,0,0,1-6.41,12.46c-.47.53-1,1.05-1.47,1.54H50.66c-1.5-5.89-.22-14.93-3.79-28-.56-2.07-1.19-4-1.86-5.82l-.3-.81c-8.2-21.42-22.57-25.48-20.84-37.37a15.9,15.9,0,0,1,1.06-3.78s0,0,0,0c3-7.05,11.16-12.94,21.6-17.33,2.45-1,5-2,7.69-2.85,3.31-1.07,6.76-2,10.27-2.81a126.33,126.33,0,0,1,26.87-3.21,123.85,123.85,0,0,1,19.26,1.46h0a109.89,109.89,0,0,1,22.25,5.7,71.73,71.73,0,0,1,7.65,3.41c7.26,3.82,12.68,8.63,14.73,14.36v0a14.55,14.55,0,0,1,.59,2.05c1.94,9.32-6.26,14-7.1,26.55,0,.07,0,.13,0,.2a33.55,33.55,0,0,0,.11,5.25C150.19,211.92,158,216.24,155.87,227.24Z"/><path class="cls-1" d="M96.87,168.24c-18.58,5.92-40.7-12.88-39-21,.82-3.93,6.63-2.5,11-9,5-7.39,3.78-18.67,3-26-.1-1-.22-1.89-.33-2.7-.08-.56-.15-1.08-.22-1.56h0a27.15,27.15,0,0,1-.37-3.3v0h0a5.16,5.16,0,0,1,.83-3.22l.1-.15c3.21-4.56,11.84-3.51,16-3,7.2.88,16.63,4,19.85,8.14a4.78,4.78,0,0,1,1.15,2.86v.08c0,1.56-1,2.47-2.3,3.63h0a0,0,0,0,0,0,0,15.64,15.64,0,0,0-4.25,5.26l-.06.14c-.13.27-.26.56-.38.87s-2.52,6.71,0,13c3.23,8.07,11.15,7.4,13,13C117.23,152.38,108.06,164.67,96.87,168.24Z"/><path class="cls-3" d="M108.87,109.24v.08c0,1.41-1.43,2-2.3,3.63h0a0,0,0,0,0,0,0,15.64,15.64,0,0,0-4.25,5.26l-.06.14c-5,1-10.67-.38-28.38-9.13L71.32,108h0l-.37-3.3v0h0a22.24,22.24,0,0,0,.83-3.22c5.07-2.07,15.35-.57,18.24-.15a61.1,61.1,0,0,1,17.71,5.14A4.78,4.78,0,0,1,108.87,109.24Z"/><path class="cls-1" d="M137.87,80.24a36.5,36.5,0,0,1-4,14,40.62,40.62,0,0,1-13,16,30.65,30.65,0,0,1-13,6c-2.86.5-7.23.77-21-4-12.4-4.3-18.6-6.45-22-10-1.86-1.95-5.22-6.12-8-24-3-19.5-4.54-29.25-1-36,9.68-18.45,39.07-18,43-18,6,.08,16.9.38,26,8a29,29,0,0,1,8,10c3.32,7,.87,10,3,24C137.09,74.23,138.19,75.24,137.87,80.24Z"/><path class="cls-5" d="M122.37,71.12a10.64,10.64,0,0,1-3-.44,10.94,10.94,0,0,1-6.62-5.44,8.85,8.85,0,0,1,.46-.78,13.34,13.34,0,0,1,4.52-2.4,13.75,13.75,0,0,1,2.5-.56,15.59,15.59,0,0,1,2-.13,15,15,0,0,1,4.74.75,13,13,0,0,1,2.49,1.1,11.73,11.73,0,0,1,2.47,1.83,1,1,0,0,1,.1.18,10.78,10.78,0,0,1-6.61,5.45h0l-.16,0a10,10,0,0,1-1.7.33A10.86,10.86,0,0,1,122.37,71.12Z"/><path class="cls-6" d="M122.22,61.49a14.82,14.82,0,0,1,4.7.75,13.47,13.47,0,0,1,2.47,1.09,11.83,11.83,0,0,1,2.43,1.79l.07.12a10.85,10.85,0,0,1-3.9,4.17,10.59,10.59,0,0,1-2.46,1.1h0l-.32.09a9.41,9.41,0,0,1-1.68.32,8.41,8.41,0,0,1-1.16.07,10.43,10.43,0,0,1-3-.42h0l-.06,0a10.79,10.79,0,0,1-6.49-5.31c.13-.24.26-.46.4-.68a13.21,13.21,0,0,1,4.48-2.38,13.42,13.42,0,0,1,2.47-.55,15.47,15.47,0,0,1,2-.14m0-.25a15.34,15.34,0,0,0-2,.14,13.77,13.77,0,0,0-2.52.56,13.49,13.49,0,0,0-4.59,2.45c-.18.28-.34.56-.49.85a11,11,0,0,0,6.7,5.55h0a10.82,10.82,0,0,0,3.08.44,9.39,9.39,0,0,0,1.19-.07,9.86,9.86,0,0,0,1.72-.33h0a10.82,10.82,0,0,0,2.83-1.22,11.09,11.09,0,0,0,4-4.38c0-.09-.1-.19-.16-.28a11.92,11.92,0,0,0-2.5-1.85A13.85,13.85,0,0,0,127,62a15.2,15.2,0,0,0-4.78-.76Z"/><path class="cls-7" d="M127.81,65.38a6.82,6.82,0,0,1-2.52,5.46h0a9.86,9.86,0,0,1-1.72.33,9.39,9.39,0,0,1-1.19.07,10.82,10.82,0,0,1-3.08-.44h0a6.86,6.86,0,0,1-2.46-5.41,7.32,7.32,0,0,1,.84-3.44,5.92,5.92,0,0,1,2.29-2.43h0l4.62,0h0A5.84,5.84,0,0,1,127,62,7.33,7.33,0,0,1,127.81,65.38Z"/><g class="cls-8"><ellipse class="cls-9" cx="122.32" cy="65.88" rx="3.44" ry="3.75"/></g><ellipse cx="122.32" cy="65.88" rx="2.29" ry="2.5"/><ellipse class="cls-10" cx="122.32" cy="69.88" rx="0.5" ry="1"/><ellipse class="cls-11" cx="124.32" cy="68.88" rx="0.5" ry="1" transform="translate(-17.75 64.71) rotate(-27.31)"/><ellipse class="cls-12" cx="120.32" cy="64.38" rx="1.5" ry="0.5"/><circle class="cls-13" cx="118.79" cy="65.75" r="0.5"/><path class="cls-6" d="M122.22,61.49a14.82,14.82,0,0,1,4.7.75,13.47,13.47,0,0,1,2.47,1.09,11.83,11.83,0,0,1,2.43,1.79l.07.12a10.85,10.85,0,0,1-3.9,4.17,10.59,10.59,0,0,1-2.46,1.1h0l-.32.09a9.41,9.41,0,0,1-1.68.32,8.41,8.41,0,0,1-1.16.07,10.43,10.43,0,0,1-3-.42h0l-.06,0a10.79,10.79,0,0,1-6.49-5.31c.13-.24.26-.46.4-.68a13.21,13.21,0,0,1,4.48-2.38,13.42,13.42,0,0,1,2.47-.55,15.47,15.47,0,0,1,2-.14m0-.25a15.34,15.34,0,0,0-2,.14,13.77,13.77,0,0,0-2.52.56,13.49,13.49,0,0,0-4.59,2.45c-.18.28-.34.56-.49.85a11,11,0,0,0,6.7,5.55h0a10.82,10.82,0,0,0,3.08.44,9.39,9.39,0,0,0,1.19-.07,9.86,9.86,0,0,0,1.72-.33h0a10.82,10.82,0,0,0,2.83-1.22,11.09,11.09,0,0,0,4-4.38c0-.09-.1-.19-.16-.28a11.92,11.92,0,0,0-2.5-1.85A13.85,13.85,0,0,0,127,62a15.2,15.2,0,0,0-4.78-.76Z"/><path class="cls-14" d="M131.48,64.31A13.13,13.13,0,0,0,129.57,63a14.91,14.91,0,0,0-7.35-1.88,14.69,14.69,0,0,0-2.07.14,14.26,14.26,0,0,0-6.55,2.55,10.81,10.81,0,0,1,8.77-4.44,10.5,10.5,0,0,1,1.17.06,10.82,10.82,0,0,1,7.94,4.88Z"/><path class="cls-6" d="M122.37,59.49a8.66,8.66,0,0,1,1.17.07A10.62,10.62,0,0,1,128,61.07a10.75,10.75,0,0,1,2.91,2.63,12.49,12.49,0,0,0-1.27-.81,15,15,0,0,0-7.41-1.9,16.39,16.39,0,0,0-2.08.14,14.53,14.53,0,0,0-5.93,2.12,10.66,10.66,0,0,1,8.16-3.76m0-.25a11,11,0,0,0-9.31,5.15,14,14,0,0,1,7.11-3,15.34,15.34,0,0,1,2-.14,14.79,14.79,0,0,1,7.29,1.87A11.92,11.92,0,0,1,132,65a10.94,10.94,0,0,0-3.89-4.1,10.8,10.8,0,0,0-4.56-1.55,9.39,9.39,0,0,0-1.19-.07Z"/><path class="cls-5" d="M83.37,71.12a10.84,10.84,0,0,1-9.66-5.88,8.85,8.85,0,0,1,.46-.78,13.8,13.8,0,0,1,7-3,15.59,15.59,0,0,1,2-.13,14.7,14.7,0,0,1,7.23,1.85,11.73,11.73,0,0,1,2.47,1.83,1,1,0,0,1,.1.18,10.81,10.81,0,0,1-8.47,5.82A10.86,10.86,0,0,1,83.37,71.12Z"/><path class="cls-6" d="M83.22,61.49a14.57,14.57,0,0,1,7.17,1.84,11.83,11.83,0,0,1,2.43,1.79l.07.12A10.85,10.85,0,0,1,89,69.41a10.61,10.61,0,0,1-4.46,1.51,8.41,8.41,0,0,1-1.16.07,10.72,10.72,0,0,1-9.52-5.75c.13-.24.26-.46.4-.68a13.72,13.72,0,0,1,7-2.93,15.47,15.47,0,0,1,2-.14m0-.25a15.34,15.34,0,0,0-2,.14,14,14,0,0,0-7.11,3c-.18.28-.34.56-.49.85a11,11,0,0,0,9.8,6,9.39,9.39,0,0,0,1.19-.07,10.8,10.8,0,0,0,4.56-1.55,11.09,11.09,0,0,0,4-4.38c0-.09-.1-.19-.16-.28a11.92,11.92,0,0,0-2.5-1.85,14.79,14.79,0,0,0-7.29-1.87Z"/><path class="cls-7" d="M88.87,64.74c0,3.59-2.46,6.5-5.5,6.5s-5.5-2.91-5.5-6.5A7.26,7.26,0,0,1,78.38,62a6.38,6.38,0,0,1,1.35-2.16,10.75,10.75,0,0,1,3.64-.63,9.39,9.39,0,0,1,1.19.07,11,11,0,0,1,2.43.54,6.59,6.59,0,0,1,1.43,2.3A7.53,7.53,0,0,1,88.87,64.74Z"/><g class="cls-8"><ellipse class="cls-9" cx="83.37" cy="65.24" rx="3.44" ry="3.75"/></g><path class="cls-6" d="M83.22,61.49a14.57,14.57,0,0,1,7.17,1.84,11.83,11.83,0,0,1,2.43,1.79l.07.12A10.85,10.85,0,0,1,89,69.41a10.61,10.61,0,0,1-4.46,1.51,8.41,8.41,0,0,1-1.16.07,10.72,10.72,0,0,1-9.52-5.75c.13-.24.26-.46.4-.68a13.72,13.72,0,0,1,7-2.93,15.47,15.47,0,0,1,2-.14m0-.25a15.34,15.34,0,0,0-2,.14,14,14,0,0,0-7.11,3c-.18.28-.34.56-.49.85a11,11,0,0,0,9.8,6,9.39,9.39,0,0,0,1.19-.07,10.8,10.8,0,0,0,4.56-1.55,11.09,11.09,0,0,0,4-4.38c0-.09-.1-.19-.16-.28a11.92,11.92,0,0,0-2.5-1.85,14.79,14.79,0,0,0-7.29-1.87Z"/><ellipse cx="83.37" cy="65.24" rx="2.29" ry="2.5"/><path class="cls-14" d="M92.48,64.31A13.13,13.13,0,0,0,90.57,63a14.07,14.07,0,0,0-2.11-1,14.92,14.92,0,0,0-5.24-.91,14.69,14.69,0,0,0-2.07.14,13.93,13.93,0,0,0-2.81.65,13.13,13.13,0,0,0-3.73,1.9A10.73,10.73,0,0,1,79.77,60a10.92,10.92,0,0,1,4.77-.56,10.82,10.82,0,0,1,7.94,4.88Z"/><path class="cls-6" d="M83.37,59.49a8.41,8.41,0,0,1,1.16.07,10.54,10.54,0,0,1,2.38.53,10.38,10.38,0,0,1,2.08,1A10.75,10.75,0,0,1,91.9,63.7a12.49,12.49,0,0,0-1.27-.81,13.22,13.22,0,0,0-2.12-1A15.06,15.06,0,0,0,83.22,61a16.39,16.39,0,0,0-2.08.14,15,15,0,0,0-2.84.66,13.8,13.8,0,0,0-3.08,1.45,10.52,10.52,0,0,1,4.6-3.13,10.4,10.4,0,0,1,3.55-.62m0-.25a10.75,10.75,0,0,0-3.64.63,10.91,10.91,0,0,0-5.67,4.52A13.1,13.1,0,0,1,78.38,62a14.18,14.18,0,0,1,2.79-.65,15.34,15.34,0,0,1,2-.14,15,15,0,0,1,5.2.91,13.67,13.67,0,0,1,2.09,1A11.92,11.92,0,0,1,93,65a10.9,10.9,0,0,0-8.45-5.65,9.39,9.39,0,0,0-1.19-.07Z"/><ellipse class="cls-10" cx="83.37" cy="69.24" rx="0.5" ry="1"/><ellipse class="cls-11" cx="85.37" cy="68.24" rx="0.5" ry="1" transform="translate(-21.79 46.77) rotate(-27.31)"/><ellipse class="cls-12" cx="81.37" cy="63.74" rx="1.5" ry="0.5"/><circle class="cls-13" cx="79.84" cy="65.11" r="0.5"/><g class="cls-15"><path class="cls-16" d="M108.87,79.24a22,22,0,0,1,2,2.21h0a4.74,4.74,0,0,1,1,1.1,4.11,4.11,0,0,1,0,3.32c-1.12,2.46-6,3.29-9,1.1-1.47-1.08-2.31-2.79-3-5.52-2.56-10.09-.32-22.82,3-23.21.83-.1,1.51.6,2,1.11C109.65,64.25,107.27,77.64,108.87,79.24Z"/><ellipse class="cls-16" cx="101.37" cy="85.31" rx="3.5" ry="2.76"/></g><circle class="cls-17" cx="103.37" cy="97.74" r="2.5"/><circle class="cls-17" cx="107.37" cy="97.74" r="2.5"/><path class="cls-17" d="M110.87,101.24c.17,1.27-2.44,3-4,3h-3c-1.55,0-4.17-1.73-4-3s3.37-2,5.5-2S110.69,99.91,110.87,101.24Z"/><rect class="cls-17" x="98.87" y="97.24" width="5" height="5" transform="translate(-40.84 100.89) rotate(-45)"/><rect class="cls-17" x="106.87" y="97.24" width="5" height="5" transform="translate(-38.49 106.55) rotate(-45)"/><path class="cls-18" d="M111,56.61l-.1-3a21.89,21.89,0,0,1,21,2.62,20,20,0,0,0-16-.8Z"/><path class="cls-18" d="M92,52.32l-.25-3a29.08,29.08,0,0,0-21.68,4.19,31.1,31.1,0,0,1,16.86-1.78Z"/><path class="cls-2" d="M142.87,69.24c-2.17.38-2.94-11.25-14-23-2.92-3.1-6.64-5.79-14-11-3.3-2.34-6.29-4.36-9-6.15-6.6-4.39-11.37-7.32-14.34-9.76-2.67-2.19-3.89-4-3.69-6.09A6,6,0,0,1,89.52,9.8a13.6,13.6,0,0,1,3.35-2.56l.2-.11c8.17-4.46,19.52,2.34,25.8,6.11,5,3,14.85,8.84,21,21C148.05,50.43,145.55,68.77,142.87,69.24Z"/><path class="cls-4" d="M105.9,29.09c-6.6-4.39-11.37-7.32-14.34-9.76a16.12,16.12,0,0,1,.31-2.09c.53-2.41,1.62-4.52.5-6-.75-1-2.06-1.15-2.85-1.44a13.6,13.6,0,0,1,3.35-2.56l.2-.11a8.67,8.67,0,0,1,3.8,1.11,19.2,19.2,0,0,1,8,8C105.28,17.11,108.78,24.77,105.9,29.09Z"/><path class="cls-1" d="M45.38,197c-.13,3.19-.36,6.41-.67,9.65a214.56,214.56,0,0,1-6.36,34.63H5.05c-.23-15.88,2-34.37,8.07-51.24a129.3,129.3,0,0,1,11.81-24.54c4.44-6.89,9.06-11.62,12.69-10.82C46.84,156.68,45.53,193.36,45.38,197Z"/><path d="M66.61,193.49l-4.81,1.35c0-.5-.06-1-.09-1.54a94.43,94.43,0,0,0-4.84-24.06,93.45,93.45,0,0,0-10.33-21.13c2.45-1,5-2,7.69-2.85a183.43,183.43,0,0,1,7.64,23,185,185,0,0,1,4.51,23.34C66.46,192.22,66.54,192.86,66.61,193.49Z"/><path d="M148,190.79c-.12.57-.26,1.14-.41,1.73-.2.84-.44,1.71-.7,2.59l-5-.37c.24-1.31.45-2.58.63-3.82a89,89,0,0,0,1-12c.12-8.61-1.28-15.13-3.27-20.11A36.57,36.57,0,0,0,138,154c-1.63-2.81-3.56-5.27-5.07-7.58a71.73,71.73,0,0,1,7.65,3.41c.73,1.36,1.64,3.05,2.68,5.36.14.32.29.64.42,1a73.41,73.41,0,0,1,5,16.08A48,48,0,0,1,148,190.79Z"/><path d="M155.87,227.24a27,27,0,0,1-6.41,12.46c-.47.53-1,1.05-1.47,1.54H50.66c-1.5-5.89-.22-14.93-3.79-28-.56-2.07-1.19-4-1.86-5.82,0-2.06-.09-4.12-.14-6.18a112.78,112.78,0,0,1,17-8c7.49-2.78,12.19-4.53,18-5,15.67-1.26,19.75,8.37,35,7,8.71-.78,9.17-4.09,17-5A32.86,32.86,0,0,1,148.76,193a33.55,33.55,0,0,0,.11,5.25C150.19,211.92,158,216.24,155.87,227.24Z"/><path class="cls-2" d="M105.87,25.74c0,10.59-14.08,17.1-15,17.5-11.9,5.25-19.3-1.25-25,4-8.85,8.14-2.54,29.32-2,31,2.94,9.22,6.45,10.8,12,22,1.7,3.43,7.62,15.38,9,28,2.73,25-14.4,33.32-11,59,1.49,11.29,7.1,18.41,6,19-1.56.84-13.25-13.16-20-31-8.52-22.53-1.16-30.05-7-52-7.55-28.35-22.73-27.22-26-49-3.13-20.84,9.86-53.1,36-64,4.42-1.84,15.48-6.46,27-2C95.85,10.55,105.86,16.82,105.87,25.74Z"/></g></g></svg>