<svg xmlns="http://www.w3.org/2000/svg" viewBox="0 0 45.43 35.5"><defs><style>.cls-1{fill:#b51b34;}.cls-2{fill:#e37386;}</style></defs><g id="Laag_2" data-name="Laag 2"><g id="Laag_1-2" data-name="Laag 1"><path class="cls-1" d="M40.82,10.74a10.67,10.67,0,0,1-2.28,6.61,1.47,1.47,0,0,0-.1.13L36.81,19.1,20.42,35.5,4.08,19.17,2.31,17.4l0,0A10.74,10.74,0,0,1,17.36,2.28a10.89,10.89,0,0,1,3.05,3.78,10.74,10.74,0,0,1,20.41,4.68Z"/><path class="cls-2" d="M45.25,23.31a5.83,5.83,0,0,1-2.07,3.19l-.07.05L42,27.2,31.2,33.7,24.72,22.91,24,21.74v0a5.79,5.79,0,0,1-.33-3.8A5.84,5.84,0,0,1,34,15.74a5.74,5.74,0,0,1,1.11,2.4,5.93,5.93,0,0,1,2.12-1.6,5.85,5.85,0,0,1,8,6.77Z"/></g></g></svg>