<svg xmlns="http://www.w3.org/2000/svg" viewBox="0 0 40.81 35.5"><defs><style>.cls-1{fill:#1f0509;}</style></defs><g id="Laag_2" data-name="Laag 2"><g id="Laag_1-2" data-name="Laag 1"><path class="cls-1" d="M20,32.08,21.9,34,20.41,35.5,4.08,19.16,2.31,17.39l0,0A10.74,10.74,0,0,1,17.36,2.28a11,11,0,0,1,1.36,1.28L18,5.08l-1,5,3-3-3,9,4-4-2,8,2-2-2,6,3-1-2,3,5,1Z"/><path class="cls-1" d="M40.81,10.74a10.74,10.74,0,0,1-2.27,6.61l-.1.12L36.81,19.1,22.58,33.33,22,32.08l6-6-5-1,2-4-4,1,2-6-2,1,1-7-3,3,2-6,1-2-1.5,1,.5-1h0a10.74,10.74,0,0,1,19.86,5.67Z"/></g></g></svg>