<svg xmlns="http://www.w3.org/2000/svg" viewBox="0 0 58.33 36.6"><defs><style>.cls-1{fill:#b51b34;}.cls-2{fill:#e37386;}</style></defs><g id="Laag_2" data-name="Laag 2"><g id="Laag_1-2" data-name="Laag 1"><path class="cls-1" d="M58.33,10.74a10.72,10.72,0,0,1-2.27,6.61.64.64,0,0,0-.1.13L54.33,19.1,37.93,35.5,21.6,19.17,19.83,17.4l0,0A10.74,10.74,0,1,1,37.92,6.06a10.74,10.74,0,0,1,20.41,4.68Z"/><path class="cls-2" d="M32.5,11.4a9,9,0,0,1,.11,5.82c0,.05,0,.09,0,.13l-.81,1.74L23.59,36.6,6.14,28.47l-1.89-.88,0,0a8.94,8.94,0,0,1,1.67-16,9,9,0,0,1,9.3,2A9,9,0,0,1,16.5,9.72a8.95,8.95,0,0,1,16,1.68Z"/></g></g></svg>