<svg xmlns="http://www.w3.org/2000/svg" viewBox="0 0 27.96 24.32"><defs><style>.cls-1{fill:#2e171b;}</style></defs><g id="Laag_2" data-name="Laag 2"><g id="Laag_1-2" data-name="Laag 1"><path class="cls-1" d="M28,7.36a7.35,7.35,0,0,1-1.56,4.53l-.06.08-1.12,1.12-1.85,1.85-1.47-.5.68-1.37H21.21l1.37-2.74L19.84,11V9.65l-.68,2h1.37l-.69,2.06h1.37l-.68,1.37,1.59,1.06L14,24.32,7.06,17.4l.45-.9.68,1.37.69-2.06.68,1.37,1.37-.68-.68-2.06-.69,1.37-.68-2.74-.69,2.74L6.82,14.44l-.54,2.17L2.8,13.13,1.58,11.91l0,0A7.36,7.36,0,0,1,7.36,0,7.28,7.28,0,0,1,11.7,1.43H10.25v.68l-.69-.68L8.19,4.17,9.56,2.8V4.17l.69-1.37.68.68V2.11l1.16-.38A7.35,7.35,0,0,1,14,4.15a7.43,7.43,0,0,1,2.09-2.59A7.36,7.36,0,0,1,28,7.36Z"/></g></g></svg>