<svg xmlns="http://www.w3.org/2000/svg" viewBox="0 0 202 104.85"><defs><style>.cls-1{fill:#fff;}.cls-2{fill:gray;}</style></defs><g id="Laag_2" data-name="Laag 2"><g id="Laag_1-2" data-name="Laag 1"><path class="cls-1" d="M201.5,14.85v48.3A14.36,14.36,0,0,1,187.15,77.5H62.83a28.52,28.52,0,0,1-9.33,20A28,28,0,0,1,36,104.33a25.54,25.54,0,0,0,1.5-7.83,26,26,0,0,0-1-8,26.68,26.68,0,0,0-6.4-11H14.85A14.36,14.36,0,0,1,.5,63.15V14.85A14.36,14.36,0,0,1,14.85.5h172.3A14.36,14.36,0,0,1,201.5,14.85Z"/><path class="cls-2" d="M35.28,104.85l.25-.69A25.14,25.14,0,0,0,37,96.48a25.46,25.46,0,0,0-1-7.84A26.26,26.26,0,0,0,29.89,78h-15A14.86,14.86,0,0,1,0,63.15V14.85A14.86,14.86,0,0,1,14.85,0h172.3A14.86,14.86,0,0,1,202,14.85v48.3A14.86,14.86,0,0,1,187.15,78H63.31a29.09,29.09,0,0,1-9.48,19.88,28.33,28.33,0,0,1-17.82,7ZM14.85,1A13.86,13.86,0,0,0,1,14.85v48.3A13.86,13.86,0,0,0,14.85,77H30.31l.15.15A27.13,27.13,0,0,1,37,88.36a26.58,26.58,0,0,1,1,8.16,26.15,26.15,0,0,1-1.29,7.28,27.29,27.29,0,0,0,16.46-6.68,28,28,0,0,0,9.16-19.64l0-.48h124.8A13.86,13.86,0,0,0,201,63.15V14.85A13.86,13.86,0,0,0,187.15,1Z"/></g></g></svg>