<svg xmlns="http://www.w3.org/2000/svg" xmlns:xlink="http://www.w3.org/1999/xlink" viewBox="0 0 65 65"><defs><style>.cls-1{opacity:0.73;fill:url(#Naamloos_verloop_971);}.cls-2{fill:#fff;}.cls-3{fill:#fce5f2;}.cls-4{fill:#a6111d;}.cls-5{fill:#800c1a;}.cls-6{fill:#ff87a4;}</style><linearGradient id="Naamloos_verloop_971" x1="3.52" y1="61.48" x2="61.47" y2="3.53" gradientUnits="userSpaceOnUse"><stop offset="0" stop-color="#ffae7d"/><stop offset="1" stop-color="#ff8f1c"/></linearGradient></defs><g id="Laag_2" data-name="Laag 2"><g id="Laag_1-2" data-name="Laag 1"><rect class="cls-1" width="65" height="65" rx="12"/><path class="cls-2" d="M46.87,30.19a.25.25,0,0,0,0,.08,21.56,21.56,0,0,0-7.76-2.42c-.24,0-.74-.1-1.46-.16l-.24,0-.3,0h-.46l-.34,0-1.19,0c-.77,0-1.53,0-2.27.08s-1.5-.08-2.27-.08c-1.16,0-2.14.06-2.85.13l-.43,0h0l-.49.06-.22,0a23.09,23.09,0,0,0-6.49,1.77c.21-1.3-.1-1.89.46-2.41a1.06,1.06,0,0,1,.6-.29c.71-.11,1.71.32,3.56.29.44,0,.82,0,1.15-.08h0c1.45-.2,2.12-.68,4.13-.67a12.65,12.65,0,0,1,3,.37,6.28,6.28,0,0,0,.76,0,6.81,6.81,0,0,0,1.89-.37c1.06-.36,2.64.18,4.22.58.23.07.46.12.69.17,3.49.77,5.74-.05,6.55.47a.61.61,0,0,1,.26.29C47.7,28.58,46.89,28.94,46.87,30.19Z"/><path class="cls-2" d="M48.55,18.41h0a9.54,9.54,0,0,0-15.66,2.27A9.55,9.55,0,0,0,17.2,18.44l0,0L6.47,29.1l10.7,10.7.08-.09s4,3.41,12.21,3.74c.37,0,.75,0,1.13,0,.77,0,1.53,0,2.27-.08s1.5.08,2.27.08c.4,0,.79,0,1.18,0,7.95-.39,12.16-3.74,12.16-3.74.32-.25.65-.52,1-.81l0,0,1-1,8.79-8.79ZM46.9,38.58c-2.22,2.1-6.06,3.54-10.49,3.73l-1,0c-.67,0-1.32,0-2-.08s-1.3.08-2,.08l-1,0C26,42.13,22.18,40.68,20,38.58a5.77,5.77,0,0,1-2-4.18c0-1.59,1.51-1.92,2.08-4.23.05-.2.08-.38.11-.55.21-1.3-.1-1.89.46-2.41a1.06,1.06,0,0,1,.6-.29c.71-.11,1.71.32,3.56.29.44,0,.82,0,1.15-.08h0c1.45-.2,2.12-.68,4.13-.67a12.65,12.65,0,0,1,3,.37,6.28,6.28,0,0,0,.76,0,6.81,6.81,0,0,0,1.89-.37c1.06-.36,2.64.18,4.22.58.23.07.46.12.69.17,3.49.77,5.74-.05,6.55.47a.61.61,0,0,1,.26.29c.28.61-.53,1-.55,2.22a.25.25,0,0,0,0,.08c0,1.81,2,2.44,2,4.13A5.77,5.77,0,0,1,46.9,38.58Z"/><path class="cls-2" d="M26.6,27.85a23.09,23.09,0,0,0-6.49,1.77c.21-1.3-.1-1.89.46-2.41a1.06,1.06,0,0,1,.6-.29c.71-.11,1.71.32,3.56.29.44,0,.82,0,1.15-.08h0Z"/><path class="cls-2" d="M46.87,30.19a.25.25,0,0,0,0,.08,21.56,21.56,0,0,0-7.76-2.42l.8-.81c.23.07.46.12.69.17,3.49.77,5.74-.05,6.55.47a.61.61,0,0,1,.26.29C47.7,28.58,46.89,28.94,46.87,30.19Z"/><path class="cls-2" d="M49.45,38.9l-.9.9-.08-.09C48.79,39.46,49.12,39.19,49.45,38.9Z"/><path class="cls-2" d="M48.93,34.4a5.77,5.77,0,0,1-2,4.18c-2.22,2.1-6.06,3.54-10.49,3.73l-1,0c-.67,0-1.32,0-2-.08s-1.3.08-2,.08l-1,0C26,42.13,22.18,40.68,20,38.58a5.77,5.77,0,0,1-2-4.18c0-1.59,1.51-1.92,2.08-4.23.05-.2.08-.38.11-.55.21-1.3-.1-1.89.46-2.41a1.06,1.06,0,0,1,.6-.29c.71-.11,1.71.32,3.56.29.44,0,.82,0,1.15-.08h0c1.45-.2,2.12-.68,4.13-.67a12.65,12.65,0,0,1,3,.37,6.28,6.28,0,0,0,.76,0,6.81,6.81,0,0,0,1.89-.37c1.06-.36,2.64.18,4.22.58.23.07.46.12.69.17,3.49.77,5.74-.05,6.55.47a.61.61,0,0,1,.26.29c.28.61-.53,1-.55,2.22a.25.25,0,0,0,0,.08C46.91,32.08,48.93,32.71,48.93,34.4Z"/><path class="cls-2" d="M48.93,34.05a5.77,5.77,0,0,1-2,4.18c-2.22,2.1-6.06,3.54-10.49,3.73l-1,0c-.67,0-1.32,0-2-.08s-1.3.08-2,.08l-1,0C26,41.78,22.18,40.33,20,38.23a5.77,5.77,0,0,1-2-4.18c0-1.59,1.51-1.92,2.08-4.24.05-.19.08-.37.11-.54.21-1.3-.1-1.89.46-2.41a1.06,1.06,0,0,1,.6-.29c.71-.11,1.71.32,3.56.29.44,0,.82,0,1.15-.08h0c1.45-.2,2.12-.68,4.13-.68a13.1,13.1,0,0,1,3,.38,6.79,6.79,0,0,0,2.65-.38c1.06-.35,2.64.19,4.22.59l.69.17c3.49.77,5.74-.05,6.55.47a.57.57,0,0,1,.26.29c.28.61-.53,1-.55,2.22a.25.25,0,0,0,0,.08C46.91,31.72,48.93,32.36,48.93,34.05Z"/><path class="cls-2" d="M46.88,30.27c0,1.81,2,2.44,2,4.13a5.77,5.77,0,0,1-2,4.18c-2.22,2.1-6.06,3.54-10.49,3.73l-1,0c-.67,0-1.32,0-2-.08s-1.3.08-2,.08l-1,0C26,42.13,22.18,40.68,20,38.58a5.77,5.77,0,0,1-2-4.18c0-1.59,1.51-1.92,2.08-4.23.05-.2.08-.38.11-.55.21-1.3-.1-1.89.46-2.41a1.06,1.06,0,0,1,.6-.29,11.3,11.3,0,0,0,5.43.93l.22,0,.49-.06h0l.43,0c.71-.07,1.69-.13,2.85-.13.77,0,1.53,0,2.27.08s1.5-.08,2.27-.08l1.19,0,.34,0h.46l.3,0,.24,0c.72.06,1.22.13,1.46.16,3.27.4,5.94-.12,8-.17a.61.61,0,0,1,.26.29c.28.61-.53,1-.55,2.22A.25.25,0,0,0,46.88,30.27Z"/><path class="cls-2" d="M48.24,30.21c0,1.88,2.21,2.53,2.21,4.28a5.9,5.9,0,0,1-2.18,4.33C45.88,41,41.76,42.49,37,42.69c-.36,0-.72,0-1.09,0q-1.08,0-2.1-.09c-.69.06-1.39.09-2.11.09q-.52,0-1.05,0c-4.78-.19-8.91-1.69-11.31-3.87a5.89,5.89,0,0,1-2.17-4.33c0-1.64,1.61-2,2.23-4.38.05-.21.09-.39.12-.57.22-1.34-.11-1.95.49-2.49a1.16,1.16,0,0,1,.65-.31,12.46,12.46,0,0,0,5.82,1l.23,0,.53-.06h0l.47,0c.76-.07,1.81-.14,3.05-.14.83,0,1.64,0,2.44.09s1.6-.09,2.43-.09l1.28,0,.37,0h.21l.28,0,.32,0,.26,0c.77.06,1.31.13,1.56.16,3.52.42,6.38-.12,8.64-.18a.66.66,0,0,1,.27.3c.3.64-.57,1-.59,2.3A.19.19,0,0,0,48.24,30.21Z"/><path class="cls-2" d="M50.46,37.89a11.47,11.47,0,0,1-1,1Z"/><path class="cls-3" d="M45.68,30.12v.07A19.73,19.73,0,0,0,38.58,28c-.21,0-.67-.09-1.33-.14l-.22,0-.27,0h-.42l-.32,0-1.08,0c-.71,0-1.4,0-2.08.08s-1.37-.08-2.08-.08c-1.05,0-2,.06-2.6.12l-.39,0h0l-.45.05-.19,0A21.33,21.33,0,0,0,21.2,29.6c.19-1.19-.1-1.73.42-2.2a.93.93,0,0,1,.55-.27c.65-.1,1.56.29,3.25.27a10,10,0,0,0,1.06-.08h0a18.07,18.07,0,0,1,3.79-.61,11.65,11.65,0,0,1,2.76.34,5.19,5.19,0,0,0,.69,0,6.4,6.4,0,0,0,1.73-.34c1-.33,2.42.16,3.87.53l.63.16c3.19.7,5.25,0,6,.42a.57.57,0,0,1,.24.27C46.43,28.65,45.69,29,45.68,30.12Z"/><path class="cls-4" d="M47.22,19.34l0,0a8.74,8.74,0,0,0-11.84-1,8.88,8.88,0,0,0-2.49,3.08,8.74,8.74,0,0,0-14.34-2.06l0,0L8.72,29.13l9.78,9.78.08-.08S22.22,42,29.75,42.25c.34,0,.68,0,1,0,.71,0,1.4,0,2.08-.07s1.37.07,2.08.07c.36,0,.72,0,1.08,0,7.27-.35,11.12-3.42,11.12-3.42.29-.23.6-.47.9-.74,0,0,0,0,0,0l.9-.91,8-8ZM45.7,37.8c-2,1.92-5.54,3.24-9.6,3.41q-.45,0-.93,0c-.61,0-1.21,0-1.79-.08s-1.18.08-1.79.08l-.9,0c-4.07-.17-7.6-1.49-9.64-3.41A5.29,5.29,0,0,1,19.2,34c0-1.45,1.37-1.75,1.9-3.87,0-.18.07-.35.1-.5.19-1.19-.1-1.73.42-2.2a.93.93,0,0,1,.55-.27c.65-.1,1.56.29,3.25.27a10,10,0,0,0,1.06-.08h0a18.07,18.07,0,0,1,3.79-.61,11.65,11.65,0,0,1,2.76.34,5.19,5.19,0,0,0,.69,0,6.4,6.4,0,0,0,1.73-.34c1-.33,2.42.16,3.87.53l.63.16c3.19.7,5.25,0,6,.42a.57.57,0,0,1,.24.27c.25.56-.49.89-.5,2v.07c0,1.66,1.88,2.23,1.88,3.78A5.3,5.3,0,0,1,45.7,37.8Z"/><path class="cls-3" d="M27.14,28A21.33,21.33,0,0,0,21.2,29.6c.19-1.19-.1-1.73.42-2.2a.93.93,0,0,1,.55-.27c.65-.1,1.56.29,3.25.27a10,10,0,0,0,1.06-.08h0Z"/><path class="cls-3" d="M45.68,30.12v.07A19.73,19.73,0,0,0,38.58,28l.74-.74.63.16c3.19.7,5.25,0,6,.42a.57.57,0,0,1,.24.27C46.43,28.65,45.69,29,45.68,30.12Z"/><path class="cls-3" d="M48,38.09l-.82.82-.08-.08C47.43,38.6,47.74,38.36,48,38.09Z"/><path class="cls-5" d="M47.56,34A5.3,5.3,0,0,1,45.7,37.8c-2,1.92-5.54,3.24-9.6,3.41q-.45,0-.93,0c-.61,0-1.21,0-1.79-.08s-1.18.08-1.79.08l-.9,0c-4.07-.17-7.6-1.49-9.64-3.41A5.29,5.29,0,0,1,19.2,34c0-1.45,1.37-1.75,1.9-3.87,0-.18.07-.35.1-.5.19-1.19-.1-1.73.42-2.2a.93.93,0,0,1,.55-.27c.65-.1,1.56.29,3.25.27a10,10,0,0,0,1.06-.08h0a18.07,18.07,0,0,1,3.79-.61,11.65,11.65,0,0,1,2.76.34,5.19,5.19,0,0,0,.69,0,6.4,6.4,0,0,0,1.73-.34c1-.33,2.42.16,3.87.53l.63.16c3.19.7,5.25,0,6,.42a.57.57,0,0,1,.24.27c.25.56-.49.89-.5,2v.07C45.71,31.85,47.56,32.42,47.56,34Z"/><path class="cls-5" d="M47.56,33.65a5.32,5.32,0,0,1-1.86,3.83c-2,1.92-5.54,3.24-9.6,3.41-.3,0-.61,0-.93,0-.61,0-1.21,0-1.79-.07s-1.18.07-1.79.07c-.3,0-.6,0-.9,0-4.07-.17-7.6-1.49-9.64-3.41a5.3,5.3,0,0,1-1.85-3.83c0-1.45,1.37-1.75,1.9-3.87,0-.18.07-.35.1-.5.19-1.19-.1-1.73.42-2.2a.93.93,0,0,1,.55-.27c.65-.1,1.56.29,3.25.27A10,10,0,0,0,26.48,27h0a18.68,18.68,0,0,1,3.79-.62,11.56,11.56,0,0,1,2.76.35,5.19,5.19,0,0,0,.69,0,5.86,5.86,0,0,0,1.73-.35c1-.32,2.42.17,3.87.54l.63.16c3.19.7,5.25,0,6,.42a.53.53,0,0,1,.24.27c.25.56-.49.89-.5,2v.07C45.71,31.52,47.56,32.1,47.56,33.65Z"/><path class="cls-6" d="M45.68,30.19c0,1.66,1.88,2.23,1.88,3.78A5.3,5.3,0,0,1,45.7,37.8c-2,1.92-5.54,3.24-9.6,3.41q-.45,0-.93,0c-.61,0-1.21,0-1.79-.08s-1.18.08-1.79.08l-.9,0c-4.07-.17-7.6-1.49-9.64-3.41A5.29,5.29,0,0,1,19.2,34c0-1.45,1.37-1.75,1.9-3.87,0-.18.07-.35.1-.5.19-1.19-.1-1.73.42-2.2a.93.93,0,0,1,.55-.27,10.36,10.36,0,0,0,5,.85l.19,0,.45-.05h0l.39,0c.65-.06,1.55-.12,2.6-.12.71,0,1.4,0,2.08.08s1.37-.08,2.08-.08l1.08,0,.32,0h.42l.27,0,.22,0c.66.05,1.12.11,1.33.14a40.34,40.34,0,0,0,7.36-.16.57.57,0,0,1,.24.27c.25.56-.49.89-.5,2Z"/><path class="cls-4" d="M46.93,30.14c0,1.72,2,2.31,2,3.92a5.4,5.4,0,0,1-2,4c-2.18,2-5.94,3.36-10.3,3.54l-1,0c-.66,0-1.3,0-1.93-.08s-1.26.08-1.92.08l-1,0C26.47,41.38,22.68,40,20.5,38a5.4,5.4,0,0,1-2-4c0-1.51,1.48-1.82,2.05-4,0-.19.08-.36.1-.52.21-1.23-.1-1.79.45-2.28a1,1,0,0,1,.6-.28,11.39,11.39,0,0,0,5.33.88l.21,0,.48-.05h0l.42,0c.7-.06,1.66-.12,2.8-.12.76,0,1.5,0,2.23.07s1.47-.07,2.23-.07c.41,0,.8,0,1.16,0h.54l.25,0h.3l.23,0c.7.06,1.2.12,1.43.15a45.47,45.47,0,0,0,7.9-.16.55.55,0,0,1,.25.27c.28.59-.52.93-.54,2.11A.17.17,0,0,0,46.93,30.14Z"/><path class="cls-6" d="M49,37.16a7.75,7.75,0,0,1-.9.91Z"/><path class="cls-2" d="M11.93,58.66l4.41-5.28H12.55a.89.89,0,0,1-.6-.17.6.6,0,0,1-.2-.46.65.65,0,0,1,.2-.49.9.9,0,0,1,.6-.18h4.89c.63,0,.95.29.95.88a1.25,1.25,0,0,1-.16.68,9.81,9.81,0,0,1-.64.81l-4.12,4.91H18a1,1,0,0,1,.61.17.57.57,0,0,1,.2.46.67.67,0,0,1-.2.5.91.91,0,0,1-.61.18H12.44a1.26,1.26,0,0,1-.86-.26.88.88,0,0,1-.29-.68.76.76,0,0,1,.05-.27.76.76,0,0,1,.13-.23,2.85,2.85,0,0,1,.22-.28Z"/><path class="cls-2" d="M25.79,57.56a4,4,0,0,1-.22,1.32,3,3,0,0,1-.65,1,2.77,2.77,0,0,1-1,.66,3.43,3.43,0,0,1-1.31.23,3.4,3.4,0,0,1-1.31-.23,2.85,2.85,0,0,1-1.65-1.7,3.73,3.73,0,0,1-.22-1.32,3.79,3.79,0,0,1,.22-1.33,2.8,2.8,0,0,1,1.65-1.69,3.85,3.85,0,0,1,2.62,0,2.88,2.88,0,0,1,1,.67,2.94,2.94,0,0,1,.64,1A3.73,3.73,0,0,1,25.79,57.56Zm-1.61,0A2.37,2.37,0,0,0,23.75,56a1.37,1.37,0,0,0-1.15-.55,1.38,1.38,0,0,0-.83.25,1.53,1.53,0,0,0-.55.71A2.93,2.93,0,0,0,21,57.56a2.88,2.88,0,0,0,.19,1.1,1.53,1.53,0,0,0,.54.72,1.48,1.48,0,0,0,.84.24,1.39,1.39,0,0,0,1.15-.54A2.39,2.39,0,0,0,24.18,57.56Z"/><path class="cls-2" d="M31.51,58H28.38a2.27,2.27,0,0,0,.22,1,1.64,1.64,0,0,0,.57.62,1.53,1.53,0,0,0,.79.21,2.12,2.12,0,0,0,.52-.06,1.76,1.76,0,0,0,.46-.22,3.08,3.08,0,0,0,.41-.3l.49-.45a.52.52,0,0,1,.35-.1.6.6,0,0,1,.4.13.49.49,0,0,1,.15.38,1.06,1.06,0,0,1-.17.51,2.18,2.18,0,0,1-.51.56,3.21,3.21,0,0,1-.87.44,3.88,3.88,0,0,1-1.19.17,3.16,3.16,0,0,1-2.39-.88,3.26,3.26,0,0,1-.86-2.38A4.06,4.06,0,0,1,27,56.23a2.94,2.94,0,0,1,.62-1,2.73,2.73,0,0,1,1-.66,3.68,3.68,0,0,1,1.31-.23,3.12,3.12,0,0,1,1.61.39,2.62,2.62,0,0,1,1,1A2.67,2.67,0,0,1,32.83,57c0,.41-.11.67-.34.79A2.33,2.33,0,0,1,31.51,58Zm-3.13-.9h2.91a1.92,1.92,0,0,0-.45-1.23,1.32,1.32,0,0,0-1-.41,1.3,1.3,0,0,0-1,.41A2.1,2.1,0,0,0,28.38,57.05Z"/><path class="cls-2" d="M35.63,55.19v.2a2.73,2.73,0,0,1,.93-.82,2.47,2.47,0,0,1,1.15-.26,2.33,2.33,0,0,1,1.13.27A2,2,0,0,1,39.79,56a6.78,6.78,0,0,1,0,.86v3a1.06,1.06,0,0,1-.22.73.72.72,0,0,1-.57.24.73.73,0,0,1-.58-.25,1.05,1.05,0,0,1-.22-.72V57.17A2.64,2.64,0,0,0,38,56a.91.91,0,0,0-.88-.41,1.27,1.27,0,0,0-.77.25,1.43,1.43,0,0,0-.52.7,4.9,4.9,0,0,0-.12,1.34v2a1,1,0,0,1-.22.73.78.78,0,0,1-.59.24.69.69,0,0,1-.56-.25,1.05,1.05,0,0,1-.23-.72V55.22a1,1,0,0,1,.2-.68.67.67,0,0,1,.55-.23.72.72,0,0,1,.38.1.79.79,0,0,1,.27.3A1,1,0,0,1,35.63,55.19Z"/><path class="cls-2" d="M45.89,58H42.76a2.27,2.27,0,0,0,.22,1,1.64,1.64,0,0,0,.57.62,1.52,1.52,0,0,0,.78.21,2.15,2.15,0,0,0,.53-.06,1.76,1.76,0,0,0,.46-.22,3.08,3.08,0,0,0,.41-.3c.12-.11.29-.26.48-.45a.55.55,0,0,1,.36-.1.56.56,0,0,1,.39.13.46.46,0,0,1,.16.38,1.06,1.06,0,0,1-.17.51,2.23,2.23,0,0,1-.52.56,3,3,0,0,1-.86.44,3.88,3.88,0,0,1-1.19.17,3.18,3.18,0,0,1-2.4-.88,3.26,3.26,0,0,1-.85-2.38,4.06,4.06,0,0,1,.21-1.32,2.94,2.94,0,0,1,.62-1,2.65,2.65,0,0,1,1-.66,3.68,3.68,0,0,1,1.31-.23,3.15,3.15,0,0,1,1.61.39A2.67,2.67,0,0,1,47.21,57c0,.41-.11.67-.34.79A2.36,2.36,0,0,1,45.89,58Zm-3.13-.9h2.9a1.92,1.92,0,0,0-.44-1.23,1.32,1.32,0,0,0-1-.41,1.3,1.3,0,0,0-1,.41A2.1,2.1,0,0,0,42.76,57.05Z"/><path class="cls-2" d="M50,55.19v.2a2.8,2.8,0,0,1,.92-.82,2.54,2.54,0,0,1,1.16-.26,2.36,2.36,0,0,1,1.13.27,1.8,1.8,0,0,1,.74.78,2,2,0,0,1,.21.64,6.78,6.78,0,0,1,0,.86v3a1.06,1.06,0,0,1-.22.73.72.72,0,0,1-.57.24.73.73,0,0,1-.58-.25,1.05,1.05,0,0,1-.22-.72V57.17A2.64,2.64,0,0,0,52.4,56a.91.91,0,0,0-.88-.41,1.32,1.32,0,0,0-.78.25,1.47,1.47,0,0,0-.51.7,4.9,4.9,0,0,0-.12,1.34v2a1,1,0,0,1-.22.73.78.78,0,0,1-.59.24.72.72,0,0,1-.57-.25,1.1,1.1,0,0,1-.22-.72V55.22a1,1,0,0,1,.2-.68.67.67,0,0,1,.55-.23.72.72,0,0,1,.38.1.79.79,0,0,1,.27.3A1,1,0,0,1,50,55.19Z"/></g></g></svg>