<svg xmlns="http://www.w3.org/2000/svg" xmlns:xlink="http://www.w3.org/1999/xlink" viewBox="0 0 65 65"><defs><style>.cls-1{opacity:0.73;fill:url(#Naamloos_verloop_426);}.cls-2{fill:#fff;}</style><linearGradient id="Naamloos_verloop_426" x1="3.52" y1="61.47" x2="61.47" y2="3.52" gradientUnits="userSpaceOnUse"><stop offset="0" stop-color="#ff006c"/><stop offset="0.34" stop-color="#aa1e93"/><stop offset="1" stop-color="#005ae2"/></linearGradient></defs><g id="Laag_2" data-name="Laag 2"><g id="Laag_1-2" data-name="Laag 1"><rect class="cls-1" width="65" height="65" rx="12"/><rect class="cls-2" x="23.84" y="12.95" width="15.79" height="37.44"/><path d="M39.88,50.63H23.59V12.7H39.88Zm-15.79-.5H39.38V13.2H24.09Z"/><rect class="cls-2" x="32.62" y="24.39" width="7.38" height="13.52"/><rect x="35.62" y="29.93" width="8.27" height="1.02"/><polygon points="41.69 34.18 41.69 26.7 45.29 30.44 41.69 34.18"/><path class="cls-2" d="M13.24,59.31l-1.39-5.15-1.4,5.15c-.11.39-.2.67-.26.84a1.15,1.15,0,0,1-.34.46.93.93,0,0,1-.64.2,1.07,1.07,0,0,1-.53-.12.92.92,0,0,1-.34-.34,2.55,2.55,0,0,1-.21-.52L8,59.27,6.56,53.49a3.19,3.19,0,0,1-.13-.77.77.77,0,0,1,.23-.56.82.82,0,0,1,.58-.23.65.65,0,0,1,.64.31,3.21,3.21,0,0,1,.29.88l1.12,5,1.26-4.7c.1-.36.18-.63.25-.82a1.15,1.15,0,0,1,.37-.48,1,1,0,0,1,.68-.21,1,1,0,0,1,.69.21,1.19,1.19,0,0,1,.33.47,7.61,7.61,0,0,1,.25.83l1.28,4.7,1.12-5c.06-.26.11-.47.16-.62a1,1,0,0,1,.25-.39.7.7,0,0,1,.52-.18.79.79,0,0,1,.57.23.74.74,0,0,1,.24.56,3.44,3.44,0,0,1-.13.77L15.7,59.27c-.09.39-.18.68-.24.86a1.1,1.1,0,0,1-.33.48,1.14,1.14,0,0,1-1.29,0,1,1,0,0,1-.33-.44C13.44,60,13.36,59.72,13.24,59.31Z"/><path class="cls-2" d="M22.47,58H19.34a2.27,2.27,0,0,0,.22,1,1.49,1.49,0,0,0,.57.62,1.52,1.52,0,0,0,.78.21,2.2,2.2,0,0,0,.53-.06,1.93,1.93,0,0,0,.46-.22,3.91,3.91,0,0,0,.41-.3l.48-.45a.54.54,0,0,1,.35-.1.57.57,0,0,1,.4.13.5.5,0,0,1,.16.38,1.06,1.06,0,0,1-.17.51,2.23,2.23,0,0,1-.52.56,3.14,3.14,0,0,1-.86.44,3.88,3.88,0,0,1-1.19.17,3.18,3.18,0,0,1-2.4-.88,3.26,3.26,0,0,1-.85-2.38,4.06,4.06,0,0,1,.21-1.32,2.92,2.92,0,0,1,.61-1,2.69,2.69,0,0,1,1-.66,3.64,3.64,0,0,1,1.31-.23,3.15,3.15,0,0,1,1.61.39A2.67,2.67,0,0,1,23.79,57a.81.81,0,0,1-.35.79A2.28,2.28,0,0,1,22.47,58Zm-3.13-.9h2.9a1.92,1.92,0,0,0-.44-1.23,1.33,1.33,0,0,0-1-.41,1.28,1.28,0,0,0-1,.41A2.1,2.1,0,0,0,19.34,57.05Z"/><path class="cls-2" d="M30.86,55.48v4.65a5,5,0,0,1-.17,1.37,2.17,2.17,0,0,1-.54,1,2.28,2.28,0,0,1-1,.55,5,5,0,0,1-1.51.19A4.51,4.51,0,0,1,26.18,63a2.66,2.66,0,0,1-1-.6,1.09,1.09,0,0,1-.35-.76.59.59,0,0,1,.2-.47.65.65,0,0,1,.48-.19.8.8,0,0,1,.61.31l.27.32a1.58,1.58,0,0,0,.3.28,1.46,1.46,0,0,0,.4.17,2.92,2.92,0,0,0,.54,0,2.14,2.14,0,0,0,1-.17,1,1,0,0,0,.48-.48,2.12,2.12,0,0,0,.16-.67c0-.23,0-.61,0-1.14a2.54,2.54,0,0,1-.85.79,2.33,2.33,0,0,1-1.15.27,2.43,2.43,0,0,1-1.4-.41,2.73,2.73,0,0,1-.93-1.15,4.31,4.31,0,0,1-.32-1.71,4.08,4.08,0,0,1,.2-1.3,2.7,2.7,0,0,1,.56-1,2.55,2.55,0,0,1,.83-.6,2.77,2.77,0,0,1,1.05-.2,2.6,2.6,0,0,1,1.18.26,2.92,2.92,0,0,1,.92.82v-.22a.91.91,0,0,1,.21-.64.67.67,0,0,1,.52-.23.63.63,0,0,1,.62.3A2,2,0,0,1,30.86,55.48Zm-4.63,2A2.22,2.22,0,0,0,26.65,59a1.38,1.38,0,0,0,1.1.5,1.34,1.34,0,0,0,.75-.22,1.51,1.51,0,0,0,.58-.64,2.26,2.26,0,0,0,.22-1,2.37,2.37,0,0,0-.43-1.52,1.38,1.38,0,0,0-1.13-.55,1.34,1.34,0,0,0-1.1.53A2.29,2.29,0,0,0,26.23,57.51Z"/><path class="cls-2" d="M38.06,55.48v4.65a4.62,4.62,0,0,1-.17,1.37,2.17,2.17,0,0,1-.54,1,2.28,2.28,0,0,1-1,.55,5,5,0,0,1-1.51.19A4.51,4.51,0,0,1,33.38,63a2.66,2.66,0,0,1-1-.6A1.09,1.09,0,0,1,32,61.6a.59.59,0,0,1,.2-.47.65.65,0,0,1,.48-.19.8.8,0,0,1,.61.31l.27.32a1.58,1.58,0,0,0,.3.28,1.46,1.46,0,0,0,.4.17,2.92,2.92,0,0,0,.54,0,2.14,2.14,0,0,0,1-.17,1,1,0,0,0,.48-.48,2.12,2.12,0,0,0,.16-.67q0-.34,0-1.14a2.54,2.54,0,0,1-.85.79,2.3,2.3,0,0,1-1.15.27,2.45,2.45,0,0,1-1.4-.41,2.73,2.73,0,0,1-.93-1.15,4.31,4.31,0,0,1-.32-1.71,4.08,4.08,0,0,1,.2-1.3,2.86,2.86,0,0,1,.56-1,2.49,2.49,0,0,1,.84-.6,2.68,2.68,0,0,1,1-.2,2.6,2.6,0,0,1,1.18.26,2.92,2.92,0,0,1,.92.82v-.22a.91.91,0,0,1,.21-.64.67.67,0,0,1,.52-.23.63.63,0,0,1,.62.3A2,2,0,0,1,38.06,55.48Zm-4.63,2A2.22,2.22,0,0,0,33.85,59a1.4,1.4,0,0,0,1.1.5,1.34,1.34,0,0,0,.75-.22,1.51,1.51,0,0,0,.58-.64,2.26,2.26,0,0,0,.22-1,2.37,2.37,0,0,0-.43-1.52,1.37,1.37,0,0,0-1.13-.55,1.34,1.34,0,0,0-1.1.53A2.35,2.35,0,0,0,33.43,57.51Z"/><path class="cls-2" d="M43.42,59.91a4.86,4.86,0,0,1-1.12.68,3.11,3.11,0,0,1-1.21.22A2.39,2.39,0,0,1,40,60.57a1.74,1.74,0,0,1-.71-.66A1.7,1.7,0,0,1,39,59a1.6,1.6,0,0,1,.41-1.12,2.05,2.05,0,0,1,1.14-.62l.76-.16,1-.23c.29-.06.6-.15.94-.24a1.64,1.64,0,0,0-.26-.93,1.12,1.12,0,0,0-.93-.3,2,2,0,0,0-.92.17,1.51,1.51,0,0,0-.53.51,3.77,3.77,0,0,1-.31.45.52.52,0,0,1-.39.11.65.65,0,0,1-.46-.18.56.56,0,0,1-.2-.44,1.36,1.36,0,0,1,.3-.82,2.17,2.17,0,0,1,.93-.65,4,4,0,0,1,1.58-.26,4.43,4.43,0,0,1,1.66.25,1.56,1.56,0,0,1,.85.78,3.4,3.4,0,0,1,.25,1.43v1c0,.26,0,.55,0,.87a3.17,3.17,0,0,0,.15.94,3.07,3.07,0,0,1,.15.63.57.57,0,0,1-.24.45.72.72,0,0,1-.52.2.7.7,0,0,1-.49-.23A3.4,3.4,0,0,1,43.42,59.91Zm-.1-2.31q-.36.12-1,.27c-.45.09-.76.17-.93.21a1.17,1.17,0,0,0-.49.26.68.68,0,0,0-.24.55.8.8,0,0,0,.28.62,1,1,0,0,0,.72.25,1.83,1.83,0,0,0,.87-.2A1.36,1.36,0,0,0,43.1,59a2.36,2.36,0,0,0,.22-1.19Z"/><path class="cls-2" d="M50.55,59.91a4.86,4.86,0,0,1-1.12.68,3.11,3.11,0,0,1-1.21.22,2.32,2.32,0,0,1-1.08-.24,1.77,1.77,0,0,1-.72-.66,1.7,1.7,0,0,1-.25-.9,1.6,1.6,0,0,1,.41-1.12,2.05,2.05,0,0,1,1.14-.62l.76-.16,1-.23c.29-.06.6-.15.94-.24a1.64,1.64,0,0,0-.26-.93,1.12,1.12,0,0,0-.93-.3,2,2,0,0,0-.92.17,1.41,1.41,0,0,0-.52.51,3.49,3.49,0,0,1-.32.45.51.51,0,0,1-.38.11.67.67,0,0,1-.47-.18.56.56,0,0,1-.2-.44,1.36,1.36,0,0,1,.3-.82,2.17,2.17,0,0,1,.93-.65,4.08,4.08,0,0,1,1.58-.26,4.39,4.39,0,0,1,1.66.25,1.56,1.56,0,0,1,.85.78A3.4,3.4,0,0,1,52,56.76v1c0,.26,0,.55,0,.87a3.17,3.17,0,0,0,.15.94,3.07,3.07,0,0,1,.15.63.59.59,0,0,1-.23.45.76.76,0,0,1-.53.2.7.7,0,0,1-.49-.23A3.4,3.4,0,0,1,50.55,59.91Zm-.1-2.31q-.36.12-1,.27c-.45.09-.76.17-.93.21a1.17,1.17,0,0,0-.49.26.68.68,0,0,0-.24.55.8.8,0,0,0,.28.62,1,1,0,0,0,.72.25,1.83,1.83,0,0,0,.87-.2,1.36,1.36,0,0,0,.59-.54,2.36,2.36,0,0,0,.22-1.19Z"/><path class="cls-2" d="M55.1,55.19v.2a2.7,2.7,0,0,1,.92-.82,2.5,2.5,0,0,1,1.15-.26,2.33,2.33,0,0,1,1.13.27,2,2,0,0,1,1,1.42,6.52,6.52,0,0,1,0,.86v3a1.12,1.12,0,0,1-.22.73.75.75,0,0,1-.57.24.72.72,0,0,1-.58-.25,1.05,1.05,0,0,1-.23-.72V57.17A2.64,2.64,0,0,0,57.48,56a.9.9,0,0,0-.87-.41,1.27,1.27,0,0,0-.78.25,1.43,1.43,0,0,0-.52.7,5,5,0,0,0-.11,1.34v2a1,1,0,0,1-.23.73.77.77,0,0,1-.58.24.72.72,0,0,1-.57-.25,1.05,1.05,0,0,1-.22-.72V55.22a1,1,0,0,1,.19-.68.68.68,0,0,1,.55-.23.7.7,0,0,1,.38.1.79.79,0,0,1,.27.3A1,1,0,0,1,55.1,55.19Z"/></g></g></svg>