<svg xmlns="http://www.w3.org/2000/svg" xmlns:xlink="http://www.w3.org/1999/xlink" viewBox="0 0 65 65"><defs><style>.cls-1{opacity:0.73;fill:url(#Naamloos_verloop_1101);}.cls-2{fill:#fff;}</style><linearGradient id="Naamloos_verloop_1101" x1="3.52" y1="61.48" x2="61.48" y2="3.52" gradientUnits="userSpaceOnUse"><stop offset="0" stop-color="#8071ff"/><stop offset="1" stop-color="#4300ff"/></linearGradient></defs><g id="Laag_2" data-name="Laag 2"><g id="Laag_1-2" data-name="Laag 1"><rect class="cls-1" width="65" height="65" rx="12"/><circle class="cls-2" cx="30.82" cy="10.1" r="4.46"/><circle class="cls-2" cx="27.25" cy="18.67" r="4.46"/><circle class="cls-2" cx="27.25" cy="27.95" r="4.46"/><rect class="cls-2" x="22.79" y="18.49" width="8.93" height="9.29"/><path class="cls-2" d="M42.37,16.49c0,.1-3.92,9.2-4.17,9.8a.15.15,0,0,1-.2.07c-.46-.21-.92-.43-1.4-.63l-1-.49A20.79,20.79,0,0,1,28,17.7a.17.17,0,0,1,0-.18l2-1.95a.14.14,0,0,1,.22,0,35.66,35.66,0,0,0,4.37,5c.73.7,1.44,1.33,2.14,1.9a.15.15,0,0,0,.22-.05c.88-1.88,3.2-6.54,3.3-6.74l.06-.11h0a1.73,1.73,0,0,1,1.42,0,1.64,1.64,0,0,1,.72.72h0Z"/><path class="cls-2" d="M43.15,11.77l-.95,3a1.4,1.4,0,0,0-.49-.37,1.47,1.47,0,0,0-.68-.16,2.1,2.1,0,0,0-.57.08l1-3.09Z"/><path class="cls-2" d="M41,29.41V48.49H35.57V33L28,31.64,28.93,26l8.27,1.51h0l2.65.5A1.4,1.4,0,0,1,41,29.41Z"/><rect class="cls-2" x="20.29" y="30.63" width="14.29" height="18.21"/><path class="cls-2" d="M45.29,28.49V47.77h-3.1V28.7a1.38,1.38,0,0,0-.93-1.41l-2.2-.49h0l-.4-.09h5.25A1.64,1.64,0,0,1,45.29,28.49Z"/><path class="cls-2" d="M10.43,52,13.77,57V51.93a1.08,1.08,0,0,1,.22-.75.7.7,0,0,1,.57-.25.76.76,0,0,1,.6.25,1.14,1.14,0,0,1,.21.75v6.75c0,.76-.31,1.13-.93,1.13a1.44,1.44,0,0,1-.43-.06,1.2,1.2,0,0,1-.35-.22,2,2,0,0,1-.3-.34c-.1-.13-.19-.27-.28-.4l-3.27-5v5a1,1,0,0,1-.23.74.81.81,0,0,1-1.17,0,1.09,1.09,0,0,1-.23-.74V52.19a1.7,1.7,0,0,1,.1-.66.85.85,0,0,1,.37-.43,1,1,0,0,1,.55-.17,1,1,0,0,1,.4.08,1,1,0,0,1,.3.2,2.71,2.71,0,0,1,.26.34C10.24,51.68,10.33,51.83,10.43,52Z"/><path class="cls-2" d="M21.63,57H18.5a2.27,2.27,0,0,0,.22,1,1.49,1.49,0,0,0,.57.62,1.52,1.52,0,0,0,.78.21,2.2,2.2,0,0,0,.53-.06,1.93,1.93,0,0,0,.46-.22,3.08,3.08,0,0,0,.41-.3l.48-.45a.54.54,0,0,1,.35-.1.57.57,0,0,1,.4.13.5.5,0,0,1,.16.38,1.06,1.06,0,0,1-.17.51,2.23,2.23,0,0,1-.52.56,3.14,3.14,0,0,1-.86.44,3.88,3.88,0,0,1-1.19.17,3.18,3.18,0,0,1-2.4-.88,3.26,3.26,0,0,1-.85-2.38,4.06,4.06,0,0,1,.21-1.32,2.92,2.92,0,0,1,.61-1,2.69,2.69,0,0,1,1-.66A3.64,3.64,0,0,1,20,53.3a3.15,3.15,0,0,1,1.61.39A2.67,2.67,0,0,1,23,56a.81.81,0,0,1-.35.79A2.28,2.28,0,0,1,21.63,57Zm-3.13-.9h2.9A1.92,1.92,0,0,0,21,54.82a1.33,1.33,0,0,0-1-.41,1.28,1.28,0,0,0-1,.41A2.1,2.1,0,0,0,18.5,56.05Z"/><path class="cls-2" d="M30,54.48v4.65a5,5,0,0,1-.17,1.37,2.17,2.17,0,0,1-.54,1,2.28,2.28,0,0,1-1,.55,5,5,0,0,1-1.51.19A4.51,4.51,0,0,1,25.34,62a2.66,2.66,0,0,1-1-.6A1.09,1.09,0,0,1,24,60.6a.59.59,0,0,1,.2-.47.65.65,0,0,1,.48-.19.8.8,0,0,1,.61.31l.27.32a1.58,1.58,0,0,0,.3.28,1.46,1.46,0,0,0,.4.17,2.92,2.92,0,0,0,.54,0,2.14,2.14,0,0,0,1-.17,1,1,0,0,0,.48-.48,2.12,2.12,0,0,0,.16-.67c0-.23,0-.61,0-1.14a2.54,2.54,0,0,1-.85.79,2.3,2.3,0,0,1-1.15.27,2.43,2.43,0,0,1-1.4-.41,2.73,2.73,0,0,1-.93-1.15,4.31,4.31,0,0,1-.32-1.71,4.08,4.08,0,0,1,.2-1.3,2.7,2.7,0,0,1,.56-1,2.49,2.49,0,0,1,.84-.6,2.68,2.68,0,0,1,1-.2,2.6,2.6,0,0,1,1.18.26,2.92,2.92,0,0,1,.92.82v-.22a.91.91,0,0,1,.21-.64.67.67,0,0,1,.52-.23.63.63,0,0,1,.62.3A2,2,0,0,1,30,54.48Zm-4.63,2A2.22,2.22,0,0,0,25.81,58a1.38,1.38,0,0,0,1.1.5,1.34,1.34,0,0,0,.75-.22,1.51,1.51,0,0,0,.58-.64,2.26,2.26,0,0,0,.22-1A2.37,2.37,0,0,0,28,55.05a1.37,1.37,0,0,0-1.13-.55,1.34,1.34,0,0,0-1.1.53A2.29,2.29,0,0,0,25.39,56.51Z"/><path class="cls-2" d="M35.8,57H32.68a2,2,0,0,0,.22,1,1.45,1.45,0,0,0,1.35.83,2.12,2.12,0,0,0,.52-.06,1.76,1.76,0,0,0,.46-.22,2.55,2.55,0,0,0,.41-.3l.49-.45a.52.52,0,0,1,.35-.1.58.58,0,0,1,.4.13.49.49,0,0,1,.15.38,1.06,1.06,0,0,1-.17.51,2,2,0,0,1-.51.56,3.29,3.29,0,0,1-.86.44,4,4,0,0,1-1.2.17,3.17,3.17,0,0,1-2.39-.88A3.26,3.26,0,0,1,31,56.55a4.06,4.06,0,0,1,.21-1.32,2.94,2.94,0,0,1,.62-1,2.73,2.73,0,0,1,1-.66,3.73,3.73,0,0,1,1.32-.23,3.11,3.11,0,0,1,1.6.39,2.62,2.62,0,0,1,1,1A2.67,2.67,0,0,1,37.12,56c0,.41-.11.67-.34.79A2.33,2.33,0,0,1,35.8,57Zm-3.12-.9h2.9a1.92,1.92,0,0,0-.45-1.23,1.32,1.32,0,0,0-1-.41,1.3,1.3,0,0,0-1,.41A2.1,2.1,0,0,0,32.68,56.05Z"/><path class="cls-2" d="M40.06,57.5v1.34a1,1,0,0,1-.23.73.77.77,0,0,1-.58.24.75.75,0,0,1-.57-.24,1.06,1.06,0,0,1-.22-.73V54.39q0-1.08.78-1.08a.63.63,0,0,1,.57.25,1.46,1.46,0,0,1,.2.75,2.83,2.83,0,0,1,.58-.75,1.23,1.23,0,0,1,.81-.25,2,2,0,0,1,1,.25.74.74,0,0,1,.47.67.67.67,0,0,1-.64.67,1.65,1.65,0,0,1-.42-.11,2,2,0,0,0-.59-.1.89.89,0,0,0-.58.18,1.15,1.15,0,0,0-.34.55,3.36,3.36,0,0,0-.17.86A10.8,10.8,0,0,0,40.06,57.5Z"/><path class="cls-2" d="M47.89,57H44.76a2.27,2.27,0,0,0,.22,1,1.64,1.64,0,0,0,.57.62,1.52,1.52,0,0,0,.78.21,2.15,2.15,0,0,0,.53-.06,1.76,1.76,0,0,0,.46-.22,3.08,3.08,0,0,0,.41-.3c.12-.11.29-.26.48-.45a.55.55,0,0,1,.36-.1.56.56,0,0,1,.39.13.46.46,0,0,1,.16.38,1.06,1.06,0,0,1-.17.51,2.23,2.23,0,0,1-.52.56,3,3,0,0,1-.86.44,3.88,3.88,0,0,1-1.19.17,3.18,3.18,0,0,1-2.4-.88,3.26,3.26,0,0,1-.85-2.38,4.06,4.06,0,0,1,.21-1.32,2.94,2.94,0,0,1,.62-1,2.65,2.65,0,0,1,1-.66,3.68,3.68,0,0,1,1.31-.23,3.15,3.15,0,0,1,1.61.39A2.67,2.67,0,0,1,49.21,56c0,.41-.11.67-.34.79A2.36,2.36,0,0,1,47.89,57Zm-3.13-.9h2.9a1.92,1.92,0,0,0-.44-1.23,1.32,1.32,0,0,0-1-.41,1.3,1.3,0,0,0-1,.41A2.1,2.1,0,0,0,44.76,56.05Z"/><path class="cls-2" d="M52,54.19v.2a2.8,2.8,0,0,1,.92-.82,2.54,2.54,0,0,1,1.16-.26,2.36,2.36,0,0,1,1.13.27,1.8,1.8,0,0,1,.74.78,2,2,0,0,1,.21.64,6.78,6.78,0,0,1,0,.86v3a1.06,1.06,0,0,1-.22.73.72.72,0,0,1-.57.24.73.73,0,0,1-.58-.25,1.05,1.05,0,0,1-.22-.72V56.17A2.64,2.64,0,0,0,54.4,55a.91.91,0,0,0-.88-.41,1.32,1.32,0,0,0-.78.25,1.47,1.47,0,0,0-.51.7,4.9,4.9,0,0,0-.12,1.34v2a1,1,0,0,1-.22.73.78.78,0,0,1-.59.24.72.72,0,0,1-.57-.25,1.1,1.1,0,0,1-.22-.72V54.22a1,1,0,0,1,.2-.68.67.67,0,0,1,.55-.23.72.72,0,0,1,.38.1.79.79,0,0,1,.27.3A1,1,0,0,1,52,54.19Z"/></g></g></svg>