<svg xmlns="http://www.w3.org/2000/svg" viewBox="0 0 61 61"><defs><style>.cls-1{fill:#a6e6fc;}.cls-2{fill:#e5f6fc;}</style></defs><g id="Laag_2" data-name="Laag 2"><g id="Laag_1-2" data-name="Laag 1"><rect class="cls-1" width="60" height="61" rx="12"/><rect class="cls-2" x="1" width="60" height="60" rx="12"/><circle cx="28.82" cy="14.1" r="4.46"/><circle cx="25.25" cy="22.67" r="4.46"/><circle cx="25.25" cy="31.95" r="4.46"/><rect x="20.79" y="22.49" width="8.93" height="9.29"/><path d="M40.37,20.49c0,.1-3.92,9.2-4.17,9.8a.15.15,0,0,1-.2.07c-.46-.21-.92-.43-1.4-.63l-1-.49A20.79,20.79,0,0,1,26,21.7a.17.17,0,0,1,0-.18l2-1.95a.14.14,0,0,1,.22,0,35.66,35.66,0,0,0,4.37,5.05c.73.7,1.44,1.33,2.14,1.9a.15.15,0,0,0,.22-.05c.88-1.88,3.2-6.54,3.3-6.74l.06-.11h0a1.73,1.73,0,0,1,1.42,0,1.64,1.64,0,0,1,.72.72h0Z"/><path d="M41.15,15.77l-.95,3a1.4,1.4,0,0,0-.49-.37,1.47,1.47,0,0,0-.68-.16,2.1,2.1,0,0,0-.57.08l1-3.09Z"/><path d="M39,33.41V52.49H33.57V37L26,35.64,26.93,30l8.27,1.51h0l2.65.5A1.4,1.4,0,0,1,39,33.41Z"/><rect x="18.29" y="34.63" width="14.29" height="18.21"/><path d="M43.29,32.49V51.77h-3.1V32.7a1.38,1.38,0,0,0-.93-1.41l-2.2-.49h0l-.4-.09h5.25A1.64,1.64,0,0,1,43.29,32.49Z"/></g></g></svg>