<svg xmlns="http://www.w3.org/2000/svg" viewBox="0 0 61 61"><defs><style>.cls-1{fill:#a6e6fc;}.cls-2{fill:#e5f6fc;}.cls-3{fill:#751122;}.cls-4{fill:#b51b34;}</style></defs><g id="Laag_2" data-name="Laag 2"><g id="Laag_1-2" data-name="Laag 1"><rect class="cls-1" width="60" height="61" rx="12"/><rect class="cls-2" x="1" width="60" height="60" rx="12"/><path class="cls-3" d="M52.35,26.24a10.72,10.72,0,0,1-2.27,6.61A.64.64,0,0,0,50,33L48.35,34.6,32,51,15.62,34.67,13.85,32.9l0,0a10.74,10.74,0,1,1,18.12-11.3A10.83,10.83,0,0,1,35,17.78a10.74,10.74,0,0,1,17.35,8.46Z"/><path class="cls-4" d="M53.35,26.24a10.72,10.72,0,0,1-2.27,6.61A.64.64,0,0,0,51,33L49.35,34.6,33,51,16.62,34.67,14.85,32.9l0,0a10.74,10.74,0,1,1,18.12-11.3A10.83,10.83,0,0,1,36,17.78a10.74,10.74,0,0,1,17.35,8.46Z"/></g></g></svg>