<svg xmlns="http://www.w3.org/2000/svg" xmlns:xlink="http://www.w3.org/1999/xlink" viewBox="0 0 65 65"><defs><style>.cls-1{opacity:0.73;fill:url(#Naamloos_verloop_1002);}.cls-2,.cls-3{fill:#fff;}.cls-2{stroke:#000;stroke-miterlimit:10;stroke-width:0.25px;}</style><linearGradient id="Naamloos_verloop_1002" x1="3.52" y1="61.48" x2="61.47" y2="3.53" gradientUnits="userSpaceOnUse"><stop offset="0" stop-color="#ffbf1c"/><stop offset="1" stop-color="#fffb00"/></linearGradient></defs><g id="Laag_2" data-name="Laag 2"><g id="Laag_1-2" data-name="Laag 1"><rect class="cls-1" width="65" height="65" rx="12"/><path class="cls-2" d="M45,38.3l.08,0a14.4,14.4,0,0,1-5.23,8.75,7.22,7.22,0,0,0-5.14-4.91,25.63,25.63,0,0,1-2.93.17c-10.49,0-19-6.43-19-14.35s8.51-14.36,19-14.36,19,6.43,19,14.36C50.74,32,48.53,35.69,45,38.3Z"/><path class="cls-3" d="M17.49,57.32H15.9v2.43a1.1,1.1,0,0,1-.25.79.8.8,0,0,1-.62.27.83.83,0,0,1-.63-.26,1.15,1.15,0,0,1-.24-.79V53.14a1.12,1.12,0,0,1,.26-.82,1.24,1.24,0,0,1,.84-.24h2.23a6,6,0,0,1,1.53.15,2.3,2.3,0,0,1,.91.49,2.15,2.15,0,0,1,.58.83,3,3,0,0,1,.2,1.11,2.43,2.43,0,0,1-.81,2A3.63,3.63,0,0,1,17.49,57.32Zm-.42-3.94H15.9V56h1.17a3.35,3.35,0,0,0,1-.13,1.21,1.21,0,0,0,.63-.42,1.23,1.23,0,0,0,.22-.77,1.29,1.29,0,0,0-.34-.93A2.24,2.24,0,0,0,17.07,53.38Z"/><path class="cls-3" d="M23.64,58.5v1.34a1,1,0,0,1-.23.73.81.81,0,0,1-1.15,0,1.12,1.12,0,0,1-.22-.73V55.39q0-1.08.78-1.08a.62.62,0,0,1,.57.25,1.37,1.37,0,0,1,.2.75,2.84,2.84,0,0,1,.59-.75,1.2,1.2,0,0,1,.8-.25,2,2,0,0,1,1,.25.75.75,0,0,1,.48.67.61.61,0,0,1-.21.48.6.6,0,0,1-.43.19,1.68,1.68,0,0,1-.43-.11,2,2,0,0,0-.59-.1.89.89,0,0,0-.58.18,1.15,1.15,0,0,0-.34.55,3.85,3.85,0,0,0-.17.86C23.66,57.62,23.64,58,23.64,58.5Z"/><path class="cls-3" d="M31.05,59.91a4.86,4.86,0,0,1-1.12.68,3.16,3.16,0,0,1-1.22.22,2.32,2.32,0,0,1-1.08-.24,1.68,1.68,0,0,1-.71-.66,1.71,1.71,0,0,1-.26-.9,1.61,1.61,0,0,1,.42-1.12,2.05,2.05,0,0,1,1.14-.62l.76-.16,1-.23c.29-.06.6-.15.94-.24a1.64,1.64,0,0,0-.26-.93,1.12,1.12,0,0,0-.93-.3,2,2,0,0,0-.92.17,1.51,1.51,0,0,0-.53.51,3.77,3.77,0,0,1-.31.45.52.52,0,0,1-.39.11.65.65,0,0,1-.46-.18A.56.56,0,0,1,27,56a1.36,1.36,0,0,1,.3-.82,2.17,2.17,0,0,1,.93-.65,4,4,0,0,1,1.58-.26,4.43,4.43,0,0,1,1.66.25,1.56,1.56,0,0,1,.85.78,3.56,3.56,0,0,1,.25,1.43c0,.38,0,.7,0,1v.87a3.17,3.17,0,0,0,.15.94,3.55,3.55,0,0,1,.14.63.56.56,0,0,1-.23.45.74.74,0,0,1-.52.2.68.68,0,0,1-.49-.23A3.4,3.4,0,0,1,31.05,59.91ZM31,57.6c-.24.08-.58.17-1,.27s-.75.17-.92.21a1.2,1.2,0,0,0-.5.26.7.7,0,0,0-.23.55.83.83,0,0,0,.27.62,1,1,0,0,0,.73.25,1.85,1.85,0,0,0,.87-.2,1.36,1.36,0,0,0,.59-.54A2.36,2.36,0,0,0,31,57.83Z"/><path class="cls-3" d="M33.93,54.45h.18v-1a5.17,5.17,0,0,1,0-.61.94.94,0,0,1,.11-.38.76.76,0,0,1,.66-.36.77.77,0,0,1,.55.22.72.72,0,0,1,.21.38,3.13,3.13,0,0,1,.05.62v1.09h.58a.74.74,0,0,1,.52.16A.54.54,0,0,1,37,55a.48.48,0,0,1-.26.46,1.75,1.75,0,0,1-.73.12h-.29v2.95a4.38,4.38,0,0,0,0,.57.63.63,0,0,0,.14.33.46.46,0,0,0,.37.13,2.2,2.2,0,0,0,.38,0,1.64,1.64,0,0,1,.38-.05.49.49,0,0,1,.35.15.54.54,0,0,1,.15.39.65.65,0,0,1-.42.59,2.78,2.78,0,0,1-1.21.2,2.1,2.1,0,0,1-1.14-.25,1.15,1.15,0,0,1-.5-.7,4.68,4.68,0,0,1-.12-1.19V55.6h-.22a.74.74,0,0,1-.52-.16.54.54,0,0,1-.18-.42.52.52,0,0,1,.19-.41A.8.8,0,0,1,33.93,54.45Z"/><path class="cls-3" d="M42.55,58H39.43a2,2,0,0,0,.22,1,1.45,1.45,0,0,0,1.35.83,2.12,2.12,0,0,0,.52-.06,1.76,1.76,0,0,0,.46-.22,2.55,2.55,0,0,0,.41-.3l.49-.45a.52.52,0,0,1,.35-.1.58.58,0,0,1,.4.13.49.49,0,0,1,.15.38,1.06,1.06,0,0,1-.17.51,2,2,0,0,1-.51.56,3.29,3.29,0,0,1-.86.44,4,4,0,0,1-1.2.17,3.17,3.17,0,0,1-2.39-.88,3.26,3.26,0,0,1-.86-2.38A4.06,4.06,0,0,1,38,56.23a2.94,2.94,0,0,1,.62-1,2.73,2.73,0,0,1,1-.66,3.73,3.73,0,0,1,1.32-.23,3.11,3.11,0,0,1,1.6.39,2.62,2.62,0,0,1,1,1A2.67,2.67,0,0,1,43.87,57c0,.41-.11.67-.34.79A2.33,2.33,0,0,1,42.55,58Zm-3.12-.9h2.9a1.92,1.92,0,0,0-.45-1.23,1.32,1.32,0,0,0-1-.41,1.3,1.3,0,0,0-1,.41A2.1,2.1,0,0,0,39.43,57.05Z"/><path class="cls-3" d="M46.67,55.19v.2a2.82,2.82,0,0,1,.93-.82,2.47,2.47,0,0,1,1.15-.26,2.33,2.33,0,0,1,1.13.27A2,2,0,0,1,50.83,56a6.52,6.52,0,0,1,.05.86v3a1.12,1.12,0,0,1-.22.73.75.75,0,0,1-.58.24.74.74,0,0,1-.58-.25,1.1,1.1,0,0,1-.22-.72V57.17A2.64,2.64,0,0,0,49.06,56a.9.9,0,0,0-.87-.41,1.27,1.27,0,0,0-.78.25,1.43,1.43,0,0,0-.52.7,4.9,4.9,0,0,0-.12,1.34v2a1,1,0,0,1-.22.73.78.78,0,0,1-.59.24.69.69,0,0,1-.56-.25,1.05,1.05,0,0,1-.23-.72V55.22a1,1,0,0,1,.2-.68.68.68,0,0,1,.55-.23.7.7,0,0,1,.38.1.79.79,0,0,1,.27.3A1,1,0,0,1,46.67,55.19Z"/></g></g></svg>