<svg xmlns="http://www.w3.org/2000/svg" xmlns:xlink="http://www.w3.org/1999/xlink" viewBox="0 0 65 65"><defs><style>.cls-1{opacity:0.73;fill:url(#Naamloos_verloop_823);}.cls-2{fill:#fff;}.cls-3{fill:#b8001d;}</style><linearGradient id="Naamloos_verloop_823" x1="3.53" y1="61.48" x2="61.48" y2="3.53" gradientUnits="userSpaceOnUse"><stop offset="0" stop-color="#ff7f7f"/><stop offset="1" stop-color="#ff0e14"/></linearGradient></defs><g id="Laag_2" data-name="Laag 2"><g id="Laag_1-2" data-name="Laag 1"><rect class="cls-1" width="65" height="65" rx="12"/><path class="cls-2" d="M53.63,23.54a10.7,10.7,0,0,1-2.28,6.62l-.09.12-1.63,1.63-16.4,16.4L16.9,32,15.13,30.2l0,0A10.74,10.74,0,1,1,33.22,18.87a10.74,10.74,0,0,1,20.41,4.67Z"/><path class="cls-3" d="M50.53,24.94a9,9,0,0,1-1.94,5.62.76.76,0,0,1-.08.11l-1.38,1.38-14,14L19.29,32.11,17.78,30.6l0,0A9.13,9.13,0,1,1,33.17,21a9.26,9.26,0,0,1,2.6-3.22,9.14,9.14,0,0,1,14.76,7.2Z"/><path class="cls-2" d="M16.29,52.42H12.87v2.2h2.86a.93.93,0,0,1,.6.17.62.62,0,0,1,.19.48.59.59,0,0,1-.2.48.9.9,0,0,1-.59.17H12.87v2.83a1.14,1.14,0,0,1-.25.8.88.88,0,0,1-1.25,0,1.16,1.16,0,0,1-.25-.8V52.14a1.35,1.35,0,0,1,.12-.61.66.66,0,0,1,.34-.34,1.39,1.39,0,0,1,.61-.11h4.1a.9.9,0,0,1,.62.18.61.61,0,0,1,.2.49.59.59,0,0,1-.2.48A.85.85,0,0,1,16.29,52.42Z"/><path class="cls-2" d="M18.14,58.84V51.9a1.07,1.07,0,0,1,.21-.72.73.73,0,0,1,.58-.25.78.78,0,0,1,.59.24,1.12,1.12,0,0,1,.22.73v6.94a1,1,0,0,1-.23.73.75.75,0,0,1-.58.24.71.71,0,0,1-.57-.25A1.05,1.05,0,0,1,18.14,58.84Z"/><path class="cls-2" d="M22.2,52.57a.84.84,0,0,1-.57-.21.8.8,0,0,1,0-1.14A.82.82,0,0,1,22.2,51a.85.85,0,0,1,.55.2.71.71,0,0,1,.24.58.75.75,0,0,1-.23.58A.83.83,0,0,1,22.2,52.57ZM23,54.22v4.62a1.06,1.06,0,0,1-.23.73.75.75,0,0,1-.58.24.72.72,0,0,1-.57-.25,1.05,1.05,0,0,1-.22-.72V54.26a1,1,0,0,1,.22-.71.81.81,0,0,1,1.15,0A.94.94,0,0,1,23,54.22Z"/><path class="cls-2" d="M26.23,57.5v1.34a1,1,0,0,1-.23.73.81.81,0,0,1-1.15,0,1.12,1.12,0,0,1-.22-.73V54.39q0-1.08.78-1.08a.62.62,0,0,1,.57.25,1.37,1.37,0,0,1,.2.75,2.84,2.84,0,0,1,.59-.75,1.2,1.2,0,0,1,.8-.25,2,2,0,0,1,1,.25.75.75,0,0,1,.48.67.61.61,0,0,1-.21.48.6.6,0,0,1-.43.19,1.68,1.68,0,0,1-.43-.11,2,2,0,0,0-.59-.1.89.89,0,0,0-.58.18,1.15,1.15,0,0,0-.34.55,3.85,3.85,0,0,0-.17.86C26.25,56.62,26.23,57,26.23,57.5Z"/><path class="cls-2" d="M30.13,53.45h.18v-1c0-.26,0-.46,0-.61a.94.94,0,0,1,.11-.38,1,1,0,0,1,.27-.26.77.77,0,0,1,.4-.1.8.8,0,0,1,.55.22.7.7,0,0,1,.2.38,3.13,3.13,0,0,1,.05.62v1.09h.58a.74.74,0,0,1,.52.16.54.54,0,0,1,.18.41.47.47,0,0,1-.25.46,1.79,1.79,0,0,1-.73.12h-.3v2.95c0,.25,0,.44,0,.57a.56.56,0,0,0,.15.33.45.45,0,0,0,.37.13,2.33,2.33,0,0,0,.38,0,1.51,1.51,0,0,1,.37-.05.49.49,0,0,1,.35.15.51.51,0,0,1,.16.39.65.65,0,0,1-.42.59,2.86,2.86,0,0,1-1.22.2,2,2,0,0,1-1.13-.25,1.17,1.17,0,0,1-.51-.7,4.68,4.68,0,0,1-.12-1.19V54.6H30.1a.76.76,0,0,1-.53-.16.54.54,0,0,1-.18-.42.52.52,0,0,1,.19-.41A.82.82,0,0,1,30.13,53.45Z"/></g></g></svg>