<svg xmlns="http://www.w3.org/2000/svg" xmlns:xlink="http://www.w3.org/1999/xlink" viewBox="0 0 65 65"><defs><style>.cls-1{opacity:0.73;fill:url(#Naamloos_verloop_1052);}.cls-2{fill:#fff;}.cls-3{fill:#fbb03b;}.cls-4{fill:#f7931e;}.cls-5{fill:#f78500;}</style><linearGradient id="Naamloos_verloop_1052" x1="3.53" y1="61.48" x2="61.48" y2="3.53" gradientUnits="userSpaceOnUse"><stop offset="0" stop-color="#8fff1c"/><stop offset="1" stop-color="#2aff74"/></linearGradient></defs><g id="Laag_2" data-name="Laag 2"><g id="Laag_1-2" data-name="Laag 1"><rect class="cls-1" width="65" height="65" rx="12"/><path class="cls-2" d="M45.57,25.7a37,37,0,0,1-3.85,13.62c-2.14,4.19-6.12,12.34-10.53,11.82-3.74-.44-7.25-7-6.43-12.08.5-3,2.29-3.89,2.06-6.68-.28-3.47-3.25-4.42-4.88-7.45C18.72,19,21.77,7.13,29.39,4.64c4.7-1.53,10.09.84,13.1,4.11C46.65,13.26,46.12,19.38,45.57,25.7Z"/><path class="cls-2" d="M40.18,30.33c-.41,1.48-1.13,3.88-2.83,4.37-.91.26-1.38-.24-3,0A6,6,0,0,0,31.19,36c-1.46,1.3-1,2.71-2.32,3.34a2.27,2.27,0,0,1-2.56-.26c-.65-.84.57-2.19,1.21-4.22a7.94,7.94,0,0,0,.33-1.68c.13-1.79-.57-1.93-1.8-5.66a3.38,3.38,0,0,1-.11-.34c-1.06-3.21-2.44-7.92-.66-12.63.25-.66,2.47-6.52,6.93-7.07S40.51,12,42,15.69C43.3,19,42.24,22.8,40.18,30.33Z"/><path class="cls-2" d="M32.21,31.74c-.11,2-2.61,4-4.11,3.47a1.44,1.44,0,0,1-.58-.37,7.94,7.94,0,0,0,.33-1.68c.13-1.79-.57-1.93-1.8-5.66a3.38,3.38,0,0,1-.11-.34C27.42,26.42,32.38,28.86,32.21,31.74Z"/><path class="cls-3" d="M44.44,25.89a33.63,33.63,0,0,1-3.5,12.36C39,42.05,35.39,49.44,31.38,49c-3.39-.4-6.58-6.35-5.83-11,.45-2.76,2.07-3.53,1.87-6.06-.26-3.15-3-4-4.43-6.76C20.07,19.78,22.83,9,29.75,6.76c4.27-1.39,9.16.77,11.89,3.73C45.41,14.59,44.94,20.15,44.44,25.89Z"/><path class="cls-4" d="M39.54,30.08c-.36,1.34-1,3.52-2.56,4-.83.24-1.25-.22-2.71,0a5.4,5.4,0,0,0-2.89,1.16c-1.32,1.18-.93,2.46-2.1,3A2.09,2.09,0,0,1,27,38c-.59-.76.53-2,1.1-3.83a6.59,6.59,0,0,0,.3-1.53c.12-1.62-.52-1.75-1.63-5.13,0-.1-.07-.21-.11-.31C25.66,24.29,24.4,20,26,15.74c.22-.6,2.24-5.92,6.29-6.41s7.54,4.12,8.87,7.46C42.38,19.82,41.41,23.25,39.54,30.08Z"/><path class="cls-5" d="M32.31,31.37c-.1,1.78-2.36,3.59-3.73,3.14a1.35,1.35,0,0,1-.53-.33,6.59,6.59,0,0,0,.3-1.53c.12-1.62-.52-1.75-1.63-5.13,0-.1-.07-.21-.11-.31C28,26.54,32.47,28.75,32.31,31.37Z"/><path class="cls-2" d="M7.87,54v6.25h3.52a1,1,0,0,1,.65.2.68.68,0,0,1,.23.52.65.65,0,0,1-.23.51,1,1,0,0,1-.65.2H7.19a1.16,1.16,0,0,1-.82-.25,1.16,1.16,0,0,1-.25-.82V54a1.16,1.16,0,0,1,.24-.8.89.89,0,0,1,1.26,0A1.16,1.16,0,0,1,7.87,54Z"/><path class="cls-2" d="M17.45,60.91v-.2a3.86,3.86,0,0,1-.6.61,2.27,2.27,0,0,1-.69.36,2.84,2.84,0,0,1-.86.12,2.21,2.21,0,0,1-1-.24,1.74,1.74,0,0,1-.71-.66,2.93,2.93,0,0,1-.3-1.47V56.26a1,1,0,0,1,.22-.71.72.72,0,0,1,.57-.24.78.78,0,0,1,.59.24,1,1,0,0,1,.22.71v2.57a4.06,4.06,0,0,0,.09.93,1.18,1.18,0,0,0,.34.59,1,1,0,0,0,.66.22,1.34,1.34,0,0,0,.76-.24,1.39,1.39,0,0,0,.52-.63,5,5,0,0,0,.14-1.49v-2a1,1,0,0,1,.22-.71.75.75,0,0,1,.58-.24.72.72,0,0,1,.57.24,1,1,0,0,1,.22.71V60.9a1,1,0,0,1-.21.68.66.66,0,0,1-.53.23.71.71,0,0,1-.54-.23A.93.93,0,0,1,17.45,60.91Z"/><path class="cls-2" d="M21.35,54.57a.84.84,0,0,1-.57-.21.73.73,0,0,1-.24-.58.73.73,0,0,1,.25-.56.79.79,0,0,1,.56-.22.85.85,0,0,1,.55.2.71.71,0,0,1,.24.58.72.72,0,0,1-.23.58A.81.81,0,0,1,21.35,54.57Zm.79,1.65v4.62a1.06,1.06,0,0,1-.22.73.78.78,0,0,1-.58.24.73.73,0,0,1-.58-.25,1.1,1.1,0,0,1-.22-.72V56.26a1.06,1.06,0,0,1,.22-.71.75.75,0,0,1,.58-.24.78.78,0,0,1,.58.24A.93.93,0,0,1,22.14,56.22Z"/><path class="cls-2" d="M29,59.72a1.87,1.87,0,0,1-1.28,1.85,4.31,4.31,0,0,1-1.53.24,3.7,3.7,0,0,1-1.48-.26,2.15,2.15,0,0,1-.9-.66,1.3,1.3,0,0,1-.3-.79.62.62,0,0,1,.19-.45.63.63,0,0,1,.47-.19.57.57,0,0,1,.39.12,1.27,1.27,0,0,1,.26.35,1.83,1.83,0,0,0,.59.64,1.78,1.78,0,0,0,.93.21,1.3,1.3,0,0,0,.79-.22.58.58,0,0,0,.31-.49.67.67,0,0,0-.32-.61A3.93,3.93,0,0,0,26,59.09a9.45,9.45,0,0,1-1.35-.43,2.25,2.25,0,0,1-.83-.6,1.38,1.38,0,0,1-.31-.9,1.59,1.59,0,0,1,.29-.91,1.91,1.91,0,0,1,.85-.69A3.22,3.22,0,0,1,26,55.31a4.23,4.23,0,0,1,1.11.13,2.76,2.76,0,0,1,.83.34,1.78,1.78,0,0,1,.5.48.93.93,0,0,1,.18.52.58.58,0,0,1-.19.45.71.71,0,0,1-.52.18.64.64,0,0,1-.42-.14,2.89,2.89,0,0,1-.4-.43,1.47,1.47,0,0,0-.42-.37,1.42,1.42,0,0,0-.67-.14,1.33,1.33,0,0,0-.72.18A.56.56,0,0,0,25,57a.51.51,0,0,0,.21.42,1.9,1.9,0,0,0,.57.26l1,.26a5.69,5.69,0,0,1,1.22.43,2,2,0,0,1,.71.6A1.27,1.27,0,0,1,29,59.72Z"/><path class="cls-2" d="M30.39,55.45h.17v-1c0-.26,0-.46,0-.61a1.13,1.13,0,0,1,.12-.38.76.76,0,0,1,.66-.36.79.79,0,0,1,.55.22.72.72,0,0,1,.21.38,3.29,3.29,0,0,1,0,.62v1.09h.59a.74.74,0,0,1,.52.16.54.54,0,0,1,.18.41.48.48,0,0,1-.26.46,1.75,1.75,0,0,1-.73.12h-.3v2.95a4,4,0,0,0,0,.57.56.56,0,0,0,.14.33.46.46,0,0,0,.37.13,2.2,2.2,0,0,0,.38,0,1.58,1.58,0,0,1,.38-.05.5.5,0,0,1,.35.15A.54.54,0,0,1,34,61a.65.65,0,0,1-.42.59,2.78,2.78,0,0,1-1.21.2,2.1,2.1,0,0,1-1.14-.25,1.17,1.17,0,0,1-.51-.7,4.68,4.68,0,0,1-.12-1.19V56.6h-.21a.74.74,0,0,1-.52-.16.55.55,0,0,1,0-.83A.85.85,0,0,1,30.39,55.45Z"/><path class="cls-2" d="M39,59H35.88a2.27,2.27,0,0,0,.22,1,1.64,1.64,0,0,0,.57.62,1.53,1.53,0,0,0,.79.21,2.12,2.12,0,0,0,.52-.06,1.76,1.76,0,0,0,.46-.22,3.08,3.08,0,0,0,.41-.3l.49-.45a.52.52,0,0,1,.35-.1.6.6,0,0,1,.4.13.49.49,0,0,1,.15.38,1.06,1.06,0,0,1-.17.51,2.18,2.18,0,0,1-.51.56,3.21,3.21,0,0,1-.87.44,3.88,3.88,0,0,1-1.19.17,3.16,3.16,0,0,1-2.39-.88,3.26,3.26,0,0,1-.86-2.38,4.06,4.06,0,0,1,.21-1.32,2.94,2.94,0,0,1,.62-1,2.73,2.73,0,0,1,1-.66,3.68,3.68,0,0,1,1.31-.23,3.12,3.12,0,0,1,1.61.39,2.62,2.62,0,0,1,1,1A2.67,2.67,0,0,1,40.33,58c0,.41-.11.67-.34.79A2.33,2.33,0,0,1,39,59Zm-3.13-.9h2.91a1.92,1.92,0,0,0-.45-1.23,1.32,1.32,0,0,0-1-.41,1.3,1.3,0,0,0-1,.41A2.1,2.1,0,0,0,35.88,58.05Z"/><path class="cls-2" d="M43.27,59.5v1.34a1,1,0,0,1-.23.73.77.77,0,0,1-.58.24.75.75,0,0,1-.57-.24,1.06,1.06,0,0,1-.22-.73V56.39q0-1.08.78-1.08a.65.65,0,0,1,.57.25,1.37,1.37,0,0,1,.19.75,3.06,3.06,0,0,1,.59-.75,1.21,1.21,0,0,1,.81-.25,2,2,0,0,1,1,.25.76.76,0,0,1,.47.67.67.67,0,0,1-.64.67,1.65,1.65,0,0,1-.42-.11,2,2,0,0,0-.6-.1.88.88,0,0,0-.57.18,1.25,1.25,0,0,0-.35.55,4.51,4.51,0,0,0-.17.86C43.28,58.62,43.27,59,43.27,59.5Z"/><path class="cls-2" d="M51.1,59H48a2.27,2.27,0,0,0,.22,1,1.49,1.49,0,0,0,.57.62,1.52,1.52,0,0,0,.78.21,2.2,2.2,0,0,0,.53-.06,1.76,1.76,0,0,0,.46-.22,3.08,3.08,0,0,0,.41-.3l.48-.45a.55.55,0,0,1,.36-.1.56.56,0,0,1,.39.13.46.46,0,0,1,.16.38,1.06,1.06,0,0,1-.17.51,2.23,2.23,0,0,1-.52.56,3,3,0,0,1-.86.44,3.88,3.88,0,0,1-1.19.17,3.18,3.18,0,0,1-2.4-.88,3.26,3.26,0,0,1-.85-2.38,4.06,4.06,0,0,1,.21-1.32,2.92,2.92,0,0,1,.61-1,2.77,2.77,0,0,1,1-.66,3.64,3.64,0,0,1,1.31-.23,3.15,3.15,0,0,1,1.61.39A2.67,2.67,0,0,1,52.42,58a.81.81,0,0,1-.35.79A2.28,2.28,0,0,1,51.1,59ZM48,58.05h2.9a1.92,1.92,0,0,0-.44-1.23,1.33,1.33,0,0,0-1-.41,1.28,1.28,0,0,0-1,.41A2.1,2.1,0,0,0,48,58.05Z"/><path class="cls-2" d="M55.22,56.19v.2a2.8,2.8,0,0,1,.92-.82,2.53,2.53,0,0,1,1.15-.26,2.37,2.37,0,0,1,1.14.27,1.8,1.8,0,0,1,.74.78,2,2,0,0,1,.21.64,6.78,6.78,0,0,1,0,.86v3a1.06,1.06,0,0,1-.22.73.72.72,0,0,1-.57.24.73.73,0,0,1-.58-.25,1.05,1.05,0,0,1-.22-.72V58.17A2.78,2.78,0,0,0,57.61,57a.91.91,0,0,0-.88-.41,1.32,1.32,0,0,0-.78.25,1.47,1.47,0,0,0-.51.7,4.9,4.9,0,0,0-.12,1.34v2a1,1,0,0,1-.23.73.75.75,0,0,1-.58.24.72.72,0,0,1-.57-.25,1.05,1.05,0,0,1-.22-.72V56.22a1,1,0,0,1,.2-.68.65.65,0,0,1,.54-.23.73.73,0,0,1,.39.1.79.79,0,0,1,.27.3A1,1,0,0,1,55.22,56.19Z"/></g></g></svg>