<svg xmlns="http://www.w3.org/2000/svg" xmlns:xlink="http://www.w3.org/1999/xlink" viewBox="0 0 65 65"><defs><style>.cls-1{opacity:0.73;fill:url(#Naamloos_verloop_1083);}.cls-2{fill:#fff;}.cls-3{fill:#fffffc;}</style><linearGradient id="Naamloos_verloop_1083" x1="3.53" y1="61.48" x2="61.48" y2="3.53" gradientUnits="userSpaceOnUse"><stop offset="0" stop-color="#9bfbff"/><stop offset="1" stop-color="#00b3f0"/></linearGradient></defs><g id="Laag_2" data-name="Laag 2"><g id="Laag_1-2" data-name="Laag 1"><rect class="cls-1" width="65" height="65" rx="12"/><path class="cls-2" d="M16.5,57h-.61v2.76a1.17,1.17,0,0,1-.24.81.82.82,0,0,1-.63.25.78.78,0,0,1-.64-.27,1.15,1.15,0,0,1-.23-.79V53.14a.91.91,0,0,1,1.06-1.06H18a7.38,7.38,0,0,1,1,.05,2.59,2.59,0,0,1,.75.2,2,2,0,0,1,.71.49,2,2,0,0,1,.47.73,2.42,2.42,0,0,1,.16.89A2.13,2.13,0,0,1,20.6,56a3.06,3.06,0,0,1-1.64.82,3,3,0,0,1,.88.72,7.6,7.6,0,0,1,.76,1,6.65,6.65,0,0,1,.51,1,1.79,1.79,0,0,1,.19.6.62.62,0,0,1-.11.33.79.79,0,0,1-.3.27,1,1,0,0,1-.43.09.83.83,0,0,1-.49-.13,1.45,1.45,0,0,1-.35-.35l-.39-.62-.69-1.16a7.31,7.31,0,0,0-.67-1,1.68,1.68,0,0,0-.6-.45A1.94,1.94,0,0,0,16.5,57Zm1-3.61h-1.6v2.37h1.56a4.39,4.39,0,0,0,1.05-.11,1.36,1.36,0,0,0,.66-.37,1.09,1.09,0,0,0,.22-.72,1.11,1.11,0,0,0-.18-.63,1.12,1.12,0,0,0-.5-.41A3.88,3.88,0,0,0,17.49,53.38Z"/><path class="cls-2" d="M26.54,59.91v-.2a4.39,4.39,0,0,1-.61.61,2.27,2.27,0,0,1-.69.36,2.79,2.79,0,0,1-.86.12,2.24,2.24,0,0,1-1-.24,1.81,1.81,0,0,1-.71-.66,2.93,2.93,0,0,1-.3-1.47V55.26a1,1,0,0,1,.22-.71.75.75,0,0,1,.57-.24.76.76,0,0,1,.59.24,1,1,0,0,1,.22.71v2.57a3.53,3.53,0,0,0,.1.93,1.1,1.1,0,0,0,.33.59,1,1,0,0,0,.66.22,1.37,1.37,0,0,0,.77-.24,1.45,1.45,0,0,0,.52-.63,5.1,5.1,0,0,0,.13-1.49v-2a1.06,1.06,0,0,1,.22-.71.77.77,0,0,1,.58-.24.75.75,0,0,1,.58.24,1,1,0,0,1,.22.71V59.9a1,1,0,0,1-.21.68.68.68,0,0,1-.54.23.71.71,0,0,1-.54-.23A1,1,0,0,1,26.54,59.91Z"/><path class="cls-2" d="M34,56.14l-2.93,3.28h3.13a.82.82,0,0,1,.58.18.63.63,0,0,1,.19.46.56.56,0,0,1-.19.44.87.87,0,0,1-.58.17H29.85a1,1,0,0,1-.69-.2.71.71,0,0,1-.22-.55.67.67,0,0,1,.16-.41c.1-.14.32-.39.65-.76l1-1.07.8-.88.61-.7c.16-.19.29-.36.39-.5H30.13a2.36,2.36,0,0,1-.74-.08c-.17-.06-.25-.22-.25-.47a.55.55,0,0,1,.19-.44.77.77,0,0,1,.54-.16h3.67a1.71,1.71,0,0,1,.79.15.56.56,0,0,1,.27.54.65.65,0,0,1-.06.26,1,1,0,0,1-.11.23,2.59,2.59,0,0,1-.18.21A3.3,3.3,0,0,1,34,56.14Z"/><path class="cls-2" d="M36.69,53.57a.84.84,0,0,1-.57-.21.8.8,0,0,1,0-1.14.82.82,0,0,1,.57-.22.85.85,0,0,1,.55.2.71.71,0,0,1,.24.58.75.75,0,0,1-.23.58A.83.83,0,0,1,36.69,53.57Zm.79,1.65v4.62a1.06,1.06,0,0,1-.23.73.75.75,0,0,1-.58.24.72.72,0,0,1-.57-.25,1.05,1.05,0,0,1-.22-.72V55.26a1,1,0,0,1,.22-.71.81.81,0,0,1,1.15,0A.94.94,0,0,1,37.48,55.22Z"/><path class="cls-2" d="M43.6,58H40.47a2.13,2.13,0,0,0,.22,1,1.49,1.49,0,0,0,.57.62,1.47,1.47,0,0,0,.78.21,2.06,2.06,0,0,0,.52-.06,1.62,1.62,0,0,0,.46-.22,2.55,2.55,0,0,0,.41-.3l.49-.45a.52.52,0,0,1,.35-.1.57.57,0,0,1,.4.13.49.49,0,0,1,.15.38,1,1,0,0,1-.17.51,2,2,0,0,1-.51.56,3.29,3.29,0,0,1-.86.44,3.93,3.93,0,0,1-1.19.17,3.18,3.18,0,0,1-2.4-.88,3.26,3.26,0,0,1-.86-2.38A4.06,4.06,0,0,1,39,56.23a3.09,3.09,0,0,1,.62-1,2.69,2.69,0,0,1,1-.66A3.64,3.64,0,0,1,42,54.3a3.17,3.17,0,0,1,1.61.39A2.73,2.73,0,0,1,44.92,57a.81.81,0,0,1-.35.79A2.28,2.28,0,0,1,43.6,58Zm-3.1-4.43a.67.67,0,0,1-.46-.17.68.68,0,0,1,0-1,.63.63,0,0,1,.46-.18.7.7,0,0,1,.46.16.7.7,0,0,1,0,1A.66.66,0,0,1,40.5,53.52Zm0,3.53h2.9a2,2,0,0,0-.44-1.23,1.35,1.35,0,0,0-1-.41,1.32,1.32,0,0,0-1,.41A2.1,2.1,0,0,0,40.47,57.05Zm2.31-4.84a.8.8,0,0,1,.33.08.64.64,0,0,1,.24.25.66.66,0,0,1,.09.33.62.62,0,0,1-.19.48.67.67,0,0,1-.47.17.67.67,0,0,1-.46-.17.65.65,0,0,1,0-.94A.61.61,0,0,1,42.78,52.21Z"/><path class="cls-2" d="M47.72,55.19v.2a2.8,2.8,0,0,1,.92-.82,2.5,2.5,0,0,1,1.15-.26,2.33,2.33,0,0,1,1.13.27,1.88,1.88,0,0,1,.75.78,2,2,0,0,1,.2.64,6.52,6.52,0,0,1,.05.86v3a1.12,1.12,0,0,1-.22.73.75.75,0,0,1-.57.24.73.73,0,0,1-.58-.25,1.05,1.05,0,0,1-.23-.72V57.17A2.64,2.64,0,0,0,50.1,56a.89.89,0,0,0-.87-.41,1.27,1.27,0,0,0-.78.25,1.43,1.43,0,0,0-.52.7,5.5,5.5,0,0,0-.11,1.34v2a1,1,0,0,1-.23.73.75.75,0,0,1-.58.24.72.72,0,0,1-.57-.25,1.05,1.05,0,0,1-.22-.72V55.22a1,1,0,0,1,.2-.68.65.65,0,0,1,.54-.23.7.7,0,0,1,.38.1.66.66,0,0,1,.27.3A1,1,0,0,1,47.72,55.19Z"/><polygon class="cls-3" points="18.64 23.93 20.73 16.95 24.68 24.16 27.94 13 34.69 25.79 41.9 20.68 43.99 27.42 51.67 26.26 45.85 31.38 57.25 36.03 46.32 37.66 47.01 45.56 39.34 39.75 36.55 45.33 30.5 40.68 30.5 46.03 23.99 41.14 17.94 49.28 18.87 39.98 11.66 38.35 17.94 34.63 11.43 28.82 18.41 30.44 13.06 19.28 18.64 23.93"/><path d="M17.26,51l1.07-10.66-8-1.81,6.78-4L9.63,27.88l7.87,1.84L11.61,17.43l6.77,5.63,2.22-7.39,3.94,7.2,3.27-11.2,7.05,13.38,7.31-5.18,2.17,7,8.93-1.35-6.48,5.71,12.33,5L46.86,38.08l.75,8.56-8.09-6.13-2.8,5.59L31,41.69V47l-6.91-5.19ZM13,38.14l6.41,1.45-.79,7.94,5.27-7.09L30,45V39.66l6.37,4.9L39.16,39l7.26,5.49-.64-7.25,9.59-1.43L44.91,31.53,50.06,27l-6.42,1-2-6.5-7.11,5.05-6.43-12.2L24.83,25.46l-4-7.22-2,6.56-4.4-3.67,4.81,10-6.09-1.42,5.56,5Z"/><path d="M31,32.13a7.67,7.67,0,0,1-.05.82,5.28,5.28,0,0,1-.16.81,4.38,4.38,0,0,1-.29.74,2.75,2.75,0,0,1-.45.61,1.93,1.93,0,0,1-.61.41,2,2,0,0,1-.8.15,2.14,2.14,0,0,1-.45-.05,1.31,1.31,0,0,1-.36-.16.9.9,0,0,1-.27-.28,1.16,1.16,0,0,1-.15-.38,3.23,3.23,0,0,1-.45.4,3,3,0,0,1-.43.27,2.66,2.66,0,0,1-.41.16,1.87,1.87,0,0,1-.4,0,1.55,1.55,0,0,1-.45-.05,1.28,1.28,0,0,1-.34-.14,1.14,1.14,0,0,1-.25-.24,1.49,1.49,0,0,1-.28-.7,3.33,3.33,0,0,1,0-.46c0-.17,0-.36,0-.58a6.18,6.18,0,0,1,.14-.67,3.79,3.79,0,0,1,.26-.68,2.67,2.67,0,0,1,.4-.59,2.06,2.06,0,0,1,.58-.42,1.73,1.73,0,0,1,.78-.16,1.47,1.47,0,0,1,.36,0,1.46,1.46,0,0,1,.64.38,3.4,3.4,0,0,1,.29.33l.1-.52a.21.21,0,0,1,.11-.12.71.71,0,0,1,.3,0h.18l.12,0s0,0,.05.05a.17.17,0,0,1,0,.07l-.53,2.7a1.16,1.16,0,0,0,.05.75.56.56,0,0,0,.53.25.83.83,0,0,0,.44-.12,1.18,1.18,0,0,0,.34-.33,1.8,1.8,0,0,0,.24-.48,4.74,4.74,0,0,0,.17-.57,6.17,6.17,0,0,0,.09-.62c0-.21,0-.41,0-.61a3.45,3.45,0,0,0-.14-1,1.94,1.94,0,0,0-.47-.81,2.25,2.25,0,0,0-.89-.55,4.07,4.07,0,0,0-1.41-.21,4.6,4.6,0,0,0-1.23.15,3.26,3.26,0,0,0-1.65,1,3.88,3.88,0,0,0-.49.73,3.8,3.8,0,0,0-.33.78c-.08.27-.14.53-.19.78a6,6,0,0,0-.08.7c0,.21,0,.4,0,.55a4.4,4.4,0,0,0,.15,1.19,2.14,2.14,0,0,0,.52.93,2.23,2.23,0,0,0,1,.61,4.61,4.61,0,0,0,1.56.22,5.86,5.86,0,0,0,.77,0,5.72,5.72,0,0,0,.61-.11,4.13,4.13,0,0,0,.41-.1l.22-.05.06,0,0,.06s0,.07,0,.12v.3s0,.06,0,.09a.2.2,0,0,1,0,.08.18.18,0,0,1-.05.07.78.78,0,0,1-.2.09l-.45.11a5.33,5.33,0,0,1-.67.1,7.17,7.17,0,0,1-.84,0,5.83,5.83,0,0,1-1.85-.25,3.23,3.23,0,0,1-1.24-.74,2.79,2.79,0,0,1-.69-1.16,5,5,0,0,1-.21-1.5c0-.21,0-.44,0-.7s.07-.55.13-.85a6.52,6.52,0,0,1,.25-.91,4.71,4.71,0,0,1,.43-.91,4.19,4.19,0,0,1,.63-.84,3.54,3.54,0,0,1,.88-.69A4.33,4.33,0,0,1,25.76,29a6,6,0,0,1,1.48-.17,5.45,5.45,0,0,1,1.66.23,3.25,3.25,0,0,1,1.16.65,2.77,2.77,0,0,1,.68,1A4.15,4.15,0,0,1,31,32.13Zm-3.4.38a2.15,2.15,0,0,0-.46-.57.79.79,0,0,0-.53-.2.89.89,0,0,0-.45.12,1.24,1.24,0,0,0-.34.31,2,2,0,0,0-.25.43,4.75,4.75,0,0,0-.17.49c0,.17-.07.34-.09.49a3.25,3.25,0,0,0,0,.42,1.26,1.26,0,0,0,.15.67.58.58,0,0,0,.53.24.92.92,0,0,0,.28,0,1.84,1.84,0,0,0,.31-.16,2.55,2.55,0,0,0,.35-.27c.13-.11.26-.24.41-.39Z"/><path d="M37.74,31.45a.91.91,0,0,1,0,.17.28.28,0,0,1,0,.11.23.23,0,0,1-.07.07l-.08,0h-.76l-.24,1.94h.68a.18.18,0,0,1,.15.09.65.65,0,0,1,.05.29.47.47,0,0,1,0,.17.36.36,0,0,1,0,.11.13.13,0,0,1-.06.07l-.08,0h-.78l-.24,2s0,.05,0,.07,0,0-.06.06l-.13,0h-.44l-.13,0s-.06,0-.07-.06a.15.15,0,0,1,0-.07l.25-2H34l-.25,2,0,.07s0,0-.05.06l-.13,0H33l-.13,0s0,0-.06-.06a.08.08,0,0,1,0-.07l.24-2h-.68a.17.17,0,0,1-.14-.09.5.5,0,0,1,0-.28.81.81,0,0,1,0-.17.83.83,0,0,1,0-.12.17.17,0,0,1,.06-.06.13.13,0,0,1,.08,0h.79l.24-1.94h-.71a.15.15,0,0,1-.14-.09.51.51,0,0,1-.06-.28.55.55,0,0,1,.06-.29.15.15,0,0,1,.14-.09h.8l.24-1.88a.19.19,0,0,1,0-.07.18.18,0,0,1,.07-.05L34,29h.45a.34.34,0,0,1,.12,0,.1.1,0,0,1,.06.05.15.15,0,0,1,0,.07l-.24,1.88H36l.23-1.88,0-.07a.18.18,0,0,1,.07-.05.39.39,0,0,1,.14,0h.45l.12,0a.1.1,0,0,1,.06.05.15.15,0,0,1,0,.07l-.24,1.88h.67a.18.18,0,0,1,.15.09A.56.56,0,0,1,37.74,31.45Zm-3.46.37-.23,1.94h1.62l.25-1.94Z"/><path d="M42.89,31.16a.12.12,0,0,1,.07.14.8.8,0,0,1-.14.33.87.87,0,0,1-.22.29.14.14,0,0,1-.15,0L41.2,31l.17,1.53a.13.13,0,0,1-.08.14.91.91,0,0,1-.36,0,1,1,0,0,1-.37,0,.11.11,0,0,1-.07-.14L40.65,31l-1.24.91a.15.15,0,0,1-.16,0,.87.87,0,0,1-.22-.29.8.8,0,0,1-.14-.33c0-.07,0-.12.08-.14l1.41-.63L39,29.91c-.06,0-.08-.07-.08-.14a1.35,1.35,0,0,1,.36-.61.12.12,0,0,1,.16,0l1.24.9-.16-1.53a.11.11,0,0,1,.07-.14,1,1,0,0,1,.37-.05.91.91,0,0,1,.36.05.13.13,0,0,1,.08.14l-.17,1.53,1.25-.9a.11.11,0,0,1,.15,0,1.35,1.35,0,0,1,.36.61.12.12,0,0,1-.07.14l-1.41.62Z"/></g></g></svg>