<svg xmlns="http://www.w3.org/2000/svg" xmlns:xlink="http://www.w3.org/1999/xlink" viewBox="0 0 65 65"><defs><style>.cls-1{opacity:0.48;fill:url(#Naamloos_verloop_426);}.cls-2{fill:#f2f2f2;}</style><linearGradient id="Naamloos_verloop_426" x1="3.53" y1="61.48" x2="61.48" y2="3.53" gradientUnits="userSpaceOnUse"><stop offset="0" stop-color="#ff006c"/><stop offset="0.34" stop-color="#aa1e93"/><stop offset="1" stop-color="#005ae2"/></linearGradient></defs><g id="Laag_2" data-name="Laag 2"><g id="Laag_1-2" data-name="Laag 1"><rect class="cls-1" width="65" height="65" rx="12"/><path class="cls-2" d="M52.83,36.29A20.35,20.35,0,1,1,17,23.14l2.65,3.2A16.27,16.27,0,1,0,35,20.2v8.07l-4.21-4.2-.8-.81-2.48-2.47L25.42,18.7l2.16-2.16,1.35-1.35.05,0,6-6v7A20.34,20.34,0,0,1,52.83,36.29Z"/><rect class="cls-1" width="65" height="65" rx="12"/><path class="cls-2" d="M52.83,36.29A20.35,20.35,0,1,1,17,23.14l2.65,3.2A16.27,16.27,0,1,0,35,20.2v8.07l-4.21-4.2-.8-.81-2.48-2.47L25.42,18.7l2.16-2.16,1.35-1.35.05,0,6-6v7A20.34,20.34,0,0,1,52.83,36.29Z"/></g></g></svg>