<svg xmlns="http://www.w3.org/2000/svg" viewBox="0 0 61 61"><defs><style>.cls-1{fill:#a6e6fc;}.cls-2{fill:#e5f6fc;}.cls-3{fill:#fce5f2;}.cls-4{fill:#a6111d;}.cls-5{fill:#800c1a;}.cls-6{fill:#ff87a4;}</style></defs><g id="Laag_2" data-name="Laag 2"><g id="Laag_1-2" data-name="Laag 1"><rect class="cls-1" width="60" height="61" rx="12"/><rect class="cls-2" x="1" width="60" height="60" rx="12"/><path class="cls-3" d="M43.68,32.12v.07A19.73,19.73,0,0,0,36.58,30c-.21,0-.67-.09-1.33-.14l-.22,0-.27,0h-.42l-.32,0-1.08,0c-.71,0-1.4,0-2.08.08s-1.37-.08-2.08-.08c-1.05,0-2,.06-2.6.12l-.39,0h0l-.45.05-.19,0A21.33,21.33,0,0,0,19.2,31.6c.19-1.19-.1-1.73.42-2.2a.93.93,0,0,1,.55-.27c.65-.1,1.56.29,3.25.27a10,10,0,0,0,1.06-.08h0a18.07,18.07,0,0,1,3.79-.61,11.65,11.65,0,0,1,2.76.34,5.19,5.19,0,0,0,.69,0,6.4,6.4,0,0,0,1.73-.34c1-.33,2.42.16,3.87.53l.63.16c3.19.7,5.25,0,6,.42a.57.57,0,0,1,.24.27C44.43,30.65,43.69,31,43.68,32.12Z"/><path class="cls-4" d="M45.22,21.34l0,0a8.74,8.74,0,0,0-11.84-1,8.88,8.88,0,0,0-2.49,3.08,8.74,8.74,0,0,0-14.34-2.06l0,0L6.72,31.13l9.78,9.78.08-.08S20.22,44,27.75,44.25c.34,0,.68,0,1,0,.71,0,1.4,0,2.08-.07s1.37.07,2.08.07c.36,0,.72,0,1.08,0,7.27-.35,11.12-3.42,11.12-3.42.29-.23.6-.47.9-.74,0,0,0,0,0,0l.9-.91,8-8ZM43.7,39.8c-2,1.92-5.54,3.24-9.6,3.41q-.45,0-.93,0c-.61,0-1.21,0-1.79-.08s-1.18.08-1.79.08l-.9,0c-4.07-.17-7.6-1.49-9.64-3.41A5.29,5.29,0,0,1,17.2,36c0-1.45,1.37-1.75,1.9-3.87,0-.18.07-.35.1-.5.19-1.19-.1-1.73.42-2.2a.93.93,0,0,1,.55-.27c.65-.1,1.56.29,3.25.27a10,10,0,0,0,1.06-.08h0a18.07,18.07,0,0,1,3.79-.61,11.65,11.65,0,0,1,2.76.34,5.19,5.19,0,0,0,.69,0,6.4,6.4,0,0,0,1.73-.34c1-.33,2.42.16,3.87.53l.63.16c3.19.7,5.25,0,6,.42a.57.57,0,0,1,.24.27c.25.56-.49.89-.5,2v.07c0,1.66,1.88,2.23,1.88,3.78A5.3,5.3,0,0,1,43.7,39.8Z"/><path class="cls-3" d="M25.14,30A21.33,21.33,0,0,0,19.2,31.6c.19-1.19-.1-1.73.42-2.2a.93.93,0,0,1,.55-.27c.65-.1,1.56.29,3.25.27a10,10,0,0,0,1.06-.08h0Z"/><path class="cls-3" d="M43.68,32.12v.07A19.73,19.73,0,0,0,36.58,30l.74-.74.63.16c3.19.7,5.25,0,6,.42a.57.57,0,0,1,.24.27C44.43,30.65,43.69,31,43.68,32.12Z"/><path class="cls-3" d="M46,40.09l-.82.82-.08-.08C45.43,40.6,45.74,40.36,46,40.09Z"/><path class="cls-5" d="M45.56,36A5.3,5.3,0,0,1,43.7,39.8c-2,1.92-5.54,3.24-9.6,3.41q-.45,0-.93,0c-.61,0-1.21,0-1.79-.08s-1.18.08-1.79.08l-.9,0c-4.07-.17-7.6-1.49-9.64-3.41A5.29,5.29,0,0,1,17.2,36c0-1.45,1.37-1.75,1.9-3.87,0-.18.07-.35.1-.5.19-1.19-.1-1.73.42-2.2a.93.93,0,0,1,.55-.27c.65-.1,1.56.29,3.25.27a10,10,0,0,0,1.06-.08h0a18.07,18.07,0,0,1,3.79-.61,11.65,11.65,0,0,1,2.76.34,5.19,5.19,0,0,0,.69,0,6.4,6.4,0,0,0,1.73-.34c1-.33,2.42.16,3.87.53l.63.16c3.19.7,5.25,0,6,.42a.57.57,0,0,1,.24.27c.25.56-.49.89-.5,2v.07C43.71,33.85,45.56,34.42,45.56,36Z"/><path class="cls-5" d="M45.56,35.65a5.32,5.32,0,0,1-1.86,3.83c-2,1.92-5.54,3.24-9.6,3.41-.3,0-.61,0-.93,0-.61,0-1.21,0-1.79-.07s-1.18.07-1.79.07c-.3,0-.6,0-.9,0-4.07-.17-7.6-1.49-9.64-3.41a5.3,5.3,0,0,1-1.85-3.83c0-1.45,1.37-1.75,1.9-3.87,0-.18.07-.35.1-.5.19-1.19-.1-1.73.42-2.2a.93.93,0,0,1,.55-.27c.65-.1,1.56.29,3.25.27A10,10,0,0,0,24.48,29h0a18.68,18.68,0,0,1,3.79-.62,11.56,11.56,0,0,1,2.76.35,5.19,5.19,0,0,0,.69,0,5.86,5.86,0,0,0,1.73-.35c1-.32,2.42.17,3.87.54l.63.16c3.19.7,5.25,0,6,.42a.53.53,0,0,1,.24.27c.25.56-.49.89-.5,2v.07C43.71,33.52,45.56,34.1,45.56,35.65Z"/><path class="cls-6" d="M43.68,32.19c0,1.66,1.88,2.23,1.88,3.78A5.3,5.3,0,0,1,43.7,39.8c-2,1.92-5.54,3.24-9.6,3.41q-.45,0-.93,0c-.61,0-1.21,0-1.79-.08s-1.18.08-1.79.08l-.9,0c-4.07-.17-7.6-1.49-9.64-3.41A5.29,5.29,0,0,1,17.2,36c0-1.45,1.37-1.75,1.9-3.87,0-.18.07-.35.1-.5.19-1.19-.1-1.73.42-2.2a.93.93,0,0,1,.55-.27,10.36,10.36,0,0,0,5,.85l.19,0,.45-.05h0l.39,0c.65-.06,1.55-.12,2.6-.12.71,0,1.4,0,2.08.08s1.37-.08,2.08-.08l1.08,0,.32,0h.42l.27,0,.22,0c.66.05,1.12.11,1.33.14a40.34,40.34,0,0,0,7.36-.16.57.57,0,0,1,.24.27c.25.56-.49.89-.5,2Z"/><path class="cls-4" d="M44.93,32.14c0,1.72,2,2.31,2,3.92a5.4,5.4,0,0,1-2,4c-2.18,2-5.94,3.36-10.3,3.54l-1,0c-.66,0-1.3,0-1.93-.08s-1.26.08-1.92.08l-1,0C24.47,43.38,20.68,42,18.5,40a5.4,5.4,0,0,1-2-4c0-1.51,1.48-1.82,2.05-4,0-.19.08-.36.1-.52.21-1.23-.1-1.79.45-2.28a1,1,0,0,1,.6-.28,11.39,11.39,0,0,0,5.33.88l.21,0,.48-.05h0l.42,0c.7-.06,1.66-.12,2.8-.12.76,0,1.5,0,2.23.07s1.47-.07,2.23-.07c.41,0,.8,0,1.16,0h.54l.25,0h.3l.23,0c.7.06,1.2.12,1.43.15a45.47,45.47,0,0,0,7.9-.16.55.55,0,0,1,.25.27c.28.59-.52.93-.54,2.11A.17.17,0,0,0,44.93,32.14Z"/><path class="cls-6" d="M47,39.16a7.75,7.75,0,0,1-.9.91Z"/></g></g></svg>