<svg xmlns="http://www.w3.org/2000/svg" viewBox="0 0 182.95 240.56"><defs><style>.cls-1{fill:#f0d5b6;}.cls-2{fill:gray;}.cls-3{fill:#737373;}.cls-4{fill:#e8c59c;opacity:0.51;}.cls-5{fill:#ffedb8;}.cls-6{fill:#b5a576;}.cls-7{fill:#f2f2f2;}.cls-8{fill:#a67c52;}.cls-9{fill:#6b8eaa;}.cls-10{opacity:0.56;}.cls-11{fill:#00634c;}.cls-12{fill:#c69c6d;}.cls-13,.cls-14{fill:#f7931e;}.cls-13{opacity:0.1;}.cls-14{opacity:0.12;}.cls-15,.cls-16{fill:#f7f7f7;}.cls-15{opacity:0.29;}.cls-16{opacity:0.4;}.cls-17{fill:#dbb993;}.cls-18{fill:#edd696;}.cls-19{fill:#f0d1ad;}.cls-20{fill:#e6c6a3;}</style></defs><g id="Laag_2" data-name="Laag 2"><g id="Laag_2-2" data-name="Laag 2"><path d="M183,240.56H45.67c-.08-.36-.16-.74-.23-1.15,0-.25-.09-.5-.13-.76v-.05c-.06-.39-.12-.79-.16-1.19s-.09-.77-.12-1.17-.07-.81-.11-1.23l-.06-.83V234c0-.32,0-.66-.07-1v-.11l0-.52c0-.24,0-.47,0-.7l0-.54v-.06L44.63,230c-.06-1-.13-2.2-.23-3.44-.89,4.69-1.93,9.37-3.1,14H0V240a175.26,175.26,0,0,1,5.34-45.64c-1.57-2.35-1-5-.68-6.16.45-1.91,1.35-4.43,2.83-8.6.46-1.32,1-2.79,1.56-4.44l.74-2.12c1.28-3.69,2.39-6.87,4.31-11.76,2.69-6.9,4.12-9.82,5.73-11.63A33.84,33.84,0,0,1,25.06,143c3.64-3.52,6.91-4.41,14.8-6.54l2.93-.79c3.79-1,6.71-1.88,9.05-2.55,5.06-1.46,7.37-2.12,9.45-2.12a8.66,8.66,0,0,1,2.44.34l2.37-.52a57.1,57.1,0,0,0,2.8-11c.75-4.63,1.53-9.42.72-12.69l0-.11c-4.37-2.38-6.94-4.53-9-7.54a25.32,25.32,0,0,1-3.87-9C53.39,89,51,85.14,49.25,82.39l-.16-.26a29.07,29.07,0,0,1-3.31-7.42c-.23-.3-.43-.59-.61-.86a13.65,13.65,0,0,1-2.43-6,11.16,11.16,0,0,1,.1-3.54,7.69,7.69,0,0,0,.11-2A4.4,4.4,0,0,0,42.69,61a10,10,0,0,1-.55-3.05c0-.51,0-1,0-1.59a7.32,7.32,0,0,0-.59-1.19,8.44,8.44,0,0,1-1.26-3.52A8.34,8.34,0,0,1,42,45.45a6.91,6.91,0,0,0,1.32-3.07,20.52,20.52,0,0,0,.24-2,43.87,43.87,0,0,1,.78-5.45,12,12,0,0,1,.79-2.73,13,13,0,0,1,2.61-3.91,4.23,4.23,0,0,0,1.24-2,5.47,5.47,0,0,0,.25-1.74A16.69,16.69,0,0,1,50,19.91c.76-2.59,1.71-5.81,4.84-7.63a7.58,7.58,0,0,1,3.3-1,8.1,8.1,0,0,1,1.6-3.36c2-2.42,4.43-2.59,6.22-2.72a12.38,12.38,0,0,0,3.56-.64,5.52,5.52,0,0,0,2-1.11,9.67,9.67,0,0,1,4.42-2.18A11.54,11.54,0,0,1,78.63,1,14,14,0,0,1,81,1.18a10.89,10.89,0,0,0,1.72.16,11.28,11.28,0,0,0,1.55-.12A8.44,8.44,0,0,0,86.13.75,9.92,9.92,0,0,1,89.75.11h.12a12.43,12.43,0,0,1,4.41.83,2.56,2.56,0,0,0,1,.26h.22A4.25,4.25,0,0,0,97,.77,7.69,7.69,0,0,1,100.12,0,6.59,6.59,0,0,1,102,.28,7.79,7.79,0,0,1,105.89,3a13.86,13.86,0,0,1,2-.69,13.36,13.36,0,0,1,3.18-.45,8.33,8.33,0,0,1,3.35.68,7.59,7.59,0,0,1,2.43,1.67,6.53,6.53,0,0,1,1.19-.12A5.44,5.44,0,0,1,121,5a5.07,5.07,0,0,1,1.45,1.37,6.76,6.76,0,0,1,1.61.78,6.08,6.08,0,0,1,2.43,3.07,5.46,5.46,0,0,1,3.44,1.94l0,0,0,0a7.09,7.09,0,0,1,.64,1s0,0,0,0a4.89,4.89,0,0,1,.94.68,8.63,8.63,0,0,1,2.57,4.89,3.42,3.42,0,0,0,.77,1.82c.1.12.19.21.28.3,3.4,1.37,5.82,3.78,6.52,6.57a8.53,8.53,0,0,1-.07,4c0,.18-.09.41-.11.57h0a7.22,7.22,0,0,1,2.92,3.16,8.28,8.28,0,0,1-.19,6.84,4.7,4.7,0,0,0-.49,2.64,2.25,2.25,0,0,0,.52,1.12,7.78,7.78,0,0,1,1.53,5,8.07,8.07,0,0,1-1.61,4.54c-.35.51-.37.54-.4,1a4.54,4.54,0,0,0,.1,1.31,9.24,9.24,0,0,1-.32,5,8.29,8.29,0,0,1-.89,1.8l0,0v0c-.06.21-.06.24,0,.84A9.76,9.76,0,0,1,140,73.88c-2,15.92-7.3,26.26-11.34,30.35a75.5,75.5,0,0,1-6.39,5.63,62.81,62.81,0,0,1-10.75,6.8,22.34,22.34,0,0,1-5.06,1.7c.07.39.16.79.25,1.2a32.91,32.91,0,0,0,4.15,10.22l.26,0,0-.64,4.6,1.13a120.67,120.67,0,0,0,18.39,3.08l.91.07c3.21.26,6.25.51,9.78,2.57,5.2,3.06,7.87,8.05,9.47,11l0,.05a36.86,36.86,0,0,1,2.21,4.94,40.51,40.51,0,0,1,2.82,5.65l.14.33c.65,1.54,1.28,3,1.88,4.32a167.65,167.65,0,0,1,8,16l1.16,2.18c2.46,4.62,4.41,8.26,5.6,11.22.64,1.57,2.14,5.28.7,8.21a173.1,173.1,0,0,1,6.09,39.89Z"/><path class="cls-1" d="M115.29,145.22c-3.1,9.56-43.31,8.19-47-4.23-1.23-4.15,2.69-5.88,5-20.09,1-6.1,1.79-11.35.3-15.49a10.37,10.37,0,0,0-1.3-2.49,28.43,28.43,0,0,1-2-2.85,11.56,11.56,0,0,1-1-2.44,13.89,13.89,0,0,1,0-7.41c2.27-7.43,16.71-12.79,24.5-7.4,4.36,3,5.41,8.72,7.5,20.1.1.57.2,1.11.28,1.61,1.23,7.41.56,9.54,1.25,13.93.11.73.26,1.54.47,2.44C106.87,136.46,116.92,140.19,115.29,145.22Z"/><path class="cls-1" d="M139.3,193.87c.29,1.47.61,2.92.95,4.32-1.46-1.65-2.86-2.6-4.11-4.88a18.17,18.17,0,0,1-1.45-3.61c-2.09-7-.36-13,.56-20.54.66-5.44,1.76-10.39,3.36-13.87-2.16,8-1.5,20.28-1.31,23.77A95.17,95.17,0,0,0,139.3,193.87Z"/><path class="cls-1" d="M179.39,240.41H151l-.15.15h-1l-.08-.15c-.24-.48-.85-1.6-.87-1.63-.56-1.05-.85-13.38-2.75-24.4a.09.09,0,0,1,0,0c0-.07,0-.14,0-.21l-.24-1.31a.77.77,0,0,0,.45.1c1.17-.19.76-4.42,5-9.52.72-.88,4.43-5.34,10-6.35,6.21-1.11,9.58,3,11.56,2.37A169.56,169.56,0,0,1,179.39,240.41Z"/><path class="cls-2" d="M172.86,199.4h0c-2,.63-5.35-3.48-11.56-2.37-5.57,1-9.28,5.47-10,6.35-4.24,5.1-3.83,9.33-5,9.52a.77.77,0,0,1-.45-.1h0a52.35,52.35,0,0,0-2.55-9.41,17.31,17.31,0,0,0-3.05-5.2c-.34-1.4-.66-2.85-.95-4.32a95.17,95.17,0,0,1-2-14.81c-.19-3.49-.85-15.78,1.31-23.77l0,0c1.26-2.71,2.82-4.52,4.73-4.95,3.51-.81,7.58,3.18,11.34,8.59h0c1.24,1.79,2.45,3.72,3.59,5.7h0a162.08,162.08,0,0,1,7.92,15.93c.33.76.56,1.32.68,1.61A156.83,156.83,0,0,1,172.86,199.4Z"/><path class="cls-2" d="M143.3,203.39a52.35,52.35,0,0,1,2.55,9.41c-1.53-.9-3.8-7-5.6-14.61A17.31,17.31,0,0,1,143.3,203.39Z"/><path class="cls-2" d="M156.3,160q1,2.35,2,4.59c-1.14-2-2.35-3.91-3.59-5.7h0c-3.76-5.41-7.83-9.4-11.34-8.59-1.91.43-3.47,2.24-4.73,4.95.93-3.46,2.4-6.1,4.67-6.87a5.26,5.26,0,0,1,3,0C152.07,149.74,155.11,157.2,156.3,160Z"/><path class="cls-2" d="M173.3,199.16a1.47,1.47,0,0,1-.44.24,156.83,156.83,0,0,0-6-17.23c-.12-.29-.35-.85-.68-1.61C171.62,190.71,175.44,197.38,173.3,199.16Z"/><path class="cls-1" d="M146.29,229.83c.16,2.41.47,6.08,1.12,10.58H50.08c-1.5-6.23-.22-15.79-3.79-29.62-.56-2.19-1.19-4.24-1.86-6.15l-.3-.86c-8.2-22.65-22.57-26.95-20.84-39.52a17.5,17.5,0,0,1,1.06-4v0c3-7.46,11.16-13.69,21.6-18.33,2.45-1.1,5-2.09,7.69-3,3.31-1.14,6.76-2.13,10.27-3a120.07,120.07,0,0,1,26.87-3.39,118.32,118.32,0,0,1,19.26,1.54h0a105.15,105.15,0,0,1,22.25,6,70.24,70.24,0,0,1,7.65,3.61c7.26,4,12.68,9.13,14.73,15.19v0a16,16,0,0,1,.59,2.16c1.94,9.86-6.26,14.81-7.1,28.08,0,.06,0,.06,0,.22-.24,5.11-.77,8.86-.89,9.78A178.91,178.91,0,0,0,146.29,229.83Z"/><path class="cls-1" d="M44.8,193.57c-.13,3.38-.36,6.78-.67,10.21a239,239,0,0,1-6.36,36.63H4.47c-.23-16.8,2-36.35,8.07-54.2a140.33,140.33,0,0,1,11.81-26C28.79,153,33.41,148,37,148.82,46.26,151,45,189.77,44.8,193.57Z"/><ellipse class="cls-3" cx="142.29" cy="197.04" rx="6" ry="19.03" transform="translate(-14.43 11.27) rotate(-4.32)"/><path class="cls-2" d="M50.08,240.44a49.89,49.89,0,0,1-1-8.92,119.3,119.3,0,0,0-1.18-12.62c-.41-2.66-1-5.39-1.67-8.1-.53-2.07-1.15-4.15-1.86-6.15l-.3-.86s-.83-2.31-1.8-4.48c-3.55-8-8.33-12.79-12.54-17-4.49-4.53-8.36-8.44-9.5-14.83a22,22,0,0,1,0-7.42,32.71,32.71,0,0,1,2-5.29,35,35,0,0,1,6-8.47c2.9-2.81,5.46-3.5,13.06-5.56l3-.8c3.81-1,6.76-1.88,9.09-2.55,4.7-1.36,6.85-2,8.37-2a4.87,4.87,0,0,1,2.19.52c3.06,1.41,4,3.72,5.18,6.4a23.75,23.75,0,0,0,4.2,7.13c3.9,4.38,10.84,7.1,18.13,7.1s13.66-2.59,17.83-7.1c2.34-2.54,5.29-7.17,6-14.79a129.65,129.65,0,0,0,19,3.15l.89.07c3,.24,5.37.43,8.13,2,4.26,2.5,6.52,6.73,8,9.53a35.29,35.29,0,0,1,3.4,9.45,15.19,15.19,0,0,1,.6,2.19c1,5.19-.75,9-2.8,13.4-1.83,3.93-3.9,8.39-4.3,14.69,0,.06,0,.06,0,.21-.22,4.78-.7,8.38-.86,9.57l0,.21a180,180,0,0,0-1,30.67c.24,3.62.61,7.08,1.12,10.57v0Z"/><path class="cls-2" d="M148.19,189.16c0,.07,0,.07,0,.22-.24,5.1-.77,8.86-.89,9.78a178.91,178.91,0,0,0-1,30.67c.16,2.41.46,6.08,1.12,10.58H50.08c-1.19-4.93-.63-12-2.12-21.52-.39-2.51-.93-5.21-1.67-8.1-.56-2.19-1.19-4.24-1.86-6.15l-.3-.86s-.82-2.29-1.8-4.48c-7.33-16.42-19.83-19.48-22-31.87a22,22,0,0,1,0-7.4,32.88,32.88,0,0,1,2-5.29,34.45,34.45,0,0,1,6-8.46c3.24-3.14,6.1-3.64,16-6.35,15.55-4.25,16.84-5.3,19.63-4,5.44,2.52,4.21,7.73,9.37,13.53,7.8,8.77,26.61,10.15,36,0,1.58-1.71,5.21-6.25,6-14.81a122.86,122.86,0,0,0,19,3.18c3.42.29,6,.34,9,2.11,4.26,2.5,6.51,6.72,8,9.52a35.54,35.54,0,0,1,3.4,9.45h0a16,16,0,0,1,.59,2.16C157.23,170.94,149,175.89,148.19,189.16Z"/><path class="cls-4" d="M102.82,119.46c-3.25-1.28-7.68-3.17-13.4-5.62a161.21,161.21,0,0,1-15.83-7.43,10.37,10.37,0,0,0-1.3-2.49,28.43,28.43,0,0,1-2-2.85,7,7,0,0,1,1.15-.86c4.83-3.07,14.69-1.65,20.07,0a31.15,31.15,0,0,1,10,5.29C102.8,112.94,102.13,115.07,102.82,119.46Z"/><path class="cls-5" d="M140.29,61.67c-.37,1.06-.69,1-1,2.11-.51,1.81.18,2.63,0,4.24-.26,2.36-2.19,4.49-3,4.23s.18-3-1-5.29c-1.7-3.35-6.18-2.62-9-4.23-8.6-4.92-7-34.75,2-38.08,3.57-1.32,9.24,1.21,10,4.23.45,1.77-.9,3.21,0,5.29.81,1.88,2.22,1.5,3,3.17,1.22,2.6-1.67,4.55-1,8.47.48,2.75,2.09,2.9,2,5.28s-1.74,2.47-2,5.29C140.09,58.61,141,59.58,140.29,61.67Z"/><path class="cls-1" d="M137.29,59.55c.32,23.82-6.94,38.2-11,42.31a70.14,70.14,0,0,1-6,5.29,58.69,58.69,0,0,1-10,6.34c-9.84,4.61-19.34-.61-34-7.4-7.33-3.4-10-5.56-12-8.46-3.86-5.58-3.93-11.85-4-14.81-.75-31.94-10.5-38.56-4-51.82,7.9-16.13,28.65-19.28,34-20.1,5.9-.9,25.61-3.9,38,9.52C136.68,29.52,137,40.94,137.29,59.55Z"/><path class="cls-6" d="M112.74,49.56v-3a19,19,0,0,1,5-1,20.86,20.86,0,0,1,10,2,24.54,24.54,0,0,1,5,3,32.89,32.89,0,0,0-20-1Z"/><path class="cls-7" d="M119.57,67.06a10.72,10.72,0,0,1-8.8-4.77c.1-.3.21-.59.34-.89a13.71,13.71,0,0,1,6.51-4.19,14.34,14.34,0,0,1,2-.47,18.36,18.36,0,0,1,2.89-.27A9.18,9.18,0,0,1,127,57.55a9.42,9.42,0,0,1,3.12,2.84,16.18,16.18,0,0,1-3.56,4,12.49,12.49,0,0,1-4.23,2.31,10.9,10.9,0,0,1-1.15.26A11.18,11.18,0,0,1,119.57,67.06Z"/><path class="cls-8" d="M122.51,56.59h0A9,9,0,0,1,127,57.66a9.24,9.24,0,0,1,3,2.73,16.2,16.2,0,0,1-3.48,3.88,12.69,12.69,0,0,1-4.2,2.29,8.24,8.24,0,0,1-1.13.25,10.92,10.92,0,0,1-1.61.13,10.58,10.58,0,0,1-8.66-4.66c.09-.28.19-.54.3-.8a13.62,13.62,0,0,1,6.44-4.15,14,14,0,0,1,2-.47,18.52,18.52,0,0,1,2.85-.27m0-.25a17.81,17.81,0,0,0-2.92.28,14.7,14.7,0,0,0-2,.47A13.93,13.93,0,0,0,111,61.35c-.13.32-.25.64-.35,1a10.8,10.8,0,0,0,8.93,4.88,10.16,10.16,0,0,0,1.64-.13,9,9,0,0,0,1.17-.26,12.62,12.62,0,0,0,4.28-2.34,16.1,16.1,0,0,0,3.63-4.08,9.09,9.09,0,0,0-7.78-4Z"/><path class="cls-9" d="M125.74,61.56a8.22,8.22,0,0,1-1.19,4.34,11.54,11.54,0,0,1-1.93.83l-.23.07a11,11,0,0,1-1.17.26,10.34,10.34,0,0,1-4.68-.33,7.9,7.9,0,0,1-1.8-5.17,8.58,8.58,0,0,1,.31-2.3,7.4,7.4,0,0,1,.52-1.39,8,8,0,0,1,.5-.86c.49-.18,1-.32,1.5-.47a16.68,16.68,0,0,1,4-.62,18.71,18.71,0,0,1,2,0,5.79,5.79,0,0,1,.48.51,6.3,6.3,0,0,1,.92,1.42A8.36,8.36,0,0,1,125.74,61.56Z"/><g class="cls-10"><ellipse class="cls-11" cx="120.31" cy="61.47" rx="3.44" ry="3.96" transform="translate(-5.05 11.09) rotate(-5.17)"/></g><path class="cls-8" d="M122.5,56.34v.25a9.81,9.81,0,0,1,1.45.1l.52.09a8.71,8.71,0,0,1,2.49.88,8.89,8.89,0,0,1,1.35.91A10.09,10.09,0,0,1,130,60.39a17,17,0,0,1-1.68,2.19,14.93,14.93,0,0,1-1.8,1.69,14.38,14.38,0,0,1-2.08,1.41,11.85,11.85,0,0,1-1.9.82l-.21.06c-.33.09-.68.17-1.14.25a9.47,9.47,0,0,1-1.59.13,10.06,10.06,0,0,1-3-.45,10.94,10.94,0,0,1-5.7-4.21l.3-.81a13.71,13.71,0,0,1,4.46-3.37,13.47,13.47,0,0,1,2-.77,13.61,13.61,0,0,1,2-.46l.09,0a17.79,17.79,0,0,1,2.78-.26v-.25m0,0a18.7,18.7,0,0,0-2.9.28,14.36,14.36,0,0,0-2,.47,13.62,13.62,0,0,0-2,.78A13.79,13.79,0,0,0,111,61.34c-.13.33-.25.65-.36,1a11.1,11.1,0,0,0,5.9,4.41,10.33,10.33,0,0,0,3,.46,10.13,10.13,0,0,0,1.63-.13,11,11,0,0,0,1.17-.26l.23-.07a11.54,11.54,0,0,0,1.93-.83,13.69,13.69,0,0,0,2.12-1.44,15.16,15.16,0,0,0,1.83-1.71,16.89,16.89,0,0,0,1.8-2.37,10.13,10.13,0,0,0-1.83-2,8.71,8.71,0,0,0-4-1.85l-.54-.09a10.93,10.93,0,0,0-1.48-.1Z"/><ellipse cx="120.31" cy="61.47" rx="2.29" ry="2.64" transform="matrix(1, -0.09, 0.09, 1, -5.05, 11.09)"/><path class="cls-12" d="M111.37,61a9.61,9.61,0,0,1,2.46-2.65,8.51,8.51,0,0,1,2.28-1.18c.47-.18.94-.31,1.44-.46a16.64,16.64,0,0,1,4-.62c.35,0,.69,0,1,0s.61,0,.92,0a7.66,7.66,0,0,1,2.1.4,7.27,7.27,0,0,1,1.59.78,7.92,7.92,0,0,1,1,.8,10.32,10.32,0,0,1,1.48,1.67,9.37,9.37,0,0,0-1-.68,9.15,9.15,0,0,0-1.78-.87,10.92,10.92,0,0,0-2-.42l-.25,0c-.26,0-.54-.09-.85-.12a11.32,11.32,0,0,0-1.55-.1,15.64,15.64,0,0,0-4.18.61l-.09,0v0c-.82.23-1.55.48-2.16.7l-.48.18-.35.13A26.19,26.19,0,0,0,111.37,61Z"/><path class="cls-8" d="M122.57,56.15c.33,0,.63,0,.91,0a7.45,7.45,0,0,1,2.07.4,7,7,0,0,1,1.56.76,8.06,8.06,0,0,1,1,.73h0l.08.08a10.19,10.19,0,0,1,.92,1l-.27-.17a8.89,8.89,0,0,0-1.81-.88,10.58,10.58,0,0,0-2.06-.44l-.23,0-.87-.13a11.66,11.66,0,0,0-1.58-.1,15.88,15.88,0,0,0-4.2.62l-.18.06h0c-.79.23-1.49.47-2.08.68l-.48.18L115,59a25.11,25.11,0,0,0-3.17,1.55,9.51,9.51,0,0,1,2.12-2.17,8.9,8.9,0,0,1,2.25-1.17c.47-.17.94-.3,1.44-.45h0a16.6,16.6,0,0,1,3.89-.61l1,0m0-.25-1,0a16.68,16.68,0,0,0-4,.62c-.52.15-1,.29-1.5.47a8.82,8.82,0,0,0-2.31,1.2A9.9,9.9,0,0,0,111,61.34a25.74,25.74,0,0,1,4-2.08l.83-.31c.64-.23,1.39-.49,2.24-.73h0a15.73,15.73,0,0,1,4.13-.61,11.74,11.74,0,0,1,1.55.1l1.1.16a11.23,11.23,0,0,1,2,.42,9,9,0,0,1,1.76.86,10.5,10.5,0,0,1,1.63,1.24,10.92,10.92,0,0,0-2-2.42h0a9,9,0,0,0-1.06-.82,7.39,7.39,0,0,0-1.62-.79,7.93,7.93,0,0,0-2.13-.41l-.93,0Z"/><ellipse class="cls-13" cx="120.9" cy="65.65" rx="0.5" ry="1.06" transform="translate(-7.77 16.96) rotate(-7.77)"/><ellipse class="cls-14" cx="122.73" cy="64.29" rx="0.51" ry="1.04" transform="translate(-15.14 78.03) rotate(-33.34)"/><ellipse class="cls-15" cx="118.11" cy="60.21" rx="1.5" ry="0.53" transform="matrix(0.99, -0.16, 0.16, 0.99, -8.05, 19.47)"/><ellipse class="cls-16" cx="116.8" cy="61.89" rx="0.5" ry="0.53"/><path class="cls-7" d="M81.57,68.24a10.32,10.32,0,0,1-5.12-1.38,11.32,11.32,0,0,1-3.68-3.39c.11-.31.21-.6.34-.9a13.3,13.3,0,0,1,3.19-2.69,14,14,0,0,1,3.32-1.5,15.14,15.14,0,0,1,2-.47l.15,0a16.52,16.52,0,0,1,1.72-.21c.32,0,.65,0,1,0A9.29,9.29,0,0,1,89,58.72a9.64,9.64,0,0,1,3.13,2.83,16.45,16.45,0,0,1-3.56,4,12.82,12.82,0,0,1-4,2.22l-.18.06a9.66,9.66,0,0,1-1.23.29A11.19,11.19,0,0,1,81.57,68.24Z"/><path class="cls-8" d="M84.48,57.51v.25A9.16,9.16,0,0,1,89,58.83a9.33,9.33,0,0,1,3,2.73,16.2,16.2,0,0,1-3.48,3.88,12.72,12.72,0,0,1-4,2.21.94.94,0,0,1-.15.06l-.07,0a8,8,0,0,1-1.14.25,9.63,9.63,0,0,1-1.61.13,10.18,10.18,0,0,1-5.06-1.36,11.1,11.1,0,0,1-3.6-3.3c.09-.27.19-.53.3-.8A13.26,13.26,0,0,1,76.37,60a13.72,13.72,0,0,1,3.29-1.48,13.58,13.58,0,0,1,2-.46l.15,0c.48-.07,1.07-.17,1.72-.21.34,0,.67,0,1,0v-.25m0,0c-.35,0-.68,0-1,0-.73.05-1.38.16-1.89.24a14.9,14.9,0,0,0-5.35,2A13.46,13.46,0,0,0,73,62.52c-.14.32-.25.64-.36,1A11.32,11.32,0,0,0,76.39,67a10.4,10.4,0,0,0,5.18,1.39,10.28,10.28,0,0,0,1.65-.13A9.4,9.4,0,0,0,84.39,68l.26-.09a13,13,0,0,0,4-2.24,16.49,16.49,0,0,0,3.63-4.09,9.62,9.62,0,0,0-3.22-2.94,9.48,9.48,0,0,0-4.6-1.1Z"/><path class="cls-9" d="M86.52,63.21a8.22,8.22,0,0,1-1.19,4.34c-.21.11-.44.23-.68.33l-.26.09a9.4,9.4,0,0,1-1.17.26A10.39,10.39,0,0,1,76.39,67a8.33,8.33,0,0,1-.87-3.76,8.58,8.58,0,0,1,.31-2.3,7,7,0,0,1,.41-1.14,2.72,2.72,0,0,1,.11-.25,8,8,0,0,1,.5-.86c.49-.18,1-.32,1.5-.47a16.68,16.68,0,0,1,4-.62l1.18,0c.27,0,.53,0,.8,0a5.79,5.79,0,0,1,.48.51,6.3,6.3,0,0,1,.92,1.42A8.36,8.36,0,0,1,86.52,63.21Z"/><path class="cls-8" d="M84.47,57.77h0a10.52,10.52,0,0,1,2,.18,8.3,8.3,0,0,1,3.84,1.8A9.79,9.79,0,0,1,92,61.56a16.85,16.85,0,0,1-1.68,2.2,14.84,14.84,0,0,1-1.81,1.68,12.44,12.44,0,0,1-4,2.23,1.29,1.29,0,0,1-.21.06,8.56,8.56,0,0,1-1.14.25,9.71,9.71,0,0,1-1.61.13,10.58,10.58,0,0,1-8.65-4.66c.09-.27.19-.53.3-.8a13.58,13.58,0,0,1,6.45-4.15,16.3,16.3,0,0,1,2-.47,18.51,18.51,0,0,1,2.83-.26m0-.25a17.64,17.64,0,0,0-2.88.27,14.37,14.37,0,0,0-2,.48A13.84,13.84,0,0,0,73,62.52c-.13.32-.25.64-.36,1a10.83,10.83,0,0,0,8.93,4.87,10.28,10.28,0,0,0,1.65-.13A11,11,0,0,0,84.38,68l.23-.07a12.65,12.65,0,0,0,4-2.26,14.46,14.46,0,0,0,1.83-1.72,16.33,16.33,0,0,0,1.8-2.37,10,10,0,0,0-1.83-2,9.12,9.12,0,0,0-1.39-1,9,9,0,0,0-2.56-.91,11.35,11.35,0,0,0-2-.18Z"/><g class="cls-10"><ellipse class="cls-11" cx="81.3" cy="62.64" rx="3.44" ry="3.96" transform="translate(-5.31 7.58) rotate(-5.17)"/></g><ellipse cx="81.3" cy="62.64" rx="2.29" ry="2.64" transform="translate(-5.31 7.58) rotate(-5.17)"/><ellipse class="cls-13" cx="81.89" cy="66.83" rx="0.5" ry="1.06" transform="translate(-8.29 11.69) rotate(-7.77)"/><ellipse class="cls-14" cx="83.72" cy="65.47" rx="0.51" ry="1.04" transform="translate(-22.2 56.78) rotate(-33.34)"/><ellipse class="cls-15" cx="79.1" cy="61.39" rx="1.5" ry="0.53" transform="translate(-8.73 13.31) rotate(-9.12)"/><ellipse class="cls-16" cx="77.79" cy="63.06" rx="0.5" ry="0.53"/><path class="cls-12" d="M73.37,62.14a9.45,9.45,0,0,1,2.45-2.65,10.91,10.91,0,0,1,3.78-1.65,16,16,0,0,1,3.92-.62c.35,0,.7,0,1.06,0a9.07,9.07,0,0,1,3,.44,6.88,6.88,0,0,1,1.59.78,9.53,9.53,0,0,1,1,.81,9.92,9.92,0,0,1,1.48,1.67,10,10,0,0,0-1-.68,8.51,8.51,0,0,0-1.79-.88,18.48,18.48,0,0,0-3.13-.59,13,13,0,0,0-1.54-.09,15.64,15.64,0,0,0-4.19.62l-.09,0h0c-.8.22-1.51.47-2.16.71A24.63,24.63,0,0,0,73.37,62.14Z"/><path class="cls-8" d="M84.58,57.32h0a8.82,8.82,0,0,1,3,.43,7.12,7.12,0,0,1,1.57.77,7.92,7.92,0,0,1,1,.72h0l.08.08a8.44,8.44,0,0,1,.94,1l-.28-.17a9.55,9.55,0,0,0-1.81-.9,18.43,18.43,0,0,0-3.17-.59,11.32,11.32,0,0,0-1.55-.1,15.49,15.49,0,0,0-4.22.63l-.19.06h0c-.76.21-1.45.45-2.07.68a24.66,24.66,0,0,0-4,1.86,9.07,9.07,0,0,1,2.12-2.16A10.81,10.81,0,0,1,79.63,58a15.8,15.8,0,0,1,3.89-.62l1.06,0m0-.25-1.07,0a16.29,16.29,0,0,0-4,.63,11.16,11.16,0,0,0-3.81,1.67A9.78,9.78,0,0,0,73,62.52a24.17,24.17,0,0,1,4.88-2.39c.64-.24,1.39-.5,2.24-.73h0a15.48,15.48,0,0,1,4.16-.62,11.4,11.4,0,0,1,1.52.1,17.65,17.65,0,0,1,3.11.58,8.49,8.49,0,0,1,1.76.87,9.93,9.93,0,0,1,1.63,1.23,10.92,10.92,0,0,0-2-2.42,0,0,0,0,0,0,0,9,9,0,0,0-1.06-.81,7.41,7.41,0,0,0-1.62-.8,9.14,9.14,0,0,0-3-.44Z"/><path class="cls-17" d="M107.9,84.13c-3.09,2-8.07,2.69-10,.2a4.37,4.37,0,0,1-.8-2.21c-.73-5.43.29-10.05.91-16.07.6-5.8.24-7.3-.37-8.58-1-2-2.27-2.76-2-3.86.57-2,5.44-1.84,5.94-1.83,1.75,0,4.9.11,5.6,1.79.8,1.92-2.61,3.52-4.2,8.11-2,5.9,0,13.67,3.24,15,1,.37,2.27.32,3.32,1.55a3.78,3.78,0,0,1,.92,2.54C110.42,82.47,108.78,83.54,107.9,84.13Z"/><ellipse class="cls-17" cx="97.22" cy="82.66" rx="3.7" ry="3.17" transform="translate(8.73 174.61) rotate(-86.47)"/><path class="cls-5" d="M137.29,59.55c-.29,0,.66-3.06-1-5.28-1.37-1.83-3.21-1.39-4-3.18-.63-1.43.34-2.21,0-4.23a4.42,4.42,0,0,0-.33-1.13c-.65-1.53-1.91-2.19-2.67-3.63h0c-1.85-3.52.37-9.85,2.79-11.66a2.16,2.16,0,0,1,1.21-.49,2.39,2.39,0,0,1,1.8,1c2,2.21,3.57,7.6,4.2,11.15C141,51.54,137.76,59.63,137.29,59.55Z"/><path class="cls-4" d="M52.29,38.4c-1,4.88,3.14,12.68,6,12.69.83,0,1.16-.64,3-1.05,2.38-.54,3.1.26,5,0a8.66,8.66,0,0,0,6-4.23c1.4-2.5.53-4.34,2-5.29.89-.58,2-.38,4,0,2.57.47,2.74,1.13,4,1.06,2.19-.14,4.13-2.29,5-4.24,1.3-2.89-.24-4.28,1-6.34,1-1.71,2.71-1.8,7-3.17.52-.17,8.09-2.61,8-3.18C103.07,23.26,55.19,24.38,52.29,38.4Z"/><path class="cls-17" d="M110.29,96.57c-.07.79-4.35,1.3-8,1.06-5.94-.4-10.63-2.84-10.55-3.07a45.63,45.63,0,0,0,5,1c3.59.39,6.33.68,9,0a5.31,5.31,0,0,1,3,0C109.24,95.72,110.33,96.16,110.29,96.57Z"/><path class="cls-18" d="M136.29,36.82c-.39,1.76-2,1.5-3,3.7-.56,1.27-.19,1.77-1,4.23-.12.38-.23.71-.33,1-.65-1.53-1.91-2.19-2.67-3.63h0a16.05,16.05,0,0,1,0-5.27,15.47,15.47,0,0,1,2.79-6.39c1.37-1.84,2.78-2.86,3.21-2.6s-.17,1.3-.2,3.12a9.08,9.08,0,0,0,.2,2.16C135.74,35.19,136.56,35.59,136.29,36.82Z"/><path class="cls-5" d="M135.29,36.29c-.69,1.77-3.1,1.18-4,3.17-.67,1.48.43,2.34,0,4.23-.62,2.75-3.81,4.93-5,4.23s.81-4.13-1-7.4c-1.14-2.05-2.37-1.47-5-4.23s-2.13-4.32-4-5.29c-3.08-1.61-6,1.65-8,0-1.79-1.46-.15-4.51-2-6.35a1.71,1.71,0,0,0-.25-.22,3.57,3.57,0,0,0-2.73-.57c-1.83.19-3.77.95-5-.26-2.23-2.18-.6-9.12,3-12.7A11,11,0,0,1,103,9.54a12.59,12.59,0,0,1,1.29-.75l.59-.29a30.38,30.38,0,0,1,4.41-1.83,6.15,6.15,0,0,1,4,0c1.62.7,1.57,1.89,3,2.12,1.27.21,2-.61,3,0,.45.28.37.51,1,1.06.84.72,1.32.6,2,1.05,1.38.91.74,2.25,2,3.18s2.16,0,3,1.05a7.76,7.76,0,0,0,1.07,1.47,7.66,7.66,0,0,0,.93.65c2,1.85.78,3.7,3,6.35,1.48,1.76,2.67,1.71,3,3.17s-.86,2-1,4.23C134.11,33.78,135.91,34.69,135.29,36.29Z"/><path class="cls-18" d="M107.29,16.19A22.26,22.26,0,0,1,106,24.43a3.57,3.57,0,0,0-2.73-.57,24.63,24.63,0,0,1-1-7.67A27.88,27.88,0,0,1,103,9.54a12.59,12.59,0,0,1,1.29-.75A12.37,12.37,0,0,1,106.08,8,22.85,22.85,0,0,1,107.29,16.19Z"/><path class="cls-5" d="M53.29,27.83c-1,3.43-2.74,3.38-4,6.34a9.45,9.45,0,0,0-.55,1.94c-.78,3.8-.63,5.42-1,7.45-.89,4.76-3.39,4.89-3,8,.23,1.87,1.14,1.87,2,5s.17,3.9,1,5c1.7,2.27,7.42,2.62,10,0,3.37-3.44-.77-10,2.55-12.58,2.32-1.79,4.8.68,8-1.06,3.95-2.15,2.46-7.8,6-9.52s7,2.92,10,1.06c2.45-1.53.8-5.05,3-8.46,3.79-5.88,12.42-1.23,17-6.88,3.84-4.73,1.77-12.9,0-16.39-.53-1-1.39-2.7-3-3.17s-2.38.85-5,1.06-3-1-6-1.06c-2.17,0-2.16.64-5,1.06-4.2.62-4.89-.72-8,0s-2.43,1.92-6,3.17c-4.3,1.5-6.41.16-8,2.11-1.25,1.54-.51,3.06-2,4.23s-2.37.12-4,1.06-2.35,3.11-3,5.29C53.33,24.73,54.06,25.32,53.29,27.83Z"/><path class="cls-5" d="M54.05,70.22c1.48,4.79,4.33,6.81,3.66,7.6-.85,1-6-1.54-8.75-5.74a9.85,9.85,0,0,1-1.81-4.32c-.26-2,.42-2.69.24-5.29-.15-2.33-.73-2.32-.8-4.27S47,52.73,48.87,52c1.21-.49,2.89.16,4,1.26C56.05,56.59,51.57,62.21,54.05,70.22Z"/><path class="cls-19" d="M49.52,71.74a25.39,25.39,0,0,0,3.41,8.71c1.64,2.61,4.72,7.69,7.44,7,2.31-.57,4-5.18,3.14-8.48-.53-2-1.71-2.4-1.77-4.25-.08-2.32,1.7-3.18,2.51-5.31,1.57-4.18-1.2-11.79-6.14-12.84-3-.65-6.25,1.33-7.89,3.73C48,63.6,48.72,67.61,49.52,71.74Z"/><path class="cls-20" d="M53.23,74.39c.36.94,1,2.47,2.09,2.67.59.1.84-.27,1.87-.24a3.65,3.65,0,0,1,2.08.61c1,.74.83,1.71,1.69,2a1.38,1.38,0,0,0,1.58-.37c.35-.6-.52-1.4-1.06-2.7a5,5,0,0,1-.33-1.09c-.21-1.17.22-1.31.71-3.87,0-.08,0-.16,0-.24.42-2.2.94-5.42-.51-8.4-.2-.41-2-4.12-4.85-4.14S51.69,62.3,51,64.84C50.46,67.15,51.4,69.57,53.23,74.39Z"/><path class="cls-17" d="M58.32,74.71c.21,1.29,1.92,2.41,2.82,2a.79.79,0,0,0,.34-.29,5,5,0,0,1-.33-1.09c-.21-1.17.22-1.31.71-3.87,0-.08,0-.16,0-.24C60.93,70.82,58,72.81,58.32,74.71Z"/><path class="cls-3" d="M49.29,202.33A87.65,87.65,0,0,1,48,218.89c-.39-2.51-.93-5.21-1.67-8.1-.56-2.19-1.19-4.24-1.86-6.15l-.3-.86q-.85-2.37-1.8-4.48c.24-10.25,1.7-18.12,3.46-18.12C47.72,181.18,49.29,190.64,49.29,202.33Z"/><path class="cls-2" d="M47.29,189.64c.53,11.67-.74,26-4,26.44-2.15.29-2.77-5.8-10-13.75-3.57-3.93-7.82-8.6-14-9.52-5.49-.81-8.38,1.88-10,0-1.32-1.54-.07-4.22,4-15.86,1.63-4.66,2.76-8,5-13.75,3.52-9,4.92-11.33,7-11.63.42-.07.82,0,6,2.11a43.3,43.3,0,0,1,5,2.12C38.28,157.36,46.2,165.39,47.29,189.64Z"/><path class="cls-6" d="M91.74,51.56v-3a21.09,21.09,0,0,0-5.25-1,22.79,22.79,0,0,0-10.5,2,25.41,25.41,0,0,0-5.25,3,36,36,0,0,1,9.45-2A36.43,36.43,0,0,1,91.74,51.56Z"/><ellipse class="cls-1" cx="120.24" cy="68.06" rx="6.5" ry="1.5"/><ellipse class="cls-1" cx="80.24" cy="69.06" rx="6.5" ry="1.5"/></g></g></svg>