<svg xmlns="http://www.w3.org/2000/svg" xmlns:xlink="http://www.w3.org/1999/xlink" viewBox="0 0 182.95 240.56"><defs><style>.cls-1{fill:#f0d5b6;}.cls-2{fill:gray;}.cls-3{fill:#737373;}.cls-4{fill:#e8c59c;opacity:0.51;}.cls-5{fill:#ffedb8;}.cls-6{fill:#b5a576;}.cls-7{fill:#f2f2f2;}.cls-8{fill:#a67c52;}.cls-9{fill:#6b8eaa;}.cls-10{opacity:0.56;}.cls-11{fill:#00634c;}.cls-12{fill:#c69c6d;}.cls-13,.cls-14{fill:#f7931e;}.cls-13{opacity:0.1;}.cls-14{opacity:0.12;}.cls-15,.cls-16{fill:#f7f7f7;}.cls-15{opacity:0.29;}.cls-16{opacity:0.4;}.cls-17{fill:#dbb993;}.cls-18{fill:#edd696;}.cls-19{fill:#f0d1ad;}.cls-20{fill:#e6c6a3;}.cls-21,.cls-22{opacity:0.35;}.cls-21{fill:url(#Naamloos_verloop_8);}.cls-22{fill:url(#Naamloos_verloop_8-2);}</style><radialGradient id="Naamloos_verloop_8" cx="260.25" cy="92.23" r="6.97" gradientTransform="translate(-288.13 22.98) scale(1.41 0.56)" gradientUnits="userSpaceOnUse"><stop offset="0" stop-color="#ff7bac"/><stop offset="0.48" stop-color="#ff7bac" stop-opacity="0.43"/><stop offset="0.87" stop-color="#ff7bac" stop-opacity="0"/></radialGradient><radialGradient id="Naamloos_verloop_8-2" cx="290" cy="91.12" r="6.97" gradientTransform="translate(-288.13 22.61) scale(1.41 0.56)" xlink:href="#Naamloos_verloop_8"/></defs><g id="Laag_2" data-name="Laag 2"><g id="Laag_2-2" data-name="Laag 2"><path d="M183,240.56H45.67c-.08-.36-.16-.74-.23-1.15,0-.25-.09-.5-.13-.76v-.05c-.06-.39-.12-.79-.16-1.19s-.09-.77-.12-1.17-.07-.81-.11-1.23l-.06-.83V234c0-.32,0-.66-.07-1v-.11l0-.52c0-.24,0-.47,0-.7l0-.54v-.06L44.63,230c-.06-1-.13-2.2-.23-3.44-.89,4.69-1.93,9.37-3.1,14H0V240a175.26,175.26,0,0,1,5.34-45.64c-1.57-2.35-1-5-.68-6.16.45-1.91,1.35-4.43,2.83-8.6.46-1.32,1-2.79,1.56-4.44l.74-2.12c1.28-3.69,2.39-6.87,4.31-11.76,2.69-6.9,4.12-9.82,5.73-11.63A33.84,33.84,0,0,1,25.06,143c3.64-3.52,6.91-4.41,14.8-6.54l2.93-.79c3.79-1,6.71-1.88,9.05-2.55,5.06-1.46,7.37-2.12,9.45-2.12a8.66,8.66,0,0,1,2.44.34l2.37-.52a57.1,57.1,0,0,0,2.8-11c.75-4.63,1.53-9.42.72-12.69l0-.11c-4.37-2.38-6.94-4.53-9-7.54a25.32,25.32,0,0,1-3.87-9C53.39,89,51,85.14,49.25,82.39l-.16-.26a29.07,29.07,0,0,1-3.31-7.42c-.23-.3-.43-.59-.61-.86a13.65,13.65,0,0,1-2.43-6,11.16,11.16,0,0,1,.1-3.54,7.69,7.69,0,0,0,.11-2A4.4,4.4,0,0,0,42.69,61a10,10,0,0,1-.55-3.05c0-.51,0-1,0-1.59a7.32,7.32,0,0,0-.59-1.19,8.44,8.44,0,0,1-1.26-3.52A8.34,8.34,0,0,1,42,45.45a6.91,6.91,0,0,0,1.32-3.07,20.52,20.52,0,0,0,.24-2,43.87,43.87,0,0,1,.78-5.45,12,12,0,0,1,.79-2.73,13,13,0,0,1,2.61-3.91,4.23,4.23,0,0,0,1.24-2,5.47,5.47,0,0,0,.25-1.74A16.69,16.69,0,0,1,50,19.91c.76-2.59,1.71-5.81,4.84-7.63a7.58,7.58,0,0,1,3.3-1,8.1,8.1,0,0,1,1.6-3.36c2-2.42,4.43-2.59,6.22-2.72a12.38,12.38,0,0,0,3.56-.64,5.52,5.52,0,0,0,2-1.11,9.67,9.67,0,0,1,4.42-2.18A11.54,11.54,0,0,1,78.63,1,14,14,0,0,1,81,1.18a10.89,10.89,0,0,0,1.72.16,11.28,11.28,0,0,0,1.55-.12A8.44,8.44,0,0,0,86.13.75,9.92,9.92,0,0,1,89.75.11h.12a12.43,12.43,0,0,1,4.41.83,2.56,2.56,0,0,0,1,.26h.22A4.25,4.25,0,0,0,97,.77,7.69,7.69,0,0,1,100.12,0,6.59,6.59,0,0,1,102,.28,7.79,7.79,0,0,1,105.89,3a13.86,13.86,0,0,1,2-.69,13.36,13.36,0,0,1,3.18-.45,8.33,8.33,0,0,1,3.35.68,7.59,7.59,0,0,1,2.43,1.67,6.53,6.53,0,0,1,1.19-.12A5.44,5.44,0,0,1,121,5a5.07,5.07,0,0,1,1.45,1.37,6.76,6.76,0,0,1,1.61.78,6.08,6.08,0,0,1,2.43,3.07,5.46,5.46,0,0,1,3.44,1.94l0,0,0,0a7.09,7.09,0,0,1,.64,1s0,0,0,0a4.89,4.89,0,0,1,.94.68,8.63,8.63,0,0,1,2.57,4.89,3.42,3.42,0,0,0,.77,1.82c.1.12.19.21.28.3,3.4,1.37,5.82,3.78,6.52,6.57a8.53,8.53,0,0,1-.07,4c0,.18-.09.41-.11.57h0a7.22,7.22,0,0,1,2.92,3.16,8.28,8.28,0,0,1-.19,6.84,4.7,4.7,0,0,0-.49,2.64,2.25,2.25,0,0,0,.52,1.12,7.78,7.78,0,0,1,1.53,5,8.07,8.07,0,0,1-1.61,4.54c-.35.51-.37.54-.4,1a4.54,4.54,0,0,0,.1,1.31,9.24,9.24,0,0,1-.32,5,8.29,8.29,0,0,1-.89,1.8l0,0v0c-.06.21-.06.24,0,.84A9.76,9.76,0,0,1,140,73.88c-2,15.92-7.3,26.26-11.34,30.35a75.5,75.5,0,0,1-6.39,5.63,62.81,62.81,0,0,1-10.75,6.8,22.34,22.34,0,0,1-5.06,1.7c.07.39.16.79.25,1.2a32.91,32.91,0,0,0,4.15,10.22l.26,0,0-.64,4.6,1.13a120.67,120.67,0,0,0,18.39,3.08l.91.07c3.21.26,6.25.51,9.78,2.57,5.2,3.06,7.87,8.05,9.47,11l0,.05a36.86,36.86,0,0,1,2.21,4.94,40.51,40.51,0,0,1,2.82,5.65l.14.33c.65,1.54,1.28,3,1.88,4.32a167.65,167.65,0,0,1,8,16l1.16,2.18c2.46,4.62,4.41,8.26,5.6,11.22.64,1.57,2.14,5.28.7,8.21a173.1,173.1,0,0,1,6.09,39.89Z"/><path class="cls-1" d="M114.84,145.22c-3.1,9.56-43.31,8.19-47-4.23-1.23-4.15,2.69-5.88,5-20.09,1-6.1,1.79-11.35.3-15.49a10.37,10.37,0,0,0-1.3-2.49,28.43,28.43,0,0,1-2-2.85,11.56,11.56,0,0,1-1-2.44,13.89,13.89,0,0,1,0-7.41c2.27-7.43,16.71-12.79,24.5-7.4,4.36,3,5.41,8.72,7.5,20.1.1.57.2,1.11.28,1.61,1.23,7.41.56,9.54,1.25,13.93.11.73.26,1.54.47,2.44C106.42,136.46,116.47,140.19,114.84,145.22Z"/><path class="cls-1" d="M138.84,193.87c.29,1.47.61,2.92.95,4.32-2-2.33-4-3.27-5.56-8.49-2.08-7-.35-13,.56-20.54.66-5.44,1.76-10.39,3.36-13.87-2.16,8-1.5,20.28-1.31,23.77A97.66,97.66,0,0,0,138.84,193.87Z"/><path class="cls-1" d="M178.93,240.41H150.54l-.15.15h-1l-.08-.15c-.24-.48-.85-1.6-.87-1.63-.55-1.05-.85-13.33-2.74-24.32v0s0-.07,0-.1v0a1.55,1.55,0,0,1,0-.21l-.24-1.3a.77.77,0,0,0,.17.07.4.4,0,0,0,.15,0h.12a.4.4,0,0,0,.21-.09.27.27,0,0,0,.08-.07,1.6,1.6,0,0,0,.32-.51c.05-.11.1-.24.15-.38s.06-.18.1-.28.08-.28.13-.42a23,23,0,0,1,1.72-4.37c.09-.17.19-.35.3-.53s.39-.66.61-1c.1-.16.2-.31.31-.46.32-.46.67-.93,1.07-1.41.73-.88,4.44-5.34,10-6.35,6.21-1.11,9.59,3,11.56,2.37A169.56,169.56,0,0,1,178.93,240.41Z"/><path class="cls-2" d="M172.4,199.41c-2,.63-5.35-3.48-11.56-2.37-5.56,1-9.27,5.47-10,6.35-4.23,5.1-3.82,9.33-5,9.52a.68.68,0,0,1-.44-.1,52.44,52.44,0,0,0-2.56-9.42,17.31,17.31,0,0,0-3.05-5.2c-.34-1.4-.66-2.85-.95-4.32a97.66,97.66,0,0,1-2-14.81c-.19-3.49-.85-15.78,1.31-23.77l0,0c1.26-2.71,2.82-4.52,4.73-4.95,3.51-.81,7.58,3.18,11.34,8.59v0c1.24,1.79,2.45,3.73,3.6,5.71a165.75,165.75,0,0,1,7.85,15.76c.36.85.62,1.46.75,1.78A157,157,0,0,1,172.4,199.41Z"/><path class="cls-2" d="M142.84,203.39a52.44,52.44,0,0,1,2.56,9.42c-1.53-.88-3.8-7-5.61-14.62A17.31,17.31,0,0,1,142.84,203.39Z"/><path class="cls-2" d="M155.84,160q1,2.35,2,4.6c-1.15-2-2.36-3.92-3.6-5.71v0c-3.76-5.41-7.83-9.4-11.34-8.59-1.91.43-3.47,2.24-4.73,4.95.93-3.46,2.4-6.1,4.67-6.87a5.26,5.26,0,0,1,3,0C151.61,149.74,154.66,157.2,155.84,160Z"/><path class="cls-2" d="M172.84,199.16a1.77,1.77,0,0,1-.44.25,157,157,0,0,0-6-17.24c-.13-.32-.39-.93-.75-1.78C171.12,190.64,175,197.37,172.84,199.16Z"/><path class="cls-1" d="M145.84,229.83c.16,2.41.46,6.08,1.12,10.58H49.63c-1.5-6.23-.22-15.79-3.79-29.62-.56-2.19-1.19-4.24-1.86-6.15l-.3-.86c-8.2-22.65-22.57-26.95-20.84-39.52a17.5,17.5,0,0,1,1.06-4v0c3-7.46,11.16-13.69,21.6-18.33,2.45-1.1,5-2.09,7.69-3,3.31-1.14,6.76-2.13,10.27-3a120.07,120.07,0,0,1,26.87-3.39,118.32,118.32,0,0,1,19.26,1.54h0a105.15,105.15,0,0,1,22.25,6,70.24,70.24,0,0,1,7.65,3.61c7.26,4,12.68,9.13,14.73,15.19v0a16,16,0,0,1,.59,2.16c1.94,9.86-6.26,14.81-7.1,28.08,0,.06,0,.06,0,.22-.24,5.11-.77,8.86-.89,9.78A178.91,178.91,0,0,0,145.84,229.83Z"/><path class="cls-1" d="M44.35,193.57c-.13,3.38-.36,6.78-.67,10.21a239,239,0,0,1-6.36,36.63H4c-.23-16.8,2-36.35,8.07-54.2a140.33,140.33,0,0,1,11.81-26C28.34,153,33,148,36.59,148.82,45.81,151,44.5,189.77,44.35,193.57Z"/><ellipse class="cls-3" cx="141.84" cy="197.04" rx="6" ry="19.03" transform="translate(-14.43 11.24) rotate(-4.32)"/><path class="cls-2" d="M49.63,240.42a51.53,51.53,0,0,1-1-8.9,119.3,119.3,0,0,0-1.18-12.62c-.41-2.66-1-5.39-1.67-8.1-.53-2.08-1.15-4.15-1.85-6.16l-.31-.85s-.83-2.32-1.79-4.49c-3.56-8-8.34-12.78-12.55-17-4.49-4.53-8.36-8.44-9.5-14.83a22.46,22.46,0,0,1,0-7.41,33.67,33.67,0,0,1,2-5.29,35.05,35.05,0,0,1,6-8.46c2.89-2.81,5.45-3.5,13.05-5.55l2.95-.8c3.81-1,6.76-1.89,9.09-2.56,4.7-1.35,6.85-2,8.37-2a4.83,4.83,0,0,1,2.18.52c3.06,1.41,4,3.72,5.17,6.4a23.59,23.59,0,0,0,4.21,7.13c3.9,4.38,10.85,7.1,18.14,7.1s13.67-2.59,17.84-7.1c2.34-2.54,5.29-7.18,6-14.8a126.34,126.34,0,0,0,19,3.16l.89.07c3,.25,5.37.44,8.12,2,4.26,2.5,6.51,6.73,8,9.52a35.54,35.54,0,0,1,3.4,9.45,14.63,14.63,0,0,1,.6,2.19c1,5.18-.75,9-2.8,13.4-1.82,3.93-3.9,8.39-4.3,14.68,0,.07,0,.07,0,.22-.22,4.77-.7,8.37-.86,9.56l0,.22a181.23,181.23,0,0,0-1,30.67c.24,3.62.61,7.08,1.12,10.57v0Z"/><path class="cls-2" d="M49.63,240.42a51.53,51.53,0,0,1-1-8.9,119.3,119.3,0,0,0-1.18-12.62c-.41-2.66-1-5.39-1.67-8.1-.53-2.08-1.15-4.15-1.85-6.16l-.31-.85s-.83-2.32-1.79-4.49c-3.56-8-8.34-12.78-12.55-17-4.49-4.53-8.36-8.44-9.5-14.83a22.46,22.46,0,0,1,0-7.41,33.67,33.67,0,0,1,2-5.29,35.05,35.05,0,0,1,6-8.46c2.89-2.81,5.45-3.5,13.05-5.55l2.95-.8c3.81-1,6.76-1.89,9.09-2.56,4.7-1.35,6.85-2,8.37-2a4.83,4.83,0,0,1,2.18.52c3.06,1.41,4,3.72,5.17,6.4a23.59,23.59,0,0,0,4.21,7.13c3.9,4.38,10.85,7.1,18.14,7.1s13.67-2.59,17.84-7.1c2.34-2.54,5.29-7.18,6-14.8a126.34,126.34,0,0,0,19,3.16l.89.07c3,.25,5.37.44,8.12,2,4.26,2.5,6.51,6.73,8,9.52a35.54,35.54,0,0,1,3.4,9.45,14.63,14.63,0,0,1,.6,2.19c1,5.18-.75,9-2.8,13.4-1.82,3.93-3.9,8.39-4.3,14.68,0,.07,0,.07,0,.22-.22,4.77-.7,8.37-.86,9.56l0,.22a181.23,181.23,0,0,0-1,30.67c.24,3.62.61,7.08,1.12,10.57v0Z"/><path class="cls-2" d="M147.74,189.16c0,.07,0,.07,0,.22-.24,5.1-.77,8.86-.89,9.78a178.91,178.91,0,0,0-1,30.67c.16,2.41.46,6.08,1.12,10.58H49.63c-1.19-4.93-.63-12-2.12-21.52-.39-2.51-.93-5.21-1.67-8.1-.56-2.19-1.19-4.24-1.86-6.15l-.3-.86s-.82-2.29-1.8-4.48c-7.33-16.42-19.84-19.48-22-31.87a21.7,21.7,0,0,1,0-7.4,32,32,0,0,1,2-5.29,34.45,34.45,0,0,1,6-8.46c3.24-3.14,6.09-3.64,16-6.35,15.55-4.25,16.84-5.3,19.63-4,5.44,2.52,4.21,7.73,9.37,13.53,7.8,8.77,26.61,10.15,36,0,1.58-1.71,5.21-6.25,6-14.81a122.86,122.86,0,0,0,19,3.18c3.42.29,6,.34,9,2.11,4.26,2.5,6.51,6.72,8,9.52a35.54,35.54,0,0,1,3.4,9.45h0a16,16,0,0,1,.59,2.16C156.78,170.94,148.58,175.89,147.74,189.16Z"/><path class="cls-4" d="M102.37,119.46c-3.25-1.28-7.68-3.17-13.4-5.62a161.21,161.21,0,0,1-15.83-7.43,10.37,10.37,0,0,0-1.3-2.49,28.43,28.43,0,0,1-2-2.85,7,7,0,0,1,1.15-.86c4.83-3.07,14.69-1.65,20.07,0a31.15,31.15,0,0,1,10.05,5.29C102.35,112.94,101.68,115.07,102.37,119.46Z"/><path class="cls-5" d="M139.84,61.67c-.37,1.06-.7,1-1,2.11-.51,1.81.18,2.63,0,4.24-.26,2.36-2.19,4.49-3,4.23s.18-3-1-5.29c-1.7-3.35-6.18-2.62-9-4.23-8.6-4.92-7-34.75,2-38.08,3.57-1.32,9.24,1.21,10,4.23.44,1.77-.9,3.21,0,5.29.81,1.88,2.21,1.5,3,3.17,1.21,2.6-1.68,4.55-1,8.47.47,2.75,2.09,2.9,2,5.28s-1.74,2.47-2,5.29C139.63,58.61,140.57,59.58,139.84,61.67Z"/><path class="cls-1" d="M136.84,59.55c.31,23.82-7,38.2-11,42.31a70.14,70.14,0,0,1-6,5.29,58.69,58.69,0,0,1-10,6.34c-9.84,4.61-19.34-.61-34-7.4-7.33-3.4-10-5.56-12-8.46-3.87-5.58-3.93-11.85-4-14.81-.76-31.94-10.5-38.56-4-51.82,7.9-16.13,28.65-19.28,34-20.1,5.9-.9,25.61-3.9,38,9.52C136.23,29.52,136.59,40.94,136.84,59.55Z"/><path class="cls-6" d="M112.28,49.56v-3a19.13,19.13,0,0,1,5-1,20.83,20.83,0,0,1,10,2,24.27,24.27,0,0,1,5,3,32.89,32.89,0,0,0-20-1Z"/><path class="cls-7" d="M119.12,67.06a10.71,10.71,0,0,1-8.8-4.77c.1-.3.21-.59.34-.89a13.68,13.68,0,0,1,6.5-4.19,13.39,13.39,0,0,1,2-.46,16.91,16.91,0,0,1,2.89-.29,9.12,9.12,0,0,1,4.51,1.09,9.35,9.35,0,0,1,3.13,2.84,16.38,16.38,0,0,1-3.56,4,12.81,12.81,0,0,1-4.24,2.31,8.55,8.55,0,0,1-1.15.25A9.74,9.74,0,0,1,119.12,67.06Z"/><path class="cls-8" d="M122.05,56.59a9,9,0,0,1,4.45,1.07,9.24,9.24,0,0,1,3,2.73,16,16,0,0,1-3.49,3.88,12.53,12.53,0,0,1-4.19,2.29,8.4,8.4,0,0,1-1.14.25,10.79,10.79,0,0,1-1.6.13,10.57,10.57,0,0,1-8.66-4.67c.09-.27.19-.53.3-.79a13.62,13.62,0,0,1,6.44-4.15,14,14,0,0,1,2-.47,18.5,18.5,0,0,1,2.84-.27m0-.25a17.79,17.79,0,0,0-2.91.28,14.36,14.36,0,0,0-2,.47,13.86,13.86,0,0,0-6.59,4.26q-.2.48-.36,1a10.84,10.84,0,0,0,8.94,4.88,10.16,10.16,0,0,0,1.64-.13,9,9,0,0,0,1.17-.26,12.73,12.73,0,0,0,4.28-2.34,16.3,16.3,0,0,0,3.63-4.08,9.09,9.09,0,0,0-7.79-4Z"/><path class="cls-9" d="M125.28,61.56a8.22,8.22,0,0,1-1.19,4.34,11.54,11.54,0,0,1-1.93.83l-.23.07a11,11,0,0,1-1.17.26,10.34,10.34,0,0,1-4.68-.33,7.9,7.9,0,0,1-1.8-5.17,8.58,8.58,0,0,1,.31-2.3,7.4,7.4,0,0,1,.52-1.39,8,8,0,0,1,.5-.86c.49-.18,1-.32,1.5-.47a16.68,16.68,0,0,1,4-.62,18.71,18.71,0,0,1,2,0,5.79,5.79,0,0,1,.48.51,6.3,6.3,0,0,1,.92,1.42A8.36,8.36,0,0,1,125.28,61.56Z"/><g class="cls-10"><ellipse class="cls-11" cx="119.85" cy="61.47" rx="3.44" ry="3.96" transform="translate(-5.05 11.05) rotate(-5.17)"/></g><path class="cls-8" d="M122.05,56.34v.25a9.9,9.9,0,0,1,1.45.1l.52.09a8.65,8.65,0,0,1,2.48.88,8,8,0,0,1,1.35.91,9.5,9.5,0,0,1,1.69,1.82,17,17,0,0,1-1.68,2.19,14.29,14.29,0,0,1-1.81,1.69A13.77,13.77,0,0,1,124,65.68a12.25,12.25,0,0,1-1.9.82l-.22.06a10.75,10.75,0,0,1-1.14.25,9.36,9.36,0,0,1-1.58.13,10.06,10.06,0,0,1-3-.45,10.86,10.86,0,0,1-5.7-4.21q.14-.41.3-.81a13.6,13.6,0,0,1,4.46-3.37,13.05,13.05,0,0,1,2-.77,13.32,13.32,0,0,1,2-.46l.09,0a17.79,17.79,0,0,1,2.78-.26v-.25m0,0a19,19,0,0,0-2.91.28,14.36,14.36,0,0,0-2,.47,13.62,13.62,0,0,0-2,.78,13.79,13.79,0,0,0-4.57,3.47c-.13.33-.25.65-.36,1a11.1,11.1,0,0,0,5.9,4.41,10.4,10.4,0,0,0,3.06.46,9.92,9.92,0,0,0,1.62-.13,11,11,0,0,0,1.17-.26l.23-.07a11.54,11.54,0,0,0,1.93-.83,13.69,13.69,0,0,0,2.12-1.44A15.16,15.16,0,0,0,128,62.75a16.89,16.89,0,0,0,1.8-2.37,10.13,10.13,0,0,0-1.83-2,8.71,8.71,0,0,0-3.95-1.85l-.54-.09a10.79,10.79,0,0,0-1.47-.1Z"/><ellipse cx="119.85" cy="61.47" rx="2.29" ry="2.64" transform="translate(-5.05 11.05) rotate(-5.17)"/><path class="cls-12" d="M110.92,61a9.61,9.61,0,0,1,2.46-2.65,8.45,8.45,0,0,1,2.27-1.18c.48-.18.95-.31,1.45-.46a17,17,0,0,1,4-.63l1,0c.31,0,.61,0,.92,0a7.9,7.9,0,0,1,2.1.41,6.71,6.71,0,0,1,1.6.78,9.52,9.52,0,0,1,1,.8,10.83,10.83,0,0,1,1.48,1.67,9.37,9.37,0,0,0-1-.68,9.23,9.23,0,0,0-1.79-.87,10.57,10.57,0,0,0-2-.42l-.24,0c-.26,0-.55-.09-.86-.12a11.46,11.46,0,0,0-1.56-.11,15.61,15.61,0,0,0-4.17.62l-.09,0v0c-.82.23-1.55.48-2.16.7l-.48.18-.35.13A27.35,27.35,0,0,0,110.92,61Z"/><path class="cls-8" d="M122.11,56.15c.34,0,.64,0,.92,0a7.31,7.31,0,0,1,2.06.4,6.58,6.58,0,0,1,1.56.76,7.33,7.33,0,0,1,1,.73h0l.09.08a10.19,10.19,0,0,1,.92,1l-.27-.17a8.89,8.89,0,0,0-1.81-.88,10.58,10.58,0,0,0-2.06-.44l-.23,0-.87-.13a11.87,11.87,0,0,0-1.58-.1,15.82,15.82,0,0,0-4.2.62l-.19.06h0c-.79.23-1.49.47-2.07.68l-.48.18-.36.14a24.46,24.46,0,0,0-3.17,1.55,9.11,9.11,0,0,1,2.12-2.17,8.9,8.9,0,0,1,2.25-1.17c.47-.17.93-.3,1.43-.45h.05a16.6,16.6,0,0,1,3.89-.61l1,0m0-.25-1,0a16.68,16.68,0,0,0-4,.62c-.52.15-1,.29-1.5.47a8.82,8.82,0,0,0-2.31,1.2,9.9,9.9,0,0,0-2.76,3.13,25.74,25.74,0,0,1,4-2.08l.83-.31c.64-.23,1.39-.49,2.24-.73h0a15.81,15.81,0,0,1,4.14-.61,11.59,11.59,0,0,1,1.54.1l1.1.16a11.23,11.23,0,0,1,2,.42,9,9,0,0,1,1.76.86,10.5,10.5,0,0,1,1.63,1.24,10.92,10.92,0,0,0-2-2.42h0a9,9,0,0,0-1.06-.82,7.39,7.39,0,0,0-1.62-.79,7.93,7.93,0,0,0-2.13-.41q-.47,0-.93,0Z"/><ellipse class="cls-13" cx="120.44" cy="65.65" rx="0.5" ry="1.06" transform="translate(-7.77 16.89) rotate(-7.77)"/><ellipse class="cls-14" cx="122.27" cy="64.29" rx="0.51" ry="1.04" transform="translate(-15.21 77.78) rotate(-33.34)"/><ellipse class="cls-15" cx="117.65" cy="60.21" rx="1.5" ry="0.53" transform="translate(-8.05 19.4) rotate(-9.12)"/><ellipse class="cls-16" cx="116.34" cy="61.89" rx="0.5" ry="0.53"/><path class="cls-7" d="M81.12,68.24A10.32,10.32,0,0,1,76,66.86a11.13,11.13,0,0,1-3.68-3.39c.1-.31.21-.6.34-.9a13.14,13.14,0,0,1,3.19-2.69,14,14,0,0,1,3.32-1.5,15.38,15.38,0,0,1,2-.47l.15,0c.48-.08,1.08-.17,1.73-.22.32,0,.65,0,1,0a9.22,9.22,0,0,1,4.53,1.08,9.55,9.55,0,0,1,3.13,2.83,16.41,16.41,0,0,1-3.55,4,12.9,12.9,0,0,1-4,2.22l-.17.07a10.61,10.61,0,0,1-1.24.28A11,11,0,0,1,81.12,68.24Z"/><path class="cls-8" d="M84,57.51v.25a9.09,9.09,0,0,1,4.47,1.07,9.36,9.36,0,0,1,3,2.73,16.2,16.2,0,0,1-3.48,3.88,12.85,12.85,0,0,1-4,2.21.76.76,0,0,1-.16.06l-.07,0a7.76,7.76,0,0,1-1.14.25,9.59,9.59,0,0,1-1.6.13,10.18,10.18,0,0,1-5.06-1.36,11.1,11.1,0,0,1-3.6-3.3c.09-.27.18-.53.3-.8A13.26,13.26,0,0,1,75.92,60a13.72,13.72,0,0,1,3.29-1.48,13.27,13.27,0,0,1,2-.46l.15,0c.48-.07,1.07-.17,1.72-.21.34,0,.67,0,1,0v-.25m0,0c-.35,0-.69,0-1,0-.73.05-1.38.16-1.89.24a14.9,14.9,0,0,0-5.35,2,13.46,13.46,0,0,0-3.24,2.75c-.14.32-.25.64-.36,1A11.32,11.32,0,0,0,75.93,67a10.47,10.47,0,0,0,5.19,1.39,10.16,10.16,0,0,0,1.64-.13A9.4,9.4,0,0,0,83.93,68l.26-.09a13,13,0,0,0,4-2.24,16.49,16.49,0,0,0,3.63-4.09,9.62,9.62,0,0,0-3.22-2.94A9.47,9.47,0,0,0,84,57.51Z"/><path class="cls-9" d="M86.06,63.21a8.22,8.22,0,0,1-1.19,4.34c-.21.11-.44.23-.68.33l-.26.09a9.4,9.4,0,0,1-1.17.26A10.39,10.39,0,0,1,75.93,67a8.33,8.33,0,0,1-.87-3.76,8.58,8.58,0,0,1,.31-2.3,7,7,0,0,1,.41-1.14,2.72,2.72,0,0,1,.11-.25,8,8,0,0,1,.5-.86c.49-.18,1-.32,1.5-.47a16.68,16.68,0,0,1,4-.62l1.18,0c.27,0,.53,0,.8,0a5.79,5.79,0,0,1,.48.51,6.3,6.3,0,0,1,.92,1.42A8.36,8.36,0,0,1,86.06,63.21Z"/><path class="cls-8" d="M84,57.52v.25A10.67,10.67,0,0,1,86,58a8.5,8.5,0,0,1,2.49.88,9,9,0,0,1,1.35.92,9.79,9.79,0,0,1,1.69,1.81,15.41,15.41,0,0,1-1.69,2.19,13.49,13.49,0,0,1-1.8,1.69,12.56,12.56,0,0,1-4,2.23,1.66,1.66,0,0,1-.21.06,8.56,8.56,0,0,1-1.14.25,9.8,9.8,0,0,1-1.61.13,10.58,10.58,0,0,1-8.65-4.66c.09-.27.19-.53.3-.8A13.55,13.55,0,0,1,79.2,58.5a16.92,16.92,0,0,1,2-.47A18.26,18.26,0,0,1,84,57.77v-.25m0,0a17.52,17.52,0,0,0-2.88.27,14.37,14.37,0,0,0-2,.48,13.84,13.84,0,0,0-6.59,4.25c-.13.32-.25.64-.36,1a10.82,10.82,0,0,0,8.93,4.87,10.37,10.37,0,0,0,1.65-.13A11,11,0,0,0,83.93,68l.23-.07a12.65,12.65,0,0,0,4-2.26A14.46,14.46,0,0,0,90,63.92a16.33,16.33,0,0,0,1.8-2.37,10,10,0,0,0-1.83-2,8.44,8.44,0,0,0-1.39-1,9,9,0,0,0-2.56-.91,11.35,11.35,0,0,0-2-.18Z"/><g class="cls-10"><ellipse class="cls-11" cx="80.84" cy="62.64" rx="3.44" ry="3.96" transform="matrix(1, -0.09, 0.09, 1, -5.31, 7.54)"/></g><ellipse cx="80.84" cy="62.64" rx="2.29" ry="2.64" transform="translate(-5.31 7.54) rotate(-5.17)"/><ellipse class="cls-13" cx="81.44" cy="66.83" rx="0.5" ry="1.06" transform="translate(-8.29 11.63) rotate(-7.77)"/><ellipse class="cls-14" cx="83.27" cy="65.47" rx="0.51" ry="1.04" transform="translate(-22.28 56.53) rotate(-33.34)"/><ellipse class="cls-15" cx="78.64" cy="61.39" rx="1.5" ry="0.53" transform="translate(-8.73 13.24) rotate(-9.12)"/><ellipse class="cls-16" cx="77.33" cy="63.06" rx="0.5" ry="0.53"/><path class="cls-12" d="M72.91,62.14a9.63,9.63,0,0,1,2.46-2.65,10.94,10.94,0,0,1,3.77-1.65,16,16,0,0,1,3.92-.62c.36,0,.71,0,1.07,0a9.11,9.11,0,0,1,3,.44,7.08,7.08,0,0,1,1.59.78,9.42,9.42,0,0,1,1,.8,10.79,10.79,0,0,1,1.48,1.68,9,9,0,0,0-1-.68,8.68,8.68,0,0,0-1.78-.88,19,19,0,0,0-3.13-.59,13.3,13.3,0,0,0-1.55-.09,15.62,15.62,0,0,0-4.18.62l-.1,0h0c-.82.23-1.54.49-2.15.71A25,25,0,0,0,72.91,62.14Z"/><path class="cls-8" d="M84.12,57.32a8.84,8.84,0,0,1,3,.43,6.84,6.84,0,0,1,1.56.77,8,8,0,0,1,1,.72h0l.08.08a9.25,9.25,0,0,1,.93,1,2.61,2.61,0,0,0-.28-.17,9,9,0,0,0-1.81-.9,18,18,0,0,0-3.16-.59,11.46,11.46,0,0,0-1.56-.1,15.6,15.6,0,0,0-4.22.63l-.18.06h0c-.76.21-1.45.45-2.08.68a25.06,25.06,0,0,0-4,1.86,9.3,9.3,0,0,1,2.13-2.16A10.73,10.73,0,0,1,79.18,58a15.73,15.73,0,0,1,3.89-.62l1.05,0m0-.25-1.06,0a16.29,16.29,0,0,0-4,.63,11,11,0,0,0-3.81,1.67,9.78,9.78,0,0,0-2.76,3.13,24.17,24.17,0,0,1,4.88-2.39c.64-.24,1.39-.5,2.24-.73h0a15.46,15.46,0,0,1,4.15-.62,11.44,11.44,0,0,1,1.53.1,17.65,17.65,0,0,1,3.11.58,8.49,8.49,0,0,1,1.76.87,9.93,9.93,0,0,1,1.63,1.23,10.92,10.92,0,0,0-2-2.42,0,0,0,0,0,0,0,9,9,0,0,0-1.06-.81,7.41,7.41,0,0,0-1.62-.8,9.2,9.2,0,0,0-3-.44Z"/><path class="cls-17" d="M107.44,84.13c-3.08,2-8.06,2.69-10,.2a4.49,4.49,0,0,1-.81-2.21c-.73-5.43.29-10.05.92-16.07.6-5.8.24-7.3-.37-8.58-1-2-2.28-2.76-2-3.86.57-2,5.44-1.84,5.93-1.83,1.76,0,4.91.11,5.61,1.79.79,1.92-2.61,3.52-4.2,8.11-2,5.9,0,13.67,3.24,15,.94.38,2.27.33,3.32,1.56a3.78,3.78,0,0,1,.92,2.54C110,82.47,108.33,83.54,107.44,84.13Z"/><ellipse class="cls-17" cx="96.77" cy="82.66" rx="3.7" ry="3.17" transform="translate(8.3 174.16) rotate(-86.47)"/><path class="cls-5" d="M136.84,59.55c-.29,0,.66-3.06-1-5.28-1.37-1.83-3.21-1.39-4-3.18-.63-1.43.34-2.21,0-4.23a4.42,4.42,0,0,0-.33-1.13c-.65-1.53-1.91-2.19-2.67-3.63h0c-1.85-3.52.37-9.85,2.79-11.66a2.16,2.16,0,0,1,1.21-.49,2.39,2.39,0,0,1,1.8,1c2,2.21,3.57,7.6,4.2,11.15C140.5,51.54,137.31,59.63,136.84,59.55Z"/><path class="cls-4" d="M51.84,38.4c-1,4.88,3.13,12.68,6,12.69.83,0,1.15-.64,3-1.05,2.38-.54,3.1.26,5,0a8.66,8.66,0,0,0,6-4.23c1.4-2.5.53-4.35,2-5.29.89-.58,2-.38,4,0,2.57.47,2.74,1.13,4,1,2.19-.13,4.13-2.28,5-4.23,1.29-2.89-.24-4.28,1-6.34,1-1.71,2.7-1.8,7-3.17.52-.17,8.09-2.61,8-3.18C102.62,23.26,54.74,24.38,51.84,38.4Z"/><path class="cls-17" d="M109.84,96.57c-.08.79-4.35,1.3-8,1.06-6-.4-10.63-2.84-10.56-3.07a47,47,0,0,0,5,1c3.6.39,6.34.68,9,0a5.32,5.32,0,0,1,3,0C108.79,95.72,109.88,96.16,109.84,96.57Z"/><path class="cls-18" d="M135.84,36.82c-.39,1.76-2,1.5-3,3.7-.56,1.27-.19,1.77-1,4.23-.12.38-.23.71-.33,1-.65-1.53-1.91-2.19-2.67-3.63h0a16.05,16.05,0,0,1,0-5.27,15.47,15.47,0,0,1,2.79-6.39c1.37-1.84,2.78-2.86,3.21-2.6s-.17,1.3-.2,3.12a9.08,9.08,0,0,0,.2,2.16C135.29,35.19,136.11,35.59,135.84,36.82Z"/><path class="cls-5" d="M134.84,36.29c-.69,1.77-3.1,1.18-4,3.17-.67,1.48.43,2.34,0,4.23-.62,2.75-3.81,4.93-5,4.23s.81-4.13-1-7.4c-1.14-2.05-2.37-1.47-5-4.23s-2.13-4.32-4-5.29c-3.08-1.61-6,1.65-8,0-1.79-1.46-.15-4.51-2-6.35a1.71,1.71,0,0,0-.25-.22,3.57,3.57,0,0,0-2.73-.57c-1.83.19-3.77.95-5-.26-2.23-2.18-.6-9.12,3-12.7a11,11,0,0,1,1.71-1.36,12.59,12.59,0,0,1,1.29-.75l.59-.29a29.46,29.46,0,0,1,4.41-1.83,6.15,6.15,0,0,1,4,0c1.62.7,1.57,1.89,3,2.12,1.27.21,2-.61,3,0,.45.28.36.51,1,1.06.84.72,1.32.6,2,1.05,1.38.91.74,2.25,2,3.18s2.16,0,3,1.05a7.76,7.76,0,0,0,1.07,1.47,7.66,7.66,0,0,0,.93.65c2,1.85.78,3.7,3,6.35,1.48,1.76,2.67,1.71,3,3.17s-.86,2-1,4.23C133.66,33.78,135.46,34.69,134.84,36.29Z"/><path class="cls-18" d="M106.84,16.19a22.26,22.26,0,0,1-1.25,8.24,3.57,3.57,0,0,0-2.73-.57,24.63,24.63,0,0,1-1-7.67,27.88,27.88,0,0,1,.71-6.65,12.59,12.59,0,0,1,1.29-.75A12.37,12.37,0,0,1,105.63,8,22.85,22.85,0,0,1,106.84,16.19Z"/><path class="cls-5" d="M52.84,27.83c-1.05,3.43-2.74,3.38-4,6.34a9.45,9.45,0,0,0-.55,1.94c-.78,3.8-.63,5.42-1,7.45-.88,4.76-3.38,4.89-3,8,.23,1.87,1.14,1.87,2,5s.18,3.9,1,5c1.71,2.27,7.43,2.62,10,0,3.38-3.44-.76-10,2.56-12.58,2.31-1.79,4.8.68,8-1.06,4-2.15,2.45-7.8,6-9.52s7,2.92,10,1.06c2.45-1.53.8-5.05,3-8.46,3.79-5.88,12.42-1.23,17-6.88,3.84-4.73,1.76-12.9,0-16.39-.53-1-1.4-2.7-3-3.17s-2.39.85-5,1.06-3-1-6-1.06c-2.17,0-2.16.64-5,1.06-4.2.62-4.89-.72-8,0s-2.43,1.92-6,3.17c-4.3,1.5-6.41.16-8,2.11-1.25,1.54-.51,3.06-2,4.23s-2.37.12-4,1.06-2.36,3.11-3,5.29C52.88,24.73,53.6,25.32,52.84,27.83Z"/><path class="cls-5" d="M53.6,70.22c1.48,4.79,4.33,6.81,3.66,7.6-.85,1-6-1.54-8.75-5.74a9.85,9.85,0,0,1-1.81-4.32c-.26-2,.41-2.69.24-5.29-.15-2.33-.73-2.32-.81-4.27s.41-5.47,2.29-6.24c1.2-.49,2.89.16,3.95,1.26C55.6,56.59,51.11,62.21,53.6,70.22Z"/><path class="cls-19" d="M49.07,71.74a25.64,25.64,0,0,0,3.4,8.71c1.64,2.61,4.73,7.69,7.45,7,2.3-.58,4-5.18,3.14-8.48-.54-2-1.71-2.4-1.78-4.25-.07-2.32,1.71-3.18,2.51-5.31,1.58-4.18-1.19-11.79-6.13-12.84-3-.65-6.25,1.33-7.9,3.73C47.5,63.6,48.27,67.61,49.07,71.74Z"/><path class="cls-20" d="M52.78,74.39c.36.94,1,2.47,2.09,2.67.59.1.84-.27,1.86-.24a3.66,3.66,0,0,1,2.09.61c1,.74.83,1.71,1.68,2a1.39,1.39,0,0,0,1.59-.37c.35-.6-.52-1.4-1.06-2.7a5,5,0,0,1-.33-1.09c-.21-1.17.21-1.31.71-3.87a2,2,0,0,1,.05-.24c.42-2.2.94-5.42-.51-8.4-.21-.41-2-4.12-4.85-4.14s-4.86,3.65-5.51,6.19C50,67.15,51,69.57,52.78,74.39Z"/><path class="cls-17" d="M57.86,74.71c.22,1.29,1.92,2.41,2.83,2a.93.93,0,0,0,.34-.29,5,5,0,0,1-.33-1.09c-.21-1.17.21-1.31.71-3.87a2,2,0,0,1,.05-.24C60.47,70.82,57.55,72.81,57.86,74.71Z"/><path class="cls-3" d="M48.84,202.33a87.65,87.65,0,0,1-1.33,16.56c-.39-2.51-.93-5.21-1.67-8.1-.56-2.19-1.19-4.24-1.86-6.15l-.3-.86q-.85-2.37-1.8-4.48c.24-10.25,1.7-18.12,3.46-18.12C47.27,181.18,48.84,190.64,48.84,202.33Z"/><path class="cls-2" d="M46.84,189.64c.52,11.67-.74,26-4,26.44-2.15.29-2.78-5.8-10-13.75-3.58-3.93-7.82-8.6-14-9.52-5.49-.81-8.39,1.88-10,0-1.33-1.54-.07-4.22,4-15.86,1.63-4.66,2.75-8,5-13.75,3.52-9,4.92-11.33,7-11.63.42-.07.82,0,6,2.11a44.05,44.05,0,0,1,5,2.12C37.82,157.36,45.75,165.39,46.84,189.64Z"/><path class="cls-6" d="M91.28,51.56v-3a20.9,20.9,0,0,0-5.25-1,22.82,22.82,0,0,0-10.5,2,25.94,25.94,0,0,0-5.25,3,36.16,36.16,0,0,1,21-1Z"/><ellipse class="cls-1" cx="119.78" cy="68.06" rx="6.5" ry="1.5"/><ellipse class="cls-1" cx="79.78" cy="69.06" rx="6.5" ry="1.5"/><ellipse class="cls-21" cx="79.28" cy="75.06" rx="12" ry="4.5"/><ellipse class="cls-22" cx="121.28" cy="74.06" rx="12" ry="4.5"/></g></g></svg>